# Blender 5.2.2 LTS
# www.blender.org
mtllib eye white.mtl
o eye_white
v 1.013859 -0.028444 0.042252 0.8869 0.8869 0.8869
v 1.013859 0.069548 0.042252 0.8869 0.8869 0.8869
v 0.985843 0.020537 0.091248 0.8869 0.8869 0.8869
v 1.013859 -0.040468 -0.001755 0.8869 0.8869 0.8869
v 1.013859 0.082549 -0.001755 0.8869 0.8869 0.8869
v 1.013859 0.069548 -0.044754 0.8869 0.8869 0.8869
v 1.013859 -0.028444 -0.044754 0.8869 0.8869 0.8869
v 0.985843 0.020537 -0.094757 0.8869 0.8869 0.8869
v 1.783848 -0.453462 0.151245 0.8869 0.8869 0.8869
v 1.838840 -0.569459 0.151245 0.8869 0.8869 0.8869
v 1.837864 -0.498445 0.151245 0.8869 0.8869 0.8869
v 1.785862 -0.623445 0.151245 0.8869 0.8869 0.8869
v 1.707859 -0.460450 0.151245 0.8869 0.8869 0.8869
v 1.710850 -0.630464 0.151245 0.8869 0.8869 0.8869
v 1.654850 -0.515443 0.151245 0.8869 0.8869 0.8869
v 1.655857 -0.585450 0.151245 0.8869 0.8869 0.8869
v 0.716862 -0.478456 0.139252 0.8869 0.8869 0.8869
v 0.731846 -0.362459 0.139252 0.8869 0.8869 0.8869
v 0.690861 -0.394441 0.139252 0.8869 0.8869 0.8869
v 0.683842 -0.442445 0.139252 0.8869 0.8869 0.8869
v 0.768863 -0.481447 0.139252 0.8869 0.8869 0.8869
v 0.783848 -0.365449 0.139252 0.8869 0.8869 0.8869
v 0.809849 -0.449464 0.139252 0.8869 0.8869 0.8869
v 0.816868 -0.401460 0.139252 0.8869 0.8869 0.8869
v 1.430851 -0.482454 0.137253 0.8869 0.8869 0.8869
v 1.447849 -0.403444 0.137253 0.8869 0.8869 0.8869
v 1.383854 -0.489442 0.137253 0.8869 0.8869 0.8869
v 1.457859 -0.447450 0.137253 0.8869 0.8869 0.8869
v 1.407841 -0.377443 0.137253 0.8869 0.8869 0.8869
v 1.343845 -0.463441 0.137253 0.8869 0.8869 0.8869
v 1.359867 -0.384462 0.137253 0.8869 0.8869 0.8869
v 1.333866 -0.420442 0.137253 0.8869 0.8869 0.8869
v -0.429135 -0.422456 0.135254 0.8869 0.8869 0.8869
v -0.414150 -0.321443 0.135254 0.8869 0.8869 0.8869
v -0.451138 -0.348451 0.135254 0.8869 0.8869 0.8869
v -0.457150 -0.390443 0.135254 0.8869 0.8869 0.8869
v -0.384152 -0.426454 0.135254 0.8869 0.8869 0.8869
v -0.368160 -0.324464 0.135254 0.8869 0.8869 0.8869
v -0.347134 -0.399446 0.135254 0.8869 0.8869 0.8869
v -0.340145 -0.356447 0.135254 0.8869 0.8869 0.8869
v -0.066158 -0.471467 0.134247 0.8869 0.8869 0.8869
v -0.041134 -0.399446 0.134247 0.8869 0.8869 0.8869
v -0.111141 -0.472444 0.134247 0.8869 0.8869 0.8869
v -0.037136 -0.441469 0.134247 0.8869 0.8869 0.8869
v -0.075131 -0.370454 0.134247 0.8869 0.8869 0.8869
v -0.146145 -0.443452 0.134247 0.8869 0.8869 0.8869
v -0.120144 -0.371461 0.134247 0.8869 0.8869 0.8869
v -0.150143 -0.401460 0.134247 0.8869 0.8869 0.8869
v -0.890133 -0.430452 0.132248 0.8869 0.8869 0.8869
v -0.876156 -0.334443 0.132248 0.8869 0.8869 0.8869
v -0.911160 -0.360444 0.132248 0.8869 0.8869 0.8869
v -0.917141 -0.400453 0.132248 0.8869 0.8869 0.8869
v -0.847134 -0.433442 0.132248 0.8869 0.8869 0.8869
v -0.833157 -0.337465 0.132248 0.8869 0.8869 0.8869
v -0.813137 -0.407441 0.132248 0.8869 0.8869 0.8869
v -0.807156 -0.368470 0.132248 0.8869 0.8869 0.8869
v 0.841862 -0.884462 0.133240 0.8869 0.8869 0.8869
v 0.866855 -0.815461 0.133240 0.8869 0.8869 0.8869
v 0.797855 -0.884462 0.133240 0.8869 0.8869 0.8869
v 0.869846 -0.855470 0.133240 0.8869 0.8869 0.8869
v 0.833866 -0.787446 0.133240 0.8869 0.8869 0.8869
v 0.764866 -0.856447 0.133240 0.8869 0.8869 0.8869
v 0.789860 -0.787446 0.133240 0.8869 0.8869 0.8869
v 0.760868 -0.816469 0.133240 0.8869 0.8869 0.8869
v 1.860844 -0.760469 0.132248 0.8869 0.8869 0.8869
v 1.876865 -0.697450 0.132248 0.8869 0.8869 0.8869
v 1.853855 -0.725465 0.132248 0.8869 0.8869 0.8869
v 1.914860 -0.693452 0.132248 0.8869 0.8869 0.8869
v 1.891849 -0.782441 0.132248 0.8869 0.8869 0.8869
v 1.946842 -0.715455 0.132248 0.8869 0.8869 0.8869
v 1.929844 -0.778444 0.132248 0.8869 0.8869 0.8869
v 1.952854 -0.751466 0.132248 0.8869 0.8869 0.8869
v 1.169865 -0.881471 0.132248 0.8869 0.8869 0.8869
v 1.177860 -0.815461 0.132248 0.8869 0.8869 0.8869
v 1.131840 -0.890443 0.132248 0.8869 0.8869 0.8869
v 1.188846 -0.850465 0.132248 0.8869 0.8869 0.8869
v 1.142856 -0.797456 0.132248 0.8869 0.8869 0.8869
v 1.096866 -0.872468 0.132248 0.8869 0.8869 0.8869
v 1.104862 -0.806459 0.132248 0.8869 0.8869 0.8869
v 1.085850 -0.837465 0.132248 0.8869 0.8869 0.8869
v 0.426853 -0.419465 0.131241 0.8869 0.8869 0.8869
v 0.435856 -0.349458 0.131241 0.8869 0.8869 0.8869
v 0.385868 -0.429445 0.131241 0.8869 0.8869 0.8869
v 0.447849 -0.386445 0.131241 0.8869 0.8869 0.8869
v 0.398868 -0.330446 0.131241 0.8869 0.8869 0.8869
v 0.348850 -0.409456 0.131241 0.8869 0.8869 0.8869
v 0.357853 -0.339448 0.131241 0.8869 0.8869 0.8869
v 0.336857 -0.372468 0.131241 0.8869 0.8869 0.8869
v 0.153843 -0.543458 0.131241 0.8869 0.8869 0.8869
v 0.162845 -0.461458 0.131241 0.8869 0.8869 0.8869
v 0.133854 -0.484468 0.131241 0.8869 0.8869 0.8869
v 0.130863 -0.518464 0.131241 0.8869 0.8869 0.8869
v 0.190861 -0.544465 0.131241 0.8869 0.8869 0.8869
v 0.198856 -0.462465 0.131241 0.8869 0.8869 0.8869
v 0.218845 -0.521455 0.131241 0.8869 0.8869 0.8869
v 0.222843 -0.487459 0.131241 0.8869 0.8869 0.8869
v 0.627842 -0.579469 0.128250 0.8869 0.8869 0.8869
v 0.638859 -0.522462 0.128250 0.8869 0.8869 0.8869
v 0.594852 -0.585450 0.128250 0.8869 0.8869 0.8869
v 0.646854 -0.553468 0.128250 0.8869 0.8869 0.8869
v 0.609867 -0.505464 0.128250 0.8869 0.8869 0.8869
v 0.565861 -0.567445 0.128250 0.8869 0.8869 0.8869
v 0.575840 -0.510469 0.128250 0.8869 0.8869 0.8869
v 0.557865 -0.536470 0.128250 0.8869 0.8869 0.8869
v -1.120144 -0.362459 0.127243 0.8869 0.8869 0.8869
v -1.104153 -0.310457 0.127243 0.8869 0.8869 0.8869
v -1.124142 -0.333467 0.127243 0.8869 0.8869 0.8869
v -1.072140 -0.309449 0.127243 0.8869 0.8869 0.8869
v -1.095150 -0.382448 0.127243 0.8869 0.8869 0.8869
v -1.046139 -0.328462 0.127243 0.8869 0.8869 0.8869
v -1.063137 -0.380464 0.127243 0.8869 0.8869 0.8869
v -1.042141 -0.358461 0.127243 0.8869 0.8869 0.8869
v -0.594143 -0.365449 0.126251 0.8869 0.8869 0.8869
v -0.590145 -0.314454 0.126251 0.8869 0.8869 0.8869
v -0.623135 -0.373445 0.126251 0.8869 0.8869 0.8869
v -0.580136 -0.340455 0.126251 0.8869 0.8869 0.8869
v -0.617153 -0.301454 0.126251 0.8869 0.8869 0.8869
v -0.650143 -0.360444 0.126251 0.8869 0.8869 0.8869
v -0.646145 -0.309449 0.126251 0.8869 0.8869 0.8869
v -0.660153 -0.334443 0.126251 0.8869 0.8869 0.8869
v -1.306149 -0.404451 0.125244 0.8869 0.8869 0.8869
v -1.285153 -0.342470 0.125244 0.8869 0.8869 0.8869
v -1.311154 -0.355470 0.125244 0.8869 0.8869 0.8869
v -1.320156 -0.381471 0.125244 0.8869 0.8869 0.8869
v -1.278134 -0.411470 0.125244 0.8869 0.8869 0.8869
v -1.257137 -0.349458 0.125244 0.8869 0.8869 0.8869
v -1.251156 -0.398469 0.125244 0.8869 0.8869 0.8869
v -1.243160 -0.373445 0.125244 0.8869 0.8869 0.8869
v 1.317844 -0.733461 0.122253 0.8869 0.8869 0.8869
v 1.297855 -0.698457 0.122253 0.8869 0.8869 0.8869
v 1.299869 -0.720460 0.122253 0.8869 0.8869 0.8869
v 1.312839 -0.680452 0.122253 0.8869 0.8869 0.8869
v 1.340855 -0.729463 0.122253 0.8869 0.8869 0.8869
v 1.336857 -0.676454 0.122253 0.8869 0.8869 0.8869
v 1.356846 -0.711458 0.122253 0.8869 0.8869 0.8869
v 1.354862 -0.689454 0.122253 0.8869 0.8869 0.8869
v -0.987148 -0.043458 0.055252 0.8869 0.8869 0.8869
v -0.987148 0.084532 0.055252 0.8869 0.8869 0.8869
v -0.987148 0.100554 -0.001755 0.8869 0.8869 0.8869
v -0.951138 0.020537 0.120254 0.8869 0.8869 0.8869
v -0.987148 -0.059449 -0.001755 0.8869 0.8869 0.8869
v -0.987148 -0.043458 -0.058746 0.8869 0.8869 0.8869
v -0.987148 0.084532 -0.058746 0.8869 0.8869 0.8869
v -0.951138 0.020537 -0.122757 0.8869 0.8869 0.8869
v 1.618870 -0.523469 -0.148758 0.8869 0.8869 0.8869
v 1.619846 -0.458467 -0.148758 0.8869 0.8869 0.8869
v 1.669865 -0.416444 -0.148758 0.8869 0.8869 0.8869
v 1.667850 -0.573457 -0.148758 0.8869 0.8869 0.8869
v 1.740848 -0.422456 -0.148758 0.8869 0.8869 0.8869
v 1.737858 -0.580446 -0.148758 0.8869 0.8869 0.8869
v 1.788853 -0.473451 -0.148758 0.8869 0.8869 0.8869
v 1.787845 -0.538453 -0.148758 0.8869 0.8869 0.8869
v 0.836857 -0.446443 -0.141754 0.8869 0.8869 0.8869
v 0.787845 -0.340455 -0.141754 0.8869 0.8869 0.8869
v 0.836857 -0.358461 -0.141754 0.8869 0.8869 0.8869
v 0.856846 -0.402467 -0.141754 0.8869 0.8869 0.8869
v 0.787845 -0.464448 -0.141754 0.8869 0.8869 0.8869
v 0.738865 -0.358461 -0.141754 0.8869 0.8869 0.8869
v 0.738865 -0.446443 -0.141754 0.8869 0.8869 0.8869
v 0.718845 -0.402467 -0.141754 0.8869 0.8869 0.8869
v 1.494846 -0.631471 -0.139755 0.8869 0.8869 0.8869
v 1.444858 -0.551454 -0.139755 0.8869 0.8869 0.8869
v 1.485844 -0.561464 -0.139755 0.8869 0.8869 0.8869
v 1.506840 -0.594453 -0.139755 0.8869 0.8869 0.8869
v 1.457859 -0.650453 -0.139755 0.8869 0.8869 0.8869
v 1.407841 -0.570466 -0.139755 0.8869 0.8869 0.8869
v 1.416843 -0.641450 -0.139755 0.8869 0.8869 0.8869
v 1.395847 -0.608461 -0.139755 0.8869 0.8869 0.8869
v 0.080845 -0.497468 -0.139755 0.8869 0.8869 0.8869
v 0.043857 -0.431459 -0.139755 0.8869 0.8869 0.8869
v 0.077854 -0.456453 -0.139755 0.8869 0.8869 0.8869
v -0.001156 -0.438447 -0.139755 0.8869 0.8869 0.8869
v 0.051853 -0.532441 -0.139755 0.8869 0.8869 0.8869
v -0.030148 -0.472444 -0.139755 0.8869 0.8869 0.8869
v 0.006840 -0.539460 -0.139755 0.8869 0.8869 0.8869
v -0.027157 -0.514467 -0.139755 0.8869 0.8869 0.8869
v -0.222134 -0.415468 -0.139755 0.8869 0.8869 0.8869
v -0.238156 -0.313447 -0.139755 0.8869 0.8869 0.8869
v -0.201138 -0.340455 -0.139755 0.8869 0.8869 0.8869
v -0.194149 -0.383455 -0.139755 0.8869 0.8869 0.8869
v -0.268154 -0.418458 -0.139755 0.8869 0.8869 0.8869
v -0.284146 -0.317445 -0.139755 0.8869 0.8869 0.8869
v -0.305142 -0.391450 -0.139755 0.8869 0.8869 0.8869
v -0.311154 -0.349458 -0.139755 0.8869 0.8869 0.8869
v 1.158848 -0.898469 -0.139755 0.8869 0.8869 0.8869
v 1.141849 -0.803468 -0.139755 0.8869 0.8869 0.8869
v 1.176853 -0.828462 -0.139755 0.8869 0.8869 0.8869
v 1.183842 -0.867463 -0.139755 0.8869 0.8869 0.8869
v 1.115848 -0.903444 -0.139755 0.8869 0.8869 0.8869
v 1.098850 -0.808442 -0.139755 0.8869 0.8869 0.8869
v 1.080845 -0.878450 -0.139755 0.8869 0.8869 0.8869
v 1.072849 -0.839448 -0.139755 0.8869 0.8869 0.8869
v -0.814144 -0.401460 -0.138748 0.8869 0.8869 0.8869
v -0.828152 -0.305452 -0.138748 0.8869 0.8869 0.8869
v -0.793148 -0.331453 -0.138748 0.8869 0.8869 0.8869
v -0.788143 -0.371461 -0.138748 0.8869 0.8869 0.8869
v -0.857144 -0.404451 -0.138748 0.8869 0.8869 0.8869
v -0.871151 -0.308442 -0.138748 0.8869 0.8869 0.8869
v -0.891140 -0.378450 -0.138748 0.8869 0.8869 0.8869
v -0.897152 -0.339448 -0.138748 0.8869 0.8869 0.8869
v 0.852848 -0.874452 -0.137756 0.8869 0.8869 0.8869
v 0.806858 -0.799470 -0.137756 0.8869 0.8869 0.8869
v 0.844852 -0.808442 -0.137756 0.8869 0.8869 0.8869
v 0.863865 -0.839448 -0.137756 0.8869 0.8869 0.8869
v 0.817844 -0.892457 -0.137756 0.8869 0.8869 0.8869
v 0.771854 -0.817445 -0.137756 0.8869 0.8869 0.8869
v 0.779850 -0.882448 -0.137756 0.8869 0.8869 0.8869
v 0.760868 -0.851442 -0.137756 0.8869 0.8869 0.8869
v 0.574863 -0.504457 -0.137756 0.8869 0.8869 0.8869
v 0.505863 -0.434449 -0.137756 0.8869 0.8869 0.8869
v 0.549869 -0.434449 -0.137756 0.8869 0.8869 0.8869
v 0.578861 -0.463441 -0.137756 0.8869 0.8869 0.8869
v 0.541843 -0.532441 -0.137756 0.8869 0.8869 0.8869
v 0.472843 -0.462465 -0.137756 0.8869 0.8869 0.8869
v 0.497867 -0.532441 -0.137756 0.8869 0.8869 0.8869
v 0.469852 -0.503450 -0.137756 0.8869 0.8869 0.8869
v 0.286869 -0.438447 -0.133759 0.8869 0.8869 0.8869
v 0.277866 -0.357454 -0.133759 0.8869 0.8869 0.8869
v 0.306858 -0.380464 -0.133759 0.8869 0.8869 0.8869
v 0.309849 -0.414460 -0.133759 0.8869 0.8869 0.8869
v 0.249851 -0.440461 -0.133759 0.8869 0.8869 0.8869
v 0.241855 -0.358461 -0.133759 0.8869 0.8869 0.8869
v 0.221866 -0.417451 -0.133759 0.8869 0.8869 0.8869
v 0.217869 -0.383455 -0.133759 0.8869 0.8869 0.8869
v -1.036160 -0.423463 -0.133759 0.8869 0.8869 0.8869
v -1.084133 -0.370454 -0.133759 0.8869 0.8869 0.8869
v -1.052151 -0.371461 -0.133759 0.8869 0.8869 0.8869
v -1.032131 -0.394441 -0.133759 0.8869 0.8869 0.8869
v -1.061154 -0.443452 -0.133759 0.8869 0.8869 0.8869
v -1.110134 -0.389467 -0.133759 0.8869 0.8869 0.8869
v -1.094143 -0.441469 -0.133759 0.8869 0.8869 0.8869
v -1.114132 -0.419465 -0.133759 0.8869 0.8869 0.8869
v -0.499142 -0.425447 -0.132751 0.8869 0.8869 0.8869
v -0.532131 -0.365449 -0.132751 0.8869 0.8869 0.8869
v -0.503140 -0.374452 -0.132751 0.8869 0.8869 0.8869
v -0.489132 -0.398469 -0.132751 0.8869 0.8869 0.8869
v -0.527157 -0.438447 -0.132751 0.8869 0.8869 0.8869
v -0.560147 -0.378450 -0.132751 0.8869 0.8869 0.8869
v -0.556149 -0.429445 -0.132751 0.8869 0.8869 0.8869
v -0.570156 -0.405458 -0.132751 0.8869 0.8869 0.8869
v 1.939854 -0.722444 -0.132751 0.8869 0.8869 0.8869
v 1.893864 -0.667451 -0.132751 0.8869 0.8869 0.8869
v 1.925846 -0.670442 -0.132751 0.8869 0.8869 0.8869
v 1.944858 -0.693452 -0.132751 0.8869 0.8869 0.8869
v 1.913853 -0.741456 -0.132751 0.8869 0.8869 0.8869
v 1.867863 -0.686464 -0.132751 0.8869 0.8869 0.8869
v 1.881840 -0.738466 -0.132751 0.8869 0.8869 0.8869
v 1.862858 -0.715455 -0.132751 0.8869 0.8869 0.8869
v -1.260159 -0.389467 -0.130753 0.8869 0.8869 0.8869
v -1.281155 -0.327455 -0.130753 0.8869 0.8869 0.8869
v -1.255154 -0.340455 -0.130753 0.8869 0.8869 0.8869
v -1.246151 -0.366456 -0.130753 0.8869 0.8869 0.8869
v -1.288143 -0.397462 -0.130753 0.8869 0.8869 0.8869
v -1.310146 -0.335450 -0.130753 0.8869 0.8869 0.8869
v -1.315151 -0.384462 -0.130753 0.8869 0.8869 0.8869
v -1.323147 -0.358461 -0.130753 0.8869 0.8869 0.8869
v 1.285862 -0.422456 -0.129745 0.8869 0.8869 0.8869
v 1.256840 -0.351442 -0.129745 0.8869 0.8869 0.8869
v 1.287845 -0.364442 -0.129745 0.8869 0.8869 0.8869
v 1.299869 -0.394441 -0.129745 0.8869 0.8869 0.8869
v 1.252842 -0.432466 -0.129745 0.8869 0.8869 0.8869
v 1.223850 -0.361451 -0.129745 0.8869 0.8869 0.8869
v 1.221866 -0.419465 -0.129745 0.8869 0.8869 0.8869
v 1.209843 -0.389467 -0.129745 0.8869 0.8869 0.8869
v 0.737858 -0.734468 -0.127747 0.8869 0.8869 0.8869
v 0.720859 -0.683442 -0.127747 0.8869 0.8869 0.8869
v 0.742863 -0.694459 -0.127747 0.8869 0.8869 0.8869
v 0.749851 -0.715455 -0.127747 0.8869 0.8869 0.8869
v 0.714847 -0.740449 -0.127747 0.8869 0.8869 0.8869
v 0.697849 -0.689454 -0.127747 0.8869 0.8869 0.8869
v 0.692844 -0.729463 -0.127747 0.8869 0.8869 0.8869
v 0.686863 -0.707460 -0.127747 0.8869 0.8869 0.8869
v 1.014866 0.020537 0.025253 0.9996 0.0000 0.0000
v 1.014866 0.020537 -0.028748 0.9996 0.0000 0.0000
v 1.014866 0.048552 0.017242 0.9996 0.0000 0.0000
v 1.014866 -0.007448 0.017242 0.9996 0.0000 0.0000
v 1.014866 0.048552 -0.020752 0.9996 0.0000 0.0000
v 1.014866 0.066558 -0.001755 0.9996 0.0000 0.0000
v 1.014866 -0.007448 -0.020752 0.9996 0.0000 0.0000
v 1.014866 -0.025453 -0.001755 0.9996 0.0000 0.0000
v -0.974148 0.020537 0.038254 0.9996 0.0000 0.0000
v -0.974148 0.020537 -0.041748 0.9996 0.0000 0.0000
v -0.974148 0.063536 0.027252 0.9996 0.0000 0.0000
v -0.974148 -0.021455 0.027252 0.9996 0.0000 0.0000
v -0.974148 0.063536 -0.030746 0.9996 0.0000 0.0000
v -0.974148 0.090544 -0.001755 0.9996 0.0000 0.0000
v -0.974148 -0.021455 -0.030746 0.9996 0.0000 0.0000
v -0.974148 -0.048463 -0.001755 0.9996 0.0000 0.0000
v -0.989132 0.057555 0.023254 0.9996 0.0000 0.0000
v -0.974148 0.063536 0.027252 0.9996 0.0000 0.0000
v -0.974148 0.090544 -0.001755 0.9996 0.0000 0.0000
v -0.989132 0.081542 -0.001755 0.9996 0.0000 0.0000
v -0.989132 0.057555 -0.026749 0.9996 0.0000 0.0000
v -0.974148 0.090544 -0.001755 0.9996 0.0000 0.0000
v -0.974148 0.063536 -0.030746 0.9996 0.0000 0.0000
v -0.989132 0.081542 -0.001755 0.9996 0.0000 0.0000
v 1.003849 0.073546 -0.001755 0.9996 0.0000 0.0000
v 1.014866 0.048552 0.017242 0.9996 0.0000 0.0000
v 1.014866 0.066558 -0.001755 0.9996 0.0000 0.0000
v 1.003849 0.053557 0.020248 0.9996 0.0000 0.0000
v 1.014866 0.048552 -0.020752 0.9996 0.0000 0.0000
v 1.003849 0.053557 -0.023758 0.9996 0.0000 0.0000
v 1.003849 0.073546 -0.001755 0.9996 0.0000 0.0000
v 1.014866 0.066558 -0.001755 0.9996 0.0000 0.0000
v -0.974148 -0.021455 0.027252 0.9996 0.0000 0.0000
v -0.974148 0.020537 0.038254 0.9996 0.0000 0.0000
v -0.989132 -0.016450 0.023254 0.9996 0.0000 0.0000
v -0.989132 0.020537 0.033249 0.9996 0.0000 0.0000
v -0.989132 0.057555 0.023254 0.9996 0.0000 0.0000
v -0.974148 0.063536 0.027252 0.9996 0.0000 0.0000
v 1.014866 0.048552 0.017242 0.9996 0.0000 0.0000
v 1.003849 0.053557 0.020248 0.9996 0.0000 0.0000
v 1.003849 0.020537 0.029251 0.9996 0.0000 0.0000
v 1.014866 0.020537 0.025253 0.9996 0.0000 0.0000
v 1.014866 -0.007448 0.017242 0.9996 0.0000 0.0000
v 1.003849 -0.012452 0.020248 0.9996 0.0000 0.0000
v 1.711857 -0.468446 0.151245 0.9996 0.0000 0.0000
v 1.694858 -0.503450 0.151245 0.9996 0.0000 0.0000
v 1.746860 -0.542451 0.164246 0.9996 0.0000 0.0000
v 1.708866 -0.560457 0.151245 0.9996 0.0000 0.0000
v 1.748844 -0.477449 0.151245 0.9996 0.0000 0.0000
v 1.744846 -0.606447 0.151245 0.9996 0.0000 0.0000
v 1.784855 -0.523469 0.151245 0.9996 0.0000 0.0000
v 1.781864 -0.615449 0.151245 0.9996 0.0000 0.0000
v 1.798862 -0.581453 0.151245 0.9996 0.0000 0.0000
v 0.733860 -0.368470 0.140244 0.9996 0.0000 0.0000
v 0.718845 -0.390443 0.140244 0.9996 0.0000 0.0000
v 0.750858 -0.421449 0.149246 0.9996 0.0000 0.0000
v 0.722843 -0.430452 0.140244 0.9996 0.0000 0.0000
v 0.757847 -0.377443 0.140244 0.9996 0.0000 0.0000
v 0.742863 -0.465455 0.140244 0.9996 0.0000 0.0000
v 0.777866 -0.413453 0.140244 0.9996 0.0000 0.0000
v 0.766849 -0.475465 0.140244 0.9996 0.0000 0.0000
v 0.781864 -0.453462 0.140244 0.9996 0.0000 0.0000
v 1.406864 -0.383455 0.139252 0.9996 0.0000 0.0000
v 1.384861 -0.394441 0.139252 0.9996 0.0000 0.0000
v 1.395847 -0.433442 0.147247 0.9996 0.0000 0.0000
v 1.369846 -0.428468 0.139252 0.9996 0.0000 0.0000
v 1.421848 -0.402467 0.139252 0.9996 0.0000 0.0000
v 1.369846 -0.465455 0.139252 0.9996 0.0000 0.0000
v 1.421848 -0.439454 0.139252 0.9996 0.0000 0.0000
v 1.384861 -0.483461 0.139252 0.9996 0.0000 0.0000
v 1.406864 -0.473451 0.139252 0.9996 0.0000 0.0000
v -0.412136 -0.326448 0.136246 0.9996 0.0000 0.0000
v -0.426144 -0.345460 0.136246 0.9996 0.0000 0.0000
v -0.399136 -0.373445 0.144241 0.9996 0.0000 0.0000
v -0.423153 -0.380464 0.136246 0.9996 0.0000 0.0000
v -0.391140 -0.335450 0.136246 0.9996 0.0000 0.0000
v -0.407131 -0.412446 0.136246 0.9996 0.0000 0.0000
v -0.374142 -0.366456 0.136246 0.9996 0.0000 0.0000
v -0.385159 -0.421449 0.136246 0.9996 0.0000 0.0000
v -0.372158 -0.402467 0.136246 0.9996 0.0000 0.0000
v -0.077145 -0.375459 0.136246 0.9996 0.0000 0.0000
v -0.099148 -0.383455 0.136246 0.9996 0.0000 0.0000
v -0.093136 -0.421449 0.144241 0.9996 0.0000 0.0000
v -0.117153 -0.413453 0.136246 0.9996 0.0000 0.0000
v -0.065151 -0.395448 0.136246 0.9996 0.0000 0.0000
v -0.122158 -0.447450 0.136246 0.9996 0.0000 0.0000
v -0.070156 -0.429445 0.136246 0.9996 0.0000 0.0000
v -0.110134 -0.467470 0.136246 0.9996 0.0000 0.0000
v -0.088131 -0.459443 0.136246 0.9996 0.0000 0.0000
v 1.913853 -0.698457 0.134247 0.9996 0.0000 0.0000
v 1.896854 -0.706453 0.134247 0.9996 0.0000 0.0000
v 1.903843 -0.738466 0.141251 0.9996 0.0000 0.0000
v 1.882847 -0.732454 0.134247 0.9996 0.0000 0.0000
v 1.925846 -0.713441 0.134247 0.9996 0.0000 0.0000
v 1.881840 -0.762452 0.134247 0.9996 0.0000 0.0000
v 1.924869 -0.743470 0.134247 0.9996 0.0000 0.0000
v 1.892856 -0.778444 0.134247 0.9996 0.0000 0.0000
v 1.910862 -0.770448 0.134247 0.9996 0.0000 0.0000
v 1.142856 -0.802461 0.134247 0.9996 0.0000 0.0000
v 1.125858 -0.812471 0.134247 0.9996 0.0000 0.0000
v 1.137852 -0.844453 0.141251 0.9996 0.0000 0.0000
v 1.115848 -0.841462 0.134247 0.9996 0.0000 0.0000
v 1.155857 -0.816469 0.134247 0.9996 0.0000 0.0000
v 1.118870 -0.871461 0.134247 0.9996 0.0000 0.0000
v 1.158848 -0.846467 0.134247 0.9996 0.0000 0.0000
v 1.132847 -0.885469 0.134247 0.9996 0.0000 0.0000
v 1.148868 -0.875459 0.134247 0.9996 0.0000 0.0000
v -0.875149 -0.339448 0.134247 0.9996 0.0000 0.0000
v -0.887142 -0.357454 0.134247 0.9996 0.0000 0.0000
v -0.862148 -0.384462 0.142242 0.9996 0.0000 0.0000
v -0.885159 -0.391450 0.134247 0.9996 0.0000 0.0000
v -0.855160 -0.348451 0.134247 0.9996 0.0000 0.0000
v -0.869137 -0.420442 0.134247 0.9996 0.0000 0.0000
v -0.839138 -0.377443 0.134247 0.9996 0.0000 0.0000
v -0.849148 -0.428468 0.134247 0.9996 0.0000 0.0000
v -0.836147 -0.410463 0.134247 0.9996 0.0000 0.0000
v 0.831852 -0.791444 0.135254 0.9996 0.0000 0.0000
v 0.810856 -0.798463 0.135254 0.9996 0.0000 0.0000
v 0.815861 -0.835450 0.142242 0.9996 0.0000 0.0000
v 0.792850 -0.827455 0.135254 0.9996 0.0000 0.0000
v 0.842869 -0.810457 0.135254 0.9996 0.0000 0.0000
v 0.787845 -0.861451 0.135254 0.9996 0.0000 0.0000
v 0.838840 -0.844453 0.135254 0.9996 0.0000 0.0000
v 0.799869 -0.879457 0.135254 0.9996 0.0000 0.0000
v 0.820865 -0.872468 0.135254 0.9996 0.0000 0.0000
v 0.397861 -0.335450 0.133240 0.9996 0.0000 0.0000
v 0.379856 -0.346467 0.133240 0.9996 0.0000 0.0000
v 0.391849 -0.379457 0.140244 0.9996 0.0000 0.0000
v 0.368870 -0.376466 0.133240 0.9996 0.0000 0.0000
v 0.412845 -0.350465 0.133240 0.9996 0.0000 0.0000
v 0.371860 -0.409456 0.133240 0.9996 0.0000 0.0000
v 0.415867 -0.382448 0.133240 0.9996 0.0000 0.0000
v 0.386844 -0.424470 0.133240 0.9996 0.0000 0.0000
v 0.404850 -0.413453 0.133240 0.9996 0.0000 0.0000
v 0.163853 -0.465455 0.133240 0.9996 0.0000 0.0000
v 0.153843 -0.481447 0.133240 0.9996 0.0000 0.0000
v 0.176853 -0.502443 0.139252 0.9996 0.0000 0.0000
v 0.156864 -0.509462 0.133240 0.9996 0.0000 0.0000
v 0.180851 -0.472444 0.133240 0.9996 0.0000 0.0000
v 0.171848 -0.533449 0.133240 0.9996 0.0000 0.0000
v 0.195865 -0.496461 0.133240 0.9996 0.0000 0.0000
v 0.188846 -0.540468 0.133240 0.9996 0.0000 0.0000
v 0.198856 -0.524446 0.133240 0.9996 0.0000 0.0000
v 0.608860 -0.509462 0.131241 0.9996 0.0000 0.0000
v 0.593845 -0.517457 0.131241 0.9996 0.0000 0.0000
v 0.601841 -0.545442 0.137253 0.9996 0.0000 0.0000
v 0.583866 -0.541444 0.131241 0.9996 0.0000 0.0000
v 0.619846 -0.522462 0.131241 0.9996 0.0000 0.0000
v 0.583866 -0.568452 0.131241 0.9996 0.0000 0.0000
v 0.620853 -0.548463 0.131241 0.9996 0.0000 0.0000
v 0.595859 -0.581453 0.131241 0.9996 0.0000 0.0000
v 0.610843 -0.573457 0.131241 0.9996 0.0000 0.0000
v -1.073147 -0.312471 0.130249 0.9996 0.0000 0.0000
v -1.088131 -0.318452 0.130249 0.9996 0.0000 0.0000
v -1.083157 -0.345460 0.136246 0.9996 0.0000 0.0000
v -1.101132 -0.340455 0.130249 0.9996 0.0000 0.0000
v -1.064144 -0.326448 0.130249 0.9996 0.0000 0.0000
v -1.103146 -0.365449 0.130249 0.9996 0.0000 0.0000
v -1.066158 -0.351442 0.130249 0.9996 0.0000 0.0000
v -1.094143 -0.378450 0.130249 0.9996 0.0000 0.0000
v -1.078152 -0.372468 0.130249 0.9996 0.0000 0.0000
v -0.618160 -0.305452 0.129242 0.9996 0.0000 0.0000
v -0.630154 -0.313447 0.129242 0.9996 0.0000 0.0000
v -0.620144 -0.337465 0.134247 0.9996 0.0000 0.0000
v -0.637142 -0.336458 0.129242 0.9996 0.0000 0.0000
v -0.606137 -0.315461 0.129242 0.9996 0.0000 0.0000
v -0.634152 -0.359468 0.129242 0.9996 0.0000 0.0000
v -0.603146 -0.338441 0.129242 0.9996 0.0000 0.0000
v -0.622158 -0.370454 0.129242 0.9996 0.0000 0.0000
v -0.610134 -0.361451 0.129242 0.9996 0.0000 0.0000
v -1.285153 -0.345460 0.128250 0.9996 0.0000 0.0000
v -1.295132 -0.356447 0.128250 0.9996 0.0000 0.0000
v -1.281155 -0.377443 0.133240 0.9996 0.0000 0.0000
v -1.298153 -0.378450 0.128250 0.9996 0.0000 0.0000
v -1.272152 -0.353456 0.128250 0.9996 0.0000 0.0000
v -1.291134 -0.400453 0.128250 0.9996 0.0000 0.0000
v -1.265133 -0.375459 0.128250 0.9996 0.0000 0.0000
v -1.278134 -0.408449 0.128250 0.9996 0.0000 0.0000
v -1.268154 -0.398469 0.128250 0.9996 0.0000 0.0000
v 1.339847 -0.727449 0.125244 0.9996 0.0000 0.0000
v 1.343845 -0.715455 0.125244 0.9996 0.0000 0.0000
v 1.326847 -0.704469 0.129242 0.9996 0.0000 0.0000
v 1.338840 -0.698457 0.125244 0.9996 0.0000 0.0000
v 1.327854 -0.725465 0.125244 0.9996 0.0000 0.0000
v 1.325840 -0.684449 0.125244 0.9996 0.0000 0.0000
v 1.315861 -0.711458 0.125244 0.9996 0.0000 0.0000
v 1.313846 -0.682466 0.125244 0.9996 0.0000 0.0000
v 1.309849 -0.693452 0.125244 0.9996 0.0000 0.0000
v 0.729862 -0.694459 -0.131760 0.9996 0.0000 0.0000
v 0.720859 -0.686464 -0.131760 0.9996 0.0000 0.0000
v 0.710850 -0.692445 -0.131760 0.9996 0.0000 0.0000
v 0.730869 -0.713441 -0.131760 0.9996 0.0000 0.0000
v 0.704868 -0.710450 -0.131760 0.9996 0.0000 0.0000
v 0.724857 -0.730470 -0.131760 0.9996 0.0000 0.0000
v 0.706852 -0.728456 -0.131760 0.9996 0.0000 0.0000
v 0.714847 -0.737459 -0.131760 0.9996 0.0000 0.0000
v 1.269840 -0.366456 -0.132751 0.9996 0.0000 0.0000
v 1.256840 -0.355470 -0.132751 0.9996 0.0000 0.0000
v 1.242863 -0.365449 -0.132751 0.9996 0.0000 0.0000
v 1.273868 -0.392457 -0.132751 0.9996 0.0000 0.0000
v 1.235844 -0.391450 -0.132751 0.9996 0.0000 0.0000
v 1.266849 -0.418458 -0.132751 0.9996 0.0000 0.0000
v 1.239841 -0.417451 -0.132751 0.9996 0.0000 0.0000
v 1.252842 -0.428468 -0.132751 0.9996 0.0000 0.0000
v -1.271145 -0.341462 -0.134750 0.9996 0.0000 0.0000
v -1.282131 -0.331453 -0.134750 0.9996 0.0000 0.0000
v -1.294155 -0.339448 -0.134750 0.9996 0.0000 0.0000
v -1.269131 -0.364442 -0.134750 0.9996 0.0000 0.0000
v -1.301144 -0.360444 -0.134750 0.9996 0.0000 0.0000
v -1.276150 -0.385469 -0.134750 0.9996 0.0000 0.0000
v -1.299160 -0.383455 -0.134750 0.9996 0.0000 0.0000
v -1.288143 -0.393464 -0.134750 0.9996 0.0000 0.0000
v 1.894840 -0.671449 -0.135757 0.9996 0.0000 0.0000
v 1.884861 -0.684449 -0.135757 0.9996 0.0000 0.0000
v 1.909855 -0.677461 -0.135757 0.9996 0.0000 0.0000
v 1.920841 -0.699464 -0.135757 0.9996 0.0000 0.0000
v 1.886845 -0.708467 -0.135757 0.9996 0.0000 0.0000
v 1.921848 -0.724458 -0.135757 0.9996 0.0000 0.0000
v 1.897861 -0.731447 -0.135757 0.9996 0.0000 0.0000
v 1.912845 -0.737459 -0.135757 0.9996 0.0000 0.0000
v 0.286869 -0.377443 -0.136749 0.9996 0.0000 0.0000
v 0.276859 -0.361451 -0.136749 0.9996 0.0000 0.0000
v 0.259861 -0.367463 -0.136749 0.9996 0.0000 0.0000
v 0.283848 -0.405458 -0.136749 0.9996 0.0000 0.0000
v 0.244846 -0.392457 -0.136749 0.9996 0.0000 0.0000
v 0.268863 -0.429445 -0.136749 0.9996 0.0000 0.0000
v 0.241855 -0.420442 -0.136749 0.9996 0.0000 0.0000
v 0.251865 -0.435457 -0.136749 0.9996 0.0000 0.0000
v -0.532131 -0.369447 -0.135757 0.9996 0.0000 0.0000
v -0.543148 -0.379457 -0.135757 0.9996 0.0000 0.0000
v -0.519131 -0.378450 -0.135757 0.9996 0.0000 0.0000
v -0.513149 -0.400453 -0.135757 0.9996 0.0000 0.0000
v -0.546139 -0.403444 -0.135757 0.9996 0.0000 0.0000
v -0.516140 -0.424470 -0.135757 0.9996 0.0000 0.0000
v -0.540157 -0.425447 -0.135757 0.9996 0.0000 0.0000
v -0.527157 -0.434449 -0.135757 0.9996 0.0000 0.0000
v -1.083157 -0.373445 -0.136749 0.9996 0.0000 0.0000
v -1.092159 -0.387452 -0.136749 0.9996 0.0000 0.0000
v -1.068142 -0.379457 -0.136749 0.9996 0.0000 0.0000
v -1.056149 -0.401460 -0.136749 0.9996 0.0000 0.0000
v -1.090145 -0.412446 -0.136749 0.9996 0.0000 0.0000
v -1.053158 -0.426454 -0.136749 0.9996 0.0000 0.0000
v -1.078152 -0.434449 -0.136749 0.9996 0.0000 0.0000
v -1.063137 -0.440461 -0.136749 0.9996 0.0000 0.0000
v 0.546848 -0.475465 -0.139755 0.9996 0.0000 0.0000
v 0.496860 -0.458467 -0.139755 0.9996 0.0000 0.0000
v 0.500858 -0.491456 -0.139755 0.9996 0.0000 0.0000
v 0.528843 -0.446443 -0.139755 0.9996 0.0000 0.0000
v 0.507847 -0.439454 -0.139755 0.9996 0.0000 0.0000
v 0.551853 -0.508455 -0.139755 0.9996 0.0000 0.0000
v 0.518863 -0.520448 -0.139755 0.9996 0.0000 0.0000
v 0.539860 -0.527467 -0.139755 0.9996 0.0000 0.0000
v 0.806858 -0.804445 -0.140747 0.9996 0.0000 0.0000
v 0.792850 -0.818452 -0.140747 0.9996 0.0000 0.0000
v 0.823856 -0.814454 -0.140747 0.9996 0.0000 0.0000
v 0.833866 -0.843446 -0.140747 0.9996 0.0000 0.0000
v 0.789860 -0.848451 -0.140747 0.9996 0.0000 0.0000
v 0.830845 -0.873445 -0.140747 0.9996 0.0000 0.0000
v 0.799869 -0.877443 -0.140747 0.9996 0.0000 0.0000
v 0.816868 -0.887452 -0.140747 0.9996 0.0000 0.0000
v -0.817135 -0.328462 -0.140747 0.9996 0.0000 0.0000
v -0.829159 -0.310457 -0.140747 0.9996 0.0000 0.0000
v -0.849148 -0.319459 -0.140747 0.9996 0.0000 0.0000
v -0.819149 -0.362459 -0.140747 0.9996 0.0000 0.0000
v -0.865139 -0.348451 -0.140747 0.9996 0.0000 0.0000
v -0.835140 -0.391450 -0.140747 0.9996 0.0000 0.0000
v -0.868160 -0.381471 -0.140747 0.9996 0.0000 0.0000
v -0.856137 -0.399446 -0.140747 0.9996 0.0000 0.0000
v 0.057865 -0.506471 -0.141754 0.9996 0.0000 0.0000
v 0.003849 -0.497468 -0.141754 0.9996 0.0000 0.0000
v 0.026859 -0.524446 -0.141754 0.9996 0.0000 0.0000
v 0.048862 -0.527467 -0.141754 0.9996 0.0000 0.0000
v 0.046848 -0.473451 -0.141754 0.9996 0.0000 0.0000
v -0.007137 -0.464448 -0.141754 0.9996 0.0000 0.0000
v 0.023868 -0.446443 -0.141754 0.9996 0.0000 0.0000
v 0.001865 -0.443452 -0.141754 0.9996 0.0000 0.0000
v -0.226132 -0.337465 -0.141754 0.9996 0.0000 0.0000
v -0.239132 -0.318452 -0.141754 0.9996 0.0000 0.0000
v -0.261135 -0.327455 -0.141754 0.9996 0.0000 0.0000
v -0.228146 -0.373445 -0.141754 0.9996 0.0000 0.0000
v -0.278134 -0.359468 -0.141754 0.9996 0.0000 0.0000
v -0.245144 -0.404451 -0.141754 0.9996 0.0000 0.0000
v -0.280148 -0.394441 -0.141754 0.9996 0.0000 0.0000
v -0.267147 -0.413453 -0.141754 0.9996 0.0000 0.0000
v 1.445866 -0.556459 -0.142746 0.9996 0.0000 0.0000
v 1.430851 -0.571443 -0.142746 0.9996 0.0000 0.0000
v 1.463840 -0.567445 -0.142746 0.9996 0.0000 0.0000
v 1.474857 -0.598451 -0.142746 0.9996 0.0000 0.0000
v 1.427860 -0.604463 -0.142746 0.9996 0.0000 0.0000
v 1.471866 -0.630464 -0.142746 0.9996 0.0000 0.0000
v 1.438846 -0.634462 -0.142746 0.9996 0.0000 0.0000
v 1.456852 -0.645448 -0.142746 0.9996 0.0000 0.0000
v 0.808842 -0.362459 -0.143753 0.9996 0.0000 0.0000
v 0.787845 -0.346467 -0.143753 0.9996 0.0000 0.0000
v 0.766849 -0.362459 -0.143753 0.9996 0.0000 0.0000
v 0.816868 -0.402467 -0.143753 0.9996 0.0000 0.0000
v 0.758854 -0.402467 -0.143753 0.9996 0.0000 0.0000
v 0.807865 -0.442445 -0.143753 0.9996 0.0000 0.0000
v 0.766849 -0.442445 -0.143753 0.9996 0.0000 0.0000
v 0.787845 -0.458467 -0.143753 0.9996 0.0000 0.0000
v 1.152866 -0.826448 -0.143753 0.9996 0.0000 0.0000
v 1.139866 -0.808442 -0.143753 0.9996 0.0000 0.0000
v 1.119846 -0.817445 -0.143753 0.9996 0.0000 0.0000
v 1.151859 -0.859468 -0.143753 0.9996 0.0000 0.0000
v 1.105869 -0.847444 -0.143753 0.9996 0.0000 0.0000
v 1.136845 -0.889467 -0.143753 0.9996 0.0000 0.0000
v 1.103855 -0.881471 -0.143753 0.9996 0.0000 0.0000
v 1.116856 -0.898469 -0.143753 0.9996 0.0000 0.0000
v 1.701847 -0.438447 -0.148758 0.9996 0.0000 0.0000
v 1.668857 -0.481447 -0.148758 0.9996 0.0000 0.0000
v 1.739841 -0.515443 -0.148758 0.9996 0.0000 0.0000
v 1.751865 -0.462465 -0.148758 0.9996 0.0000 0.0000
v 1.736851 -0.430452 -0.148758 0.9996 0.0000 0.0000
v 1.705845 -0.558442 -0.148758 0.9996 0.0000 0.0000
v 1.655857 -0.534456 -0.148758 0.9996 0.0000 0.0000
v 1.671848 -0.566469 -0.148758 0.9996 0.0000 0.0000
v -0.989132 -0.016450 -0.026749 0.9996 0.0000 0.0000
v -0.989132 0.020537 0.033249 0.9996 0.0000 0.0000
v -0.989132 0.020537 -0.036758 0.9996 0.0000 0.0000
v -0.989132 0.057555 -0.026749 0.9996 0.0000 0.0000
v -0.989132 -0.016450 0.023254 0.9996 0.0000 0.0000
v -0.989132 -0.039460 -0.001755 0.9996 0.0000 0.0000
v -0.989132 0.057555 0.023254 0.9996 0.0000 0.0000
v -0.989132 0.081542 -0.001755 0.9996 0.0000 0.0000
v 1.003849 0.020537 -0.032745 0.9996 0.0000 0.0000
v 1.003849 -0.012452 -0.023758 0.9996 0.0000 0.0000
v 1.003849 -0.012452 0.020248 0.9996 0.0000 0.0000
v 1.003849 -0.032441 -0.001755 0.9996 0.0000 0.0000
v 1.003849 0.020537 0.029251 0.9996 0.0000 0.0000
v 1.003849 0.053557 -0.023758 0.9996 0.0000 0.0000
v 1.003849 0.053557 0.020248 0.9996 0.0000 0.0000
v 1.003849 0.073546 -0.001755 0.9996 0.0000 0.0000
v -0.974148 -0.021455 0.027252 0.9996 0.0000 0.0000
v -0.989132 -0.016450 0.023254 0.9996 0.0000 0.0000
v -0.974148 -0.048463 -0.001755 0.9996 0.0000 0.0000
v -0.989132 -0.039460 -0.001755 0.9996 0.0000 0.0000
v -0.989132 -0.016450 -0.026749 0.9996 0.0000 0.0000
v -0.974148 -0.021455 -0.030746 0.9996 0.0000 0.0000
v -0.974148 -0.048463 -0.001755 0.9996 0.0000 0.0000
v -0.989132 -0.039460 -0.001755 0.9996 0.0000 0.0000
v 1.014866 -0.007448 0.017242 0.9996 0.0000 0.0000
v 1.003849 -0.012452 0.020248 0.9996 0.0000 0.0000
v 1.003849 -0.032441 -0.001755 0.9996 0.0000 0.0000
v 1.014866 -0.025453 -0.001755 0.9996 0.0000 0.0000
v 1.014866 -0.007448 -0.020752 0.9996 0.0000 0.0000
v 1.003849 -0.012452 -0.023758 0.9996 0.0000 0.0000
v 1.003849 -0.032441 -0.001755 0.9996 0.0000 0.0000
v 1.014866 -0.025453 -0.001755 0.9996 0.0000 0.0000
v -0.989132 0.057555 -0.026749 0.9996 0.0000 0.0000
v -0.974148 0.063536 -0.030746 0.9996 0.0000 0.0000
v -0.974148 0.020537 -0.041748 0.9996 0.0000 0.0000
v -0.989132 0.020537 -0.036758 0.9996 0.0000 0.0000
v -0.989132 -0.016450 -0.026749 0.9996 0.0000 0.0000
v -0.974148 -0.021455 -0.030746 0.9996 0.0000 0.0000
v 1.014866 0.020537 -0.028748 0.9996 0.0000 0.0000
v 1.014866 -0.007448 -0.020752 0.9996 0.0000 0.0000
v 1.003849 0.020537 -0.032745 0.9996 0.0000 0.0000
v 1.014866 0.048552 -0.020752 0.9996 0.0000 0.0000
v 1.003849 -0.012452 -0.023758 0.9996 0.0000 0.0000
v 1.003849 0.053557 -0.023758 0.9996 0.0000 0.0000
v 1.668857 -0.481447 -0.148758 0.9996 0.0000 0.0000
v 1.701847 -0.438447 -0.148758 0.9996 0.0000 0.0000
v 1.703861 -0.498445 -0.160751 0.9996 0.0000 0.0000
v 1.736851 -0.430452 -0.148758 0.9996 0.0000 0.0000
v 1.655857 -0.534456 -0.148758 0.9996 0.0000 0.0000
v 1.751865 -0.462465 -0.148758 0.9996 0.0000 0.0000
v 1.671848 -0.566469 -0.148758 0.9996 0.0000 0.0000
v 1.739841 -0.515443 -0.148758 0.9996 0.0000 0.0000
v 1.705845 -0.558442 -0.148758 0.9996 0.0000 0.0000
v 0.758854 -0.402467 -0.143753 0.9996 0.0000 0.0000
v 0.766849 -0.362459 -0.143753 0.9996 0.0000 0.0000
v 0.787845 -0.402467 -0.152756 0.9996 0.0000 0.0000
v 0.787845 -0.346467 -0.143753 0.9996 0.0000 0.0000
v 0.766849 -0.442445 -0.143753 0.9996 0.0000 0.0000
v 0.808842 -0.362459 -0.143753 0.9996 0.0000 0.0000
v 0.787845 -0.458467 -0.143753 0.9996 0.0000 0.0000
v 0.816868 -0.402467 -0.143753 0.9996 0.0000 0.0000
v 0.807865 -0.442445 -0.143753 0.9996 0.0000 0.0000
v 1.105869 -0.847444 -0.143753 0.9996 0.0000 0.0000
v 1.119846 -0.817445 -0.143753 0.9996 0.0000 0.0000
v 1.128849 -0.853456 -0.151749 0.9996 0.0000 0.0000
v 1.139866 -0.808442 -0.143753 0.9996 0.0000 0.0000
v 1.103855 -0.881471 -0.143753 0.9996 0.0000 0.0000
v 1.152866 -0.826448 -0.143753 0.9996 0.0000 0.0000
v 1.116856 -0.898469 -0.143753 0.9996 0.0000 0.0000
v 1.151859 -0.859468 -0.143753 0.9996 0.0000 0.0000
v 1.136845 -0.889467 -0.143753 0.9996 0.0000 0.0000
v 0.003849 -0.497468 -0.141754 0.9996 0.0000 0.0000
v -0.007137 -0.464448 -0.141754 0.9996 0.0000 0.0000
v 0.025852 -0.485444 -0.149750 0.9996 0.0000 0.0000
v 0.001865 -0.443452 -0.141754 0.9996 0.0000 0.0000
v 0.026859 -0.524446 -0.141754 0.9996 0.0000 0.0000
v 0.023868 -0.446443 -0.141754 0.9996 0.0000 0.0000
v 0.048862 -0.527467 -0.141754 0.9996 0.0000 0.0000
v 0.046848 -0.473451 -0.141754 0.9996 0.0000 0.0000
v 0.057865 -0.506471 -0.141754 0.9996 0.0000 0.0000
v -0.278134 -0.359468 -0.141754 0.9996 0.0000 0.0000
v -0.261135 -0.327455 -0.141754 0.9996 0.0000 0.0000
v -0.253140 -0.366456 -0.149750 0.9996 0.0000 0.0000
v -0.239132 -0.318452 -0.141754 0.9996 0.0000 0.0000
v -0.280148 -0.394441 -0.141754 0.9996 0.0000 0.0000
v -0.226132 -0.337465 -0.141754 0.9996 0.0000 0.0000
v -0.267147 -0.413453 -0.141754 0.9996 0.0000 0.0000
v -0.228146 -0.373445 -0.141754 0.9996 0.0000 0.0000
v -0.245144 -0.404451 -0.141754 0.9996 0.0000 0.0000
v -0.865139 -0.348451 -0.140747 0.9996 0.0000 0.0000
v -0.849148 -0.319459 -0.140747 0.9996 0.0000 0.0000
v -0.842159 -0.355470 -0.148758 0.9996 0.0000 0.0000
v -0.829159 -0.310457 -0.140747 0.9996 0.0000 0.0000
v -0.868160 -0.381471 -0.140747 0.9996 0.0000 0.0000
v -0.817135 -0.328462 -0.140747 0.9996 0.0000 0.0000
v -0.856137 -0.399446 -0.140747 0.9996 0.0000 0.0000
v -0.819149 -0.362459 -0.140747 0.9996 0.0000 0.0000
v -0.835140 -0.391450 -0.140747 0.9996 0.0000 0.0000
v 1.427860 -0.604463 -0.142746 0.9996 0.0000 0.0000
v 1.430851 -0.571443 -0.142746 0.9996 0.0000 0.0000
v 1.451847 -0.601442 -0.149750 0.9996 0.0000 0.0000
v 1.445866 -0.556459 -0.142746 0.9996 0.0000 0.0000
v 1.438846 -0.634462 -0.142746 0.9996 0.0000 0.0000
v 1.463840 -0.567445 -0.142746 0.9996 0.0000 0.0000
v 1.456852 -0.645448 -0.142746 0.9996 0.0000 0.0000
v 1.474857 -0.598451 -0.142746 0.9996 0.0000 0.0000
v 1.471866 -0.630464 -0.142746 0.9996 0.0000 0.0000
v 0.500858 -0.491456 -0.139755 0.9996 0.0000 0.0000
v 0.496860 -0.458467 -0.139755 0.9996 0.0000 0.0000
v 0.523868 -0.483461 -0.147751 0.9996 0.0000 0.0000
v 0.507847 -0.439454 -0.139755 0.9996 0.0000 0.0000
v 0.518863 -0.520448 -0.139755 0.9996 0.0000 0.0000
v 0.528843 -0.446443 -0.139755 0.9996 0.0000 0.0000
v 0.539860 -0.527467 -0.139755 0.9996 0.0000 0.0000
v 0.546848 -0.475465 -0.139755 0.9996 0.0000 0.0000
v 0.551853 -0.508455 -0.139755 0.9996 0.0000 0.0000
v 0.789860 -0.848451 -0.140747 0.9996 0.0000 0.0000
v 0.792850 -0.818452 -0.140747 0.9996 0.0000 0.0000
v 0.811863 -0.845460 -0.147751 0.9996 0.0000 0.0000
v 0.806858 -0.804445 -0.140747 0.9996 0.0000 0.0000
v 0.799869 -0.877443 -0.140747 0.9996 0.0000 0.0000
v 0.823856 -0.814454 -0.140747 0.9996 0.0000 0.0000
v 0.816868 -0.887452 -0.140747 0.9996 0.0000 0.0000
v 0.833866 -0.843446 -0.140747 0.9996 0.0000 0.0000
v 0.830845 -0.873445 -0.140747 0.9996 0.0000 0.0000
v 0.244846 -0.392457 -0.136749 0.9996 0.0000 0.0000
v 0.259861 -0.367463 -0.136749 0.9996 0.0000 0.0000
v 0.263859 -0.398469 -0.142746 0.9996 0.0000 0.0000
v 0.276859 -0.361451 -0.136749 0.9996 0.0000 0.0000
v 0.241855 -0.420442 -0.136749 0.9996 0.0000 0.0000
v 0.286869 -0.377443 -0.136749 0.9996 0.0000 0.0000
v 0.251865 -0.435457 -0.136749 0.9996 0.0000 0.0000
v 0.283848 -0.405458 -0.136749 0.9996 0.0000 0.0000
v 0.268863 -0.429445 -0.136749 0.9996 0.0000 0.0000
v -1.090145 -0.412446 -0.136749 0.9996 0.0000 0.0000
v -1.092159 -0.387452 -0.136749 0.9996 0.0000 0.0000
v -1.073147 -0.406465 -0.142746 0.9996 0.0000 0.0000
v -1.083157 -0.373445 -0.136749 0.9996 0.0000 0.0000
v -1.078152 -0.434449 -0.136749 0.9996 0.0000 0.0000
v -1.068142 -0.379457 -0.136749 0.9996 0.0000 0.0000
v -1.063137 -0.440461 -0.136749 0.9996 0.0000 0.0000
v -1.056149 -0.401460 -0.136749 0.9996 0.0000 0.0000
v -1.053158 -0.426454 -0.136749 0.9996 0.0000 0.0000
v -0.546139 -0.403444 -0.135757 0.9996 0.0000 0.0000
v -0.543148 -0.379457 -0.135757 0.9996 0.0000 0.0000
v -0.530148 -0.402467 -0.140747 0.9996 0.0000 0.0000
v -0.532131 -0.369447 -0.135757 0.9996 0.0000 0.0000
v -0.540157 -0.425447 -0.135757 0.9996 0.0000 0.0000
v -0.519131 -0.378450 -0.135757 0.9996 0.0000 0.0000
v -0.527157 -0.434449 -0.135757 0.9996 0.0000 0.0000
v -0.513149 -0.400453 -0.135757 0.9996 0.0000 0.0000
v -0.516140 -0.424470 -0.135757 0.9996 0.0000 0.0000
v 1.886845 -0.708467 -0.135757 0.9996 0.0000 0.0000
v 1.884861 -0.684449 -0.135757 0.9996 0.0000 0.0000
v 1.903843 -0.704469 -0.140747 0.9996 0.0000 0.0000
v 1.894840 -0.671449 -0.135757 0.9996 0.0000 0.0000
v 1.897861 -0.731447 -0.135757 0.9996 0.0000 0.0000
v 1.909855 -0.677461 -0.135757 0.9996 0.0000 0.0000
v 1.912845 -0.737459 -0.135757 0.9996 0.0000 0.0000
v 1.920841 -0.699464 -0.135757 0.9996 0.0000 0.0000
v 1.921848 -0.724458 -0.135757 0.9996 0.0000 0.0000
v -1.301144 -0.360444 -0.134750 0.9996 0.0000 0.0000
v -1.294155 -0.339448 -0.134750 0.9996 0.0000 0.0000
v -1.285153 -0.362459 -0.139755 0.9996 0.0000 0.0000
v -1.282131 -0.331453 -0.134750 0.9996 0.0000 0.0000
v -1.299160 -0.383455 -0.134750 0.9996 0.0000 0.0000
v -1.271145 -0.341462 -0.134750 0.9996 0.0000 0.0000
v -1.288143 -0.393464 -0.134750 0.9996 0.0000 0.0000
v -1.269131 -0.364442 -0.134750 0.9996 0.0000 0.0000
v -1.276150 -0.385469 -0.134750 0.9996 0.0000 0.0000
v 1.235844 -0.391450 -0.132751 0.9996 0.0000 0.0000
v 1.242863 -0.365449 -0.132751 0.9996 0.0000 0.0000
v 1.254856 -0.392457 -0.138748 0.9996 0.0000 0.0000
v 1.256840 -0.355470 -0.132751 0.9996 0.0000 0.0000
v 1.239841 -0.417451 -0.132751 0.9996 0.0000 0.0000
v 1.269840 -0.366456 -0.132751 0.9996 0.0000 0.0000
v 1.252842 -0.428468 -0.132751 0.9996 0.0000 0.0000
v 1.273868 -0.392457 -0.132751 0.9996 0.0000 0.0000
v 1.266849 -0.418458 -0.132751 0.9996 0.0000 0.0000
v 0.704868 -0.710450 -0.131760 0.9996 0.0000 0.0000
v 0.710850 -0.692445 -0.131760 0.9996 0.0000 0.0000
v 0.717869 -0.711458 -0.135757 0.9996 0.0000 0.0000
v 0.720859 -0.686464 -0.131760 0.9996 0.0000 0.0000
v 0.706852 -0.728456 -0.131760 0.9996 0.0000 0.0000
v 0.729862 -0.694459 -0.131760 0.9996 0.0000 0.0000
v 0.714847 -0.737459 -0.131760 0.9996 0.0000 0.0000
v 0.730869 -0.713441 -0.131760 0.9996 0.0000 0.0000
v 0.724857 -0.730470 -0.131760 0.9996 0.0000 0.0000
v 1.327854 -0.725465 0.125244 0.9996 0.0000 0.0000
v 1.338840 -0.698457 0.125244 0.9996 0.0000 0.0000
v 1.343845 -0.715455 0.125244 0.9996 0.0000 0.0000
v 1.339847 -0.727449 0.125244 0.9996 0.0000 0.0000
v 1.315861 -0.711458 0.125244 0.9996 0.0000 0.0000
v 1.325840 -0.684449 0.125244 0.9996 0.0000 0.0000
v 1.309849 -0.693452 0.125244 0.9996 0.0000 0.0000
v 1.313846 -0.682466 0.125244 0.9996 0.0000 0.0000
v -1.268154 -0.398469 0.128250 0.9996 0.0000 0.0000
v -1.278134 -0.408449 0.128250 0.9996 0.0000 0.0000
v -1.291134 -0.400453 0.128250 0.9996 0.0000 0.0000
v -1.265133 -0.375459 0.128250 0.9996 0.0000 0.0000
v -1.298153 -0.378450 0.128250 0.9996 0.0000 0.0000
v -1.272152 -0.353456 0.128250 0.9996 0.0000 0.0000
v -1.295132 -0.356447 0.128250 0.9996 0.0000 0.0000
v -1.285153 -0.345460 0.128250 0.9996 0.0000 0.0000
v -0.622158 -0.370454 0.129242 0.9996 0.0000 0.0000
v -0.634152 -0.359468 0.129242 0.9996 0.0000 0.0000
v -0.610134 -0.361451 0.129242 0.9996 0.0000 0.0000
v -0.603146 -0.338441 0.129242 0.9996 0.0000 0.0000
v -0.637142 -0.336458 0.129242 0.9996 0.0000 0.0000
v -0.606137 -0.315461 0.129242 0.9996 0.0000 0.0000
v -0.630154 -0.313447 0.129242 0.9996 0.0000 0.0000
v -0.618160 -0.305452 0.129242 0.9996 0.0000 0.0000
v -1.094143 -0.378450 0.130249 0.9996 0.0000 0.0000
v -1.103146 -0.365449 0.130249 0.9996 0.0000 0.0000
v -1.078152 -0.372468 0.130249 0.9996 0.0000 0.0000
v -1.066158 -0.351442 0.130249 0.9996 0.0000 0.0000
v -1.101132 -0.340455 0.130249 0.9996 0.0000 0.0000
v -1.064144 -0.326448 0.130249 0.9996 0.0000 0.0000
v -1.088131 -0.318452 0.130249 0.9996 0.0000 0.0000
v -1.073147 -0.312471 0.130249 0.9996 0.0000 0.0000
v 0.595859 -0.581453 0.131241 0.9996 0.0000 0.0000
v 0.583866 -0.568452 0.131241 0.9996 0.0000 0.0000
v 0.610843 -0.573457 0.131241 0.9996 0.0000 0.0000
v 0.620853 -0.548463 0.131241 0.9996 0.0000 0.0000
v 0.583866 -0.541444 0.131241 0.9996 0.0000 0.0000
v 0.619846 -0.522462 0.131241 0.9996 0.0000 0.0000
v 0.593845 -0.517457 0.131241 0.9996 0.0000 0.0000
v 0.608860 -0.509462 0.131241 0.9996 0.0000 0.0000
v 0.386844 -0.424470 0.133240 0.9996 0.0000 0.0000
v 0.371860 -0.409456 0.133240 0.9996 0.0000 0.0000
v 0.404850 -0.413453 0.133240 0.9996 0.0000 0.0000
v 0.415867 -0.382448 0.133240 0.9996 0.0000 0.0000
v 0.368870 -0.376466 0.133240 0.9996 0.0000 0.0000
v 0.412845 -0.350465 0.133240 0.9996 0.0000 0.0000
v 0.379856 -0.346467 0.133240 0.9996 0.0000 0.0000
v 0.397861 -0.335450 0.133240 0.9996 0.0000 0.0000
v 0.198856 -0.524446 0.133240 0.9996 0.0000 0.0000
v 0.188846 -0.540468 0.133240 0.9996 0.0000 0.0000
v 0.171848 -0.533449 0.133240 0.9996 0.0000 0.0000
v 0.195865 -0.496461 0.133240 0.9996 0.0000 0.0000
v 0.156864 -0.509462 0.133240 0.9996 0.0000 0.0000
v 0.180851 -0.472444 0.133240 0.9996 0.0000 0.0000
v 0.153843 -0.481447 0.133240 0.9996 0.0000 0.0000
v 0.163853 -0.465455 0.133240 0.9996 0.0000 0.0000
v 1.892856 -0.778444 0.134247 0.9996 0.0000 0.0000
v 1.881840 -0.762452 0.134247 0.9996 0.0000 0.0000
v 1.910862 -0.770448 0.134247 0.9996 0.0000 0.0000
v 1.924869 -0.743470 0.134247 0.9996 0.0000 0.0000
v 1.882847 -0.732454 0.134247 0.9996 0.0000 0.0000
v 1.925846 -0.713441 0.134247 0.9996 0.0000 0.0000
v 1.896854 -0.706453 0.134247 0.9996 0.0000 0.0000
v 1.913853 -0.698457 0.134247 0.9996 0.0000 0.0000
v 1.132847 -0.885469 0.134247 0.9996 0.0000 0.0000
v 1.118870 -0.871461 0.134247 0.9996 0.0000 0.0000
v 1.148868 -0.875459 0.134247 0.9996 0.0000 0.0000
v 1.158848 -0.846467 0.134247 0.9996 0.0000 0.0000
v 1.115848 -0.841462 0.134247 0.9996 0.0000 0.0000
v 1.155857 -0.816469 0.134247 0.9996 0.0000 0.0000
v 1.125858 -0.812471 0.134247 0.9996 0.0000 0.0000
v 1.142856 -0.802461 0.134247 0.9996 0.0000 0.0000
v -0.836147 -0.410463 0.134247 0.9996 0.0000 0.0000
v -0.849148 -0.428468 0.134247 0.9996 0.0000 0.0000
v -0.869137 -0.420442 0.134247 0.9996 0.0000 0.0000
v -0.839138 -0.377443 0.134247 0.9996 0.0000 0.0000
v -0.885159 -0.391450 0.134247 0.9996 0.0000 0.0000
v -0.855160 -0.348451 0.134247 0.9996 0.0000 0.0000
v -0.887142 -0.357454 0.134247 0.9996 0.0000 0.0000
v -0.875149 -0.339448 0.134247 0.9996 0.0000 0.0000
v 0.838840 -0.844453 0.135254 0.9996 0.0000 0.0000
v 0.787845 -0.861451 0.135254 0.9996 0.0000 0.0000
v 0.792850 -0.827455 0.135254 0.9996 0.0000 0.0000
v 0.820865 -0.872468 0.135254 0.9996 0.0000 0.0000
v 0.799869 -0.879457 0.135254 0.9996 0.0000 0.0000
v 0.842869 -0.810457 0.135254 0.9996 0.0000 0.0000
v 0.810856 -0.798463 0.135254 0.9996 0.0000 0.0000
v 0.831852 -0.791444 0.135254 0.9996 0.0000 0.0000
v -0.372158 -0.402467 0.136246 0.9996 0.0000 0.0000
v -0.385159 -0.421449 0.136246 0.9996 0.0000 0.0000
v -0.407131 -0.412446 0.136246 0.9996 0.0000 0.0000
v -0.374142 -0.366456 0.136246 0.9996 0.0000 0.0000
v -0.423153 -0.380464 0.136246 0.9996 0.0000 0.0000
v -0.391140 -0.335450 0.136246 0.9996 0.0000 0.0000
v -0.426144 -0.345460 0.136246 0.9996 0.0000 0.0000
v -0.412136 -0.326448 0.136246 0.9996 0.0000 0.0000
v -0.070156 -0.429445 0.136246 0.9996 0.0000 0.0000
v -0.122158 -0.447450 0.136246 0.9996 0.0000 0.0000
v -0.117153 -0.413453 0.136246 0.9996 0.0000 0.0000
v -0.088131 -0.459443 0.136246 0.9996 0.0000 0.0000
v -0.110134 -0.467470 0.136246 0.9996 0.0000 0.0000
v -0.065151 -0.395448 0.136246 0.9996 0.0000 0.0000
v -0.099148 -0.383455 0.136246 0.9996 0.0000 0.0000
v -0.077145 -0.375459 0.136246 0.9996 0.0000 0.0000
v 1.384861 -0.483461 0.139252 0.9996 0.0000 0.0000
v 1.369846 -0.465455 0.139252 0.9996 0.0000 0.0000
v 1.406864 -0.473451 0.139252 0.9996 0.0000 0.0000
v 1.421848 -0.439454 0.139252 0.9996 0.0000 0.0000
v 1.369846 -0.428468 0.139252 0.9996 0.0000 0.0000
v 1.421848 -0.402467 0.139252 0.9996 0.0000 0.0000
v 1.384861 -0.394441 0.139252 0.9996 0.0000 0.0000
v 1.406864 -0.383455 0.139252 0.9996 0.0000 0.0000
v 0.781864 -0.453462 0.140244 0.9996 0.0000 0.0000
v 0.766849 -0.475465 0.140244 0.9996 0.0000 0.0000
v 0.742863 -0.465455 0.140244 0.9996 0.0000 0.0000
v 0.777866 -0.413453 0.140244 0.9996 0.0000 0.0000
v 0.722843 -0.430452 0.140244 0.9996 0.0000 0.0000
v 0.757847 -0.377443 0.140244 0.9996 0.0000 0.0000
v 0.718845 -0.390443 0.140244 0.9996 0.0000 0.0000
v 0.733860 -0.368470 0.140244 0.9996 0.0000 0.0000
v 1.744846 -0.606447 0.151245 0.9996 0.0000 0.0000
v 1.708866 -0.560457 0.151245 0.9996 0.0000 0.0000
v 1.784855 -0.523469 0.151245 0.9996 0.0000 0.0000
v 1.798862 -0.581453 0.151245 0.9996 0.0000 0.0000
v 1.781864 -0.615449 0.151245 0.9996 0.0000 0.0000
v 1.748844 -0.477449 0.151245 0.9996 0.0000 0.0000
v 1.694858 -0.503450 0.151245 0.9996 0.0000 0.0000
v 1.711857 -0.468446 0.151245 0.9996 0.0000 0.0000
vn 1.0000 -0.0000 0.0001
vn 1.0000 -0.0000 -0.0000
vn 1.0000 -0.0000 -0.0001
vn 1.0000 -0.0000 -0.0002
vn -0.0000 -0.0000 1.0000
vn 0.0005 -0.0000 1.0000
vn -0.0006 -0.0000 1.0000
vn -0.0007 -0.0000 1.0000
vn 0.0007 -0.0000 1.0000
vn 0.0008 -0.0000 1.0000
vn -0.0008 -0.0000 1.0000
vn 0.0012 -0.0000 1.0000
vn -0.0005 -0.0000 1.0000
vn 0.0009 -0.0000 1.0000
vn 0.0006 -0.0000 1.0000
vn -1.0000 -0.0000 0.0001
vn -1.0000 -0.0000 -0.0000
vn -1.0000 -0.0000 0.0002
vn -1.0000 -0.0000 -0.0001
vn -1.0000 -0.0000 -0.0002
vn -0.0000 -0.0000 -1.0000
vn 0.0008 -0.0000 -1.0000
vn 0.0005 -0.0000 -1.0000
vn -0.0005 -0.0000 -1.0000
vn -0.0008 -0.0000 -1.0000
vn -0.0007 -0.0000 -1.0000
vn 0.0011 -0.0000 -1.0000
vn -0.0006 -0.0000 -1.0000
vn -0.0014 -0.0000 -1.0000
vn 1.0000 0.0005 -0.0000
vn 1.0000 0.0012 -0.0000
vn 1.0000 -0.0005 -0.0000
vn 1.0000 -0.0012 -0.0000
vn -0.4173 0.6686 0.6155
vn -0.3772 0.4173 0.8268
vn -0.4075 0.5583 0.7226
vn -0.4177 0.6679 0.6160
vn -0.3780 0.4173 -0.8264
vn -0.4171 0.6696 -0.6146
vn -0.4090 0.5577 -0.7223
vn -0.4167 0.6696 -0.6148
vn 0.4166 0.6695 0.6149
vn 0.3784 0.4178 0.8260
vn 0.4156 0.6693 0.6159
vn 0.4098 0.5585 0.7212
vn 0.4099 0.5584 -0.7212
vn 0.4170 0.6694 -0.6148
vn 0.3786 0.4177 -0.8259
vn 0.4162 0.6691 -0.6157
vn -0.4101 -0.5568 0.7223
vn -0.3406 -0.0002 0.9402
vn -0.3794 -0.4170 0.8260
vn -0.3401 -0.0003 0.9404
vn -0.3791 0.4172 0.8260
vn -0.4099 0.5573 0.7221
vn 0.3387 0.0006 0.9409
vn 0.3784 0.4170 0.8264
vn 0.4094 0.5569 0.7226
vn 0.3381 0.0007 0.9411
vn 0.3782 -0.4165 0.8268
vn 0.4093 -0.5566 0.7229
vn -0.0313 0.1580 0.9869
vn -0.2045 0.0631 0.9768
vn -0.0001 -0.0000 1.0000
vn -0.2603 -0.1497 0.9539
vn 0.0790 0.1972 0.9772
vn -0.0786 -0.1970 0.9773
vn 0.2599 0.1497 0.9540
vn 0.0318 -0.1580 0.9869
vn 0.2046 -0.0632 0.9768
vn -0.0240 0.1579 0.9872
vn -0.1893 0.0948 0.9773
vn -0.2765 -0.1026 0.9555
vn 0.1024 0.1811 0.9781
vn -0.1025 -0.1815 0.9780
vn 0.2764 0.1028 0.9555
vn 0.0237 -0.1580 0.9872
vn 0.1889 -0.0946 0.9774
vn 0.0154 0.1579 0.9873
vn -0.1181 0.1737 0.9777
vn -0.2912 0.0787 0.9534
vn 0.1807 0.1099 0.9774
vn -0.1813 -0.1103 0.9772
vn 0.2916 -0.0708 0.9539
vn -0.0159 -0.1581 0.9873
vn 0.1182 -0.1736 0.9777
vn -0.0163 0.1580 0.9873
vn -0.1893 0.0944 0.9774
vn -0.0000 0.0001 1.0000
vn -0.2836 -0.0945 0.9543
vn 0.1022 0.1815 0.9781
vn -0.1022 -0.1816 0.9781
vn 0.2838 0.0947 0.9542
vn 0.0159 -0.1581 0.9873
vn 0.1890 -0.0944 0.9774
vn 0.0233 0.1577 0.9872
vn -0.0954 0.1890 0.9773
vn -0.2761 0.1187 0.9538
vn 0.1973 0.0864 0.9765
vn -0.1968 -0.0870 0.9766
vn 0.2761 -0.1183 0.9538
vn -0.0233 -0.1582 0.9871
vn 0.0948 -0.1888 0.9774
vn 0.0160 0.1583 0.9873
vn -0.1098 0.1817 0.9772
vn 0.0001 0.0001 1.0000
vn -0.2833 0.0870 0.9551
vn 0.1810 0.1025 0.9781
vn -0.1807 -0.1029 0.9781
vn 0.2836 -0.0869 0.9550
vn -0.0157 -0.1585 0.9872
vn 0.1101 -0.1815 0.9772
vn 0.0082 0.1582 0.9874
vn -0.1336 0.1658 0.9771
vn -0.2918 0.0393 0.9557
vn 0.1652 0.1262 0.9781
vn -0.1642 -0.1264 0.9783
vn 0.2916 -0.0393 0.9557
vn -0.0075 -0.1582 0.9874
vn 0.1333 -0.1656 0.9771
vn -0.0160 0.1576 0.9874
vn -0.1891 0.0941 0.9774
vn 0.0002 0.0001 1.0000
vn -0.2837 -0.1020 0.9535
vn 0.1024 0.1813 0.9781
vn -0.1027 -0.1814 0.9780
vn 0.2845 0.1024 0.9532
vn 0.0156 -0.1581 0.9873
vn 0.1892 -0.0945 0.9774
vn 0.0232 0.1577 0.9872
vn -0.0950 0.1890 0.9774
vn -0.0003 0.0001 1.0000
vn -0.2760 0.1184 0.9538
vn 0.1964 0.0787 0.9774
vn -0.1969 -0.0788 0.9773
vn 0.2757 -0.1182 0.9539
vn -0.0241 -0.1578 0.9872
vn 0.0939 -0.1889 0.9775
vn 0.0081 0.1577 0.9875
vn -0.1337 0.1647 0.9772
vn -0.0002 0.0001 1.0000
vn -0.2914 0.0478 0.9554
vn 0.1655 0.1267 0.9780
vn -0.1655 -0.1260 0.9781
vn 0.2909 -0.0475 0.9556
vn -0.0080 -0.1582 0.9874
vn 0.1335 -0.1659 0.9771
vn -0.0231 0.1576 0.9872
vn -0.1886 0.0863 0.9783
vn -0.0003 -0.0001 1.0000
vn -0.2766 -0.1105 0.9546
vn 0.0942 0.1890 0.9774
vn -0.0951 -0.1894 0.9773
vn 0.2755 0.1104 0.9549
vn 0.0234 -0.1578 0.9872
vn 0.1892 -0.0861 0.9782
vn 0.0166 0.1579 0.9873
vn -0.1174 0.1730 0.9779
vn -0.2923 0.0634 0.9542
vn 0.1737 0.1109 0.9785
vn -0.1736 -0.1184 0.9777
vn 0.2916 -0.0632 0.9544
vn -0.0153 -0.1580 0.9873
vn 0.1188 -0.1735 0.9776
vn 0.0238 0.1572 0.9873
vn -0.1028 0.1812 0.9781
vn -0.0001 0.0002 1.0000
vn -0.2770 0.1030 0.9553
vn 0.1896 0.0945 0.9773
vn -0.1906 -0.0951 0.9771
vn 0.2772 -0.1022 0.9554
vn -0.0246 -0.1581 0.9871
vn 0.1029 -0.1813 0.9780
vn 0.0073 0.1576 0.9875
vn -0.1417 0.1581 0.9772
vn -0.0002 -0.0000 1.0000
vn -0.3000 0.0235 0.9536
vn 0.1572 0.1335 0.9785
vn -0.1591 -0.1341 0.9781
vn 0.2998 -0.0314 0.9535
vn -0.0083 -0.1576 0.9875
vn 0.1422 -0.1573 0.9773
vn -0.0076 0.1579 0.9874
vn -0.1651 0.1267 0.9781
vn -0.2926 -0.0396 0.9554
vn 0.1341 0.1574 0.9784
vn -0.1353 -0.1572 0.9783
vn 0.2937 0.0396 0.9551
vn 0.0077 -0.1579 0.9874
vn 0.1674 -0.1265 0.9777
vn 0.0398 -0.1581 0.9866
vn 0.2052 -0.0468 0.9776
vn -0.0000 -0.0001 1.0000
vn 0.2446 0.1654 0.9554
vn -0.0623 -0.1978 0.9783
vn 0.0622 0.2045 0.9769
vn -0.2447 -0.1655 0.9554
vn -0.0394 0.1579 0.9867
vn -0.2047 0.0473 0.9777
vn -0.0010 -0.0000 1.0000
vn -0.0003 -0.0000 1.0000
vn 0.0010 -0.0000 1.0000
vn -0.0009 -0.0000 1.0000
vn 0.0003 -0.0000 1.0000
vn -0.3776 -0.4170 0.8268
vn -0.4181 -0.6695 0.6140
vn -0.4077 -0.5574 0.7233
vn -0.4187 -0.6695 0.6135
vn -0.4077 -0.5572 -0.7234
vn -0.4181 -0.6703 -0.6130
vn -0.3776 -0.4173 -0.8266
vn -0.4187 -0.6709 -0.6120
vn 0.4171 -0.6704 0.6137
vn 0.3780 -0.4170 0.8266
vn 0.4089 -0.5568 0.7230
vn 0.4168 -0.6711 0.6131
vn 0.3781 -0.4173 -0.8264
vn 0.4172 -0.6705 -0.6136
vn 0.4090 -0.5572 -0.7227
vn 0.4168 -0.6711 -0.6131
vn -0.4078 0.5577 -0.7229
vn -0.3402 -0.0000 -0.9404
vn -0.3774 0.4173 -0.8267
vn -0.3408 -0.0001 -0.9401
vn -0.3766 -0.4170 -0.8272
vn -0.4069 -0.5576 -0.7236
vn 0.3393 0.0002 -0.9407
vn 0.3770 -0.4159 -0.8275
vn 0.3394 -0.0000 -0.9407
vn 0.3783 0.4153 -0.8273
vn 0.4075 -0.5562 -0.7243
vn 0.4095 0.5550 -0.7241
vn -0.2602 0.1497 -0.9539
vn -0.0792 0.1969 -0.9772
vn -0.0000 -0.0001 -1.0000
vn 0.0314 0.1580 -0.9869
vn -0.2047 -0.0632 -0.9768
vn 0.2046 0.0634 -0.9768
vn -0.0314 -0.1577 -0.9870
vn 0.2603 -0.1500 -0.9538
vn 0.0793 -0.1970 -0.9772
vn -0.2992 -0.0000 -0.9542
vn -0.1493 0.1422 -0.9785
vn 0.0004 0.1581 -0.9874
vn -0.1500 -0.1422 -0.9784
vn 0.1498 0.1420 -0.9785
vn -0.0004 -0.1582 -0.9874
vn 0.2992 0.0001 -0.9542
vn 0.1493 -0.1498 -0.9774
vn -0.2840 0.0868 -0.9549
vn -0.1097 0.1812 -0.9773
vn -0.0001 -0.0000 -1.0000
vn 0.0157 0.1584 -0.9873
vn -0.1818 -0.1025 -0.9780
vn 0.1810 0.1027 -0.9781
vn -0.0163 -0.1582 -0.9873
vn 0.2839 -0.0870 -0.9549
vn 0.1097 -0.1812 -0.9773
vn -0.2449 -0.1661 -0.9552
vn -0.2053 0.0475 -0.9775
vn -0.0396 0.1578 -0.9867
vn -0.0712 -0.1973 -0.9778
vn 0.0711 0.1972 -0.9778
vn 0.0398 -0.1580 -0.9866
vn 0.2448 0.1661 -0.9552
vn 0.2057 -0.0476 -0.9775
vn -0.2836 0.0945 -0.9543
vn -0.1019 0.1811 -0.9782
vn 0.0001 -0.0000 -1.0000
vn 0.0157 0.1581 -0.9873
vn -0.1895 -0.0947 -0.9773
vn 0.1889 0.0948 -0.9774
vn -0.0162 -0.1580 -0.9873
vn 0.2841 -0.0948 -0.9541
vn 0.1021 -0.1811 -0.9781
vn -0.2841 0.1026 -0.9533
vn -0.1024 0.1813 -0.9781
vn 0.0002 -0.0000 -1.0000
vn 0.0160 0.1577 -0.9874
vn -0.1894 -0.0946 -0.9773
vn 0.1894 0.0944 -0.9773
vn -0.0158 -0.1580 -0.9873
vn 0.2844 -0.1025 -0.9532
vn 0.1027 -0.1813 -0.9780
vn -0.2924 -0.0473 -0.9551
vn -0.1655 0.1261 -0.9781
vn 0.0003 -0.0000 -1.0000
vn -0.0076 0.1580 -0.9874
vn -0.1342 -0.1657 -0.9770
vn 0.1351 0.1657 -0.9769
vn 0.0088 -0.1581 -0.9874
vn 0.2928 0.0473 -0.9550
vn 0.1666 -0.1263 -0.9779
vn -0.2763 -0.1180 -0.9538
vn -0.1968 0.0792 -0.9772
vn -0.0002 -0.0001 -1.0000
vn -0.0238 0.1580 -0.9872
vn -0.0947 -0.1891 -0.9774
vn 0.0941 0.1888 -0.9775
vn 0.0236 -0.1580 -0.9872
vn 0.2757 0.1179 -0.9540
vn 0.1968 -0.0790 -0.9773
vn -0.2909 -0.0392 -0.9559
vn -0.1651 0.1263 -0.9782
vn 0.0003 0.0001 -1.0000
vn -0.0074 0.1581 -0.9874
vn -0.1332 -0.1659 -0.9771
vn 0.1342 0.1657 -0.9770
vn 0.0080 -0.1583 -0.9874
vn 0.2915 0.0394 -0.9558
vn 0.1652 -0.1263 -0.9781
vn -0.2762 0.1098 -0.9548
vn -0.0956 0.1896 -0.9772
vn 0.0235 0.1583 -0.9871
vn -0.1899 -0.0872 -0.9779
vn 0.1899 0.0870 -0.9779
vn -0.0235 -0.1579 -0.9872
vn 0.2761 -0.1104 -0.9548
vn 0.0956 -0.1893 -0.9773
vn -0.2763 -0.1026 -0.9556
vn -0.1909 0.0949 -0.9770
vn -0.0244 0.1580 -0.9871
vn -0.1035 -0.1817 -0.9779
vn 0.1031 0.1816 -0.9780
vn 0.0227 -0.1578 -0.9872
vn 0.2771 0.1023 -0.9554
vn 0.1894 -0.0945 -0.9773
vn -0.3012 -0.0315 -0.9530
vn -0.1573 0.1345 -0.9783
vn -0.0002 0.0001 -1.0000
vn -0.0075 0.1577 -0.9875
vn -0.1415 -0.1577 -0.9773
vn 0.1417 0.1571 -0.9774
vn 0.0073 -0.1581 -0.9874
vn 0.3008 0.0241 -0.9534
vn 0.1567 -0.1341 -0.9785
vn -0.2851 -0.0868 -0.9546
vn -0.1818 0.1030 -0.9779
vn -0.0001 -0.0001 -1.0000
vn -0.0159 0.1580 -0.9873
vn -0.1113 -0.1814 -0.9771
vn 0.1103 0.1809 -0.9773
vn 0.0164 -0.1581 -0.9873
vn 0.2846 0.0868 -0.9547
vn 0.1833 -0.1027 -0.9777
vn -0.2926 0.0395 -0.9554
vn -0.1361 0.1584 -0.9780
vn -0.0002 -0.0000 -1.0000
vn 0.0073 0.1583 -0.9874
vn -0.1666 -0.1262 -0.9779
vn 0.1667 0.1257 -0.9780
vn -0.0073 -0.1583 -0.9874
vn 0.2924 -0.0396 -0.9555
vn 0.1359 -0.1578 -0.9781
vn -0.3006 0.0153 -0.9536
vn -0.1419 0.1500 -0.9785
vn 0.0003 0.1581 -0.9874
vn -0.1585 -0.1415 -0.9772
vn 0.1579 0.1417 -0.9772
vn 0.0005 -0.1584 -0.9874
vn 0.3003 -0.0152 -0.9537
vn 0.1435 -0.1504 -0.9781
vn -0.2919 0.0396 -0.9556
vn -0.1356 0.1652 -0.9769
vn 0.0080 0.1583 -0.9874
vn -0.1660 -0.1270 -0.9779
vn 0.1665 0.1267 -0.9779
vn -0.0068 -0.1584 -0.9873
vn 0.2912 -0.0396 -0.9558
vn 0.1362 -0.1650 -0.9768
vn -0.0003 -0.0000 -1.0000
vn -0.0011 -0.0000 -1.0000
vn 0.0006 -0.0000 -1.0000
vn 0.0009 -0.0000 -1.0000
vn -0.0009 -0.0000 -1.0000
vn 0.0010 -0.0000 -1.0000
vt 0.112803 0.489608
vt 0.000794 0.489616
vt 0.041152 0.486111
vt 0.140613 0.492751
vt 0.000000 0.492760
vt 0.028604 0.495831
vt 0.140613 0.495824
vt 0.100604 0.499399
vt 0.183031 0.479993
vt 0.322803 0.481684
vt 0.240763 0.482908
vt 0.379371 0.477042
vt 0.182890 0.474615
vt 0.379371 0.471731
vt 0.240617 0.469953
vt 0.321498 0.468750
vt 0.519635 0.470379
vt 0.379371 0.473517
vt 0.420588 0.470105
vt 0.478691 0.468750
vt 0.519635 0.473918
vt 0.379371 0.477056
vt 0.478418 0.477329
vt 0.420314 0.478685
vt 0.306381 0.500291
vt 0.219370 0.502903
vt 0.306381 0.496917
vt 0.271127 0.502794
vt 0.183021 0.500612
vt 0.270032 0.494625
vt 0.182890 0.497169
vt 0.219425 0.494718
vt 0.499051 0.493119
vt 0.376358 0.495985
vt 0.411769 0.492940
vt 0.462757 0.491763
vt 0.500306 0.496154
vt 0.376358 0.499108
vt 0.464892 0.499202
vt 0.412616 0.500464
vt 0.653010 0.487926
vt 0.569025 0.490963
vt 0.652975 0.484800
vt 0.618517 0.490476
vt 0.534059 0.489140
vt 0.617982 0.482908
vt 0.534059 0.486011
vt 0.568526 0.483394
vt 0.617084 0.503593
vt 0.500306 0.506299
vt 0.534546 0.503409
vt 0.583223 0.502270
vt 0.617084 0.506510
vt 0.500342 0.509215
vt 0.582928 0.509330
vt 0.535500 0.510450
vt 0.114688 0.510129
vt 0.033118 0.513108
vt 0.114688 0.507088
vt 0.080415 0.512589
vt 0.000000 0.511337
vt 0.081569 0.505317
vt 0.000000 0.508296
vt 0.034309 0.505766
vt 0.758780 0.491763
vt 0.688227 0.494016
vt 0.717668 0.491917
vt 0.688227 0.496714
vt 0.787809 0.493506
vt 0.717409 0.498524
vt 0.787809 0.496204
vt 0.759561 0.498285
vt 0.717689 0.515219
vt 0.646318 0.516974
vt 0.717689 0.512428
vt 0.688164 0.517095
vt 0.617084 0.514884
vt 0.688498 0.510340
vt 0.617126 0.512094
vt 0.646644 0.510216
vt 0.759364 0.488269
vt 0.683332 0.490166
vt 0.760463 0.485256
vt 0.727611 0.490321
vt 0.653010 0.487957
vt 0.729042 0.483063
vt 0.653010 0.484960
vt 0.684763 0.482908
vt 0.598233 0.511584
vt 0.500306 0.513694
vt 0.528642 0.511273
vt 0.569218 0.510450
vt 0.598233 0.514124
vt 0.500338 0.516164
vt 0.569929 0.516475
vt 0.529321 0.517368
vt 0.271385 0.519744
vt 0.209315 0.521543
vt 0.271385 0.517356
vt 0.245936 0.521531
vt 0.184204 0.519849
vt 0.245137 0.515680
vt 0.182890 0.517407
vt 0.208551 0.515692
vt 0.330721 0.515680
vt 0.271385 0.517730
vt 0.296710 0.515931
vt 0.272521 0.519961
vt 0.355775 0.517044
vt 0.296510 0.521412
vt 0.355775 0.519292
vt 0.331693 0.521143
vt 0.077526 0.522097
vt 0.022538 0.523303
vt 0.077526 0.519948
vt 0.054237 0.523520
vt -0.000000 0.521674
vt 0.054988 0.518319
vt 0.000000 0.519525
vt 0.023289 0.518102
vt 0.131925 0.518649
vt 0.077526 0.521232
vt 0.078020 0.519199
vt 0.100741 0.518102
vt 0.153448 0.520456
vt 0.099017 0.523040
vt 0.153448 0.522557
vt 0.131242 0.523567
vt 0.966032 0.516630
vt 0.922534 0.515886
vt 0.947804 0.515625
vt 0.905122 0.517249
vt 0.966032 0.518293
vt 0.905320 0.518981
vt 0.948817 0.519725
vt 0.923553 0.519989
vt 0.036562 0.473388
vt 0.182860 0.473398
vt 0.182890 0.477472
vt 0.130556 0.468750
vt 0.000000 0.477459
vt 0.000000 0.481532
vt 0.146298 0.481542
vt 0.052616 0.486111
vt 0.376358 0.486978
vt 0.376358 0.491623
vt 0.319898 0.494625
vt 0.319504 0.483407
vt 0.238645 0.494196
vt 0.239351 0.482908
vt 0.182890 0.490553
vt 0.182925 0.485908
vt 0.376358 0.484200
vt 0.487419 0.491763
vt 0.422059 0.490484
vt 0.376358 0.487343
vt 0.423013 0.482908
vt 0.534040 0.490471
vt 0.488339 0.484187
vt 0.534059 0.487326
vt 0.183243 0.509969
vt 0.269248 0.515680
vt 0.218791 0.514969
vt 0.182890 0.512614
vt 0.218670 0.508609
vt 0.304700 0.514319
vt 0.268799 0.509249
vt 0.304700 0.511604
vt 0.375455 0.503463
vt 0.412368 0.508180
vt 0.375537 0.506394
vt 0.464396 0.507682
vt 0.411444 0.500965
vt 0.500306 0.505253
vt 0.463474 0.500464
vt 0.500306 0.502251
vt 0.556865 0.468962
vt 0.558484 0.476252
vt 0.520586 0.474320
vt 0.519635 0.471248
vt 0.609964 0.468750
vt 0.611712 0.475968
vt 0.647826 0.470681
vt 0.647826 0.473682
vt 0.410378 0.508534
vt 0.410349 0.515322
vt 0.375455 0.513534
vt 0.375455 0.510748
vt 0.460551 0.508180
vt 0.460523 0.514969
vt 0.495445 0.509968
vt 0.496597 0.512755
vt 0.681840 0.475965
vt 0.684123 0.482825
vt 0.647826 0.480966
vt 0.647826 0.478107
vt 0.731424 0.475753
vt 0.733707 0.482613
vt 0.766570 0.477612
vt 0.767865 0.480398
vt 0.519635 0.477541
vt 0.599175 0.482893
vt 0.552520 0.482256
vt 0.519635 0.480042
vt 0.553167 0.476252
vt 0.632717 0.481606
vt 0.600195 0.476963
vt 0.633045 0.479177
vt 0.648975 0.470751
vt 0.733696 0.475752
vt 0.683388 0.475753
vt 0.647826 0.473682
vt 0.684389 0.468751
vt 0.769108 0.473749
vt 0.734662 0.468750
vt 0.769108 0.470821
vt 0.746372 0.510359
vt 0.748518 0.516146
vt 0.717689 0.514502
vt 0.717689 0.512072
vt 0.788893 0.510216
vt 0.789787 0.516075
vt 0.818571 0.511861
vt 0.819722 0.514290
vt 0.617268 0.518524
vt 0.680186 0.522310
vt 0.643471 0.522239
vt 0.617084 0.520598
vt 0.642795 0.517095
vt 0.707013 0.520951
vt 0.680810 0.517236
vt 0.707013 0.518807
vt 0.767878 0.476684
vt 0.830996 0.480966
vt 0.794048 0.480326
vt 0.767865 0.478612
vt 0.794390 0.475753
vt 0.857508 0.480035
vt 0.831338 0.476393
vt 0.857508 0.478105
vt 0.760463 0.484267
vt 0.823889 0.488194
vt 0.786738 0.487982
vt 0.760463 0.486339
vt 0.786434 0.482908
vt 0.849860 0.486834
vt 0.823620 0.483120
vt 0.849860 0.484763
vt 0.793206 0.469319
vt 0.795409 0.473751
vt 0.770259 0.472820
vt 0.769108 0.470961
vt 0.828003 0.468750
vt 0.831357 0.473182
vt 0.854304 0.469681
vt 0.854304 0.471539
vt 0.756667 0.502982
vt 0.757305 0.508057
vt 0.727825 0.507125
vt 0.727825 0.504981
vt 0.798989 0.502270
vt 0.799592 0.507346
vt 0.828434 0.503202
vt 0.828434 0.505347
vt 0.019617 0.523946
vt 0.023191 0.527593
vt 0.001464 0.526804
vt 0.000000 0.525303
vt 0.047777 0.523520
vt 0.051361 0.527165
vt 0.069514 0.524307
vt 0.069514 0.525879
vt 0.457187 0.519744
vt 0.398778 0.523596
vt 0.416551 0.520308
vt 0.480458 0.520323
vt 0.375455 0.523018
vt 0.375455 0.521659
vt 0.439362 0.523033
vt 0.480458 0.521683
vt 0.305303 0.502903
vt 0.220290 0.508609
vt 0.244538 0.503676
vt 0.341537 0.503699
vt 0.182907 0.507814
vt 0.182890 0.505739
vt 0.279906 0.507836
vt 0.341537 0.505775
vt 0.341537 0.507758
vt 0.366008 0.506119
vt 0.369090 0.507263
vt 0.341537 0.506559
vt 0.372905 0.515680
vt 0.355775 0.518038
vt 0.355775 0.516108
vt 0.372905 0.517394
vt 0.687986 0.491045
vt 0.714814 0.491355
vt 0.690649 0.491680
vt 0.714814 0.490684
vt 0.516008 0.479042
vt 0.516008 0.480471
vt 0.503413 0.478685
vt 0.503413 0.479971
vt 0.065358 0.528502
vt 0.065300 0.529288
vt 0.000053 0.527593
vt 0.000000 0.528285
vt 0.000000 0.528979
vt 0.065298 0.530094
vt 0.767865 0.481584
vt 0.815897 0.482847
vt 0.767865 0.482203
vt 0.815896 0.482322
vt 0.815937 0.481798
vt 0.767912 0.480966
vt 0.000000 0.501268
vt 0.049417 0.499461
vt 0.082698 0.502348
vt 0.117095 0.499399
vt 0.000009 0.503661
vt 0.164115 0.501054
vt 0.047059 0.505317
vt 0.164115 0.503448
vt 0.115970 0.505237
vt 0.379371 0.480562
vt 0.415525 0.479129
vt 0.440470 0.480782
vt 0.465995 0.478685
vt 0.379371 0.482058
vt 0.502053 0.479437
vt 0.416749 0.482792
vt 0.503413 0.480913
vt 0.467219 0.482347
vt 0.500306 0.521423
vt 0.500306 0.519703
vt 0.546777 0.519748
vt 0.528020 0.518044
vt 0.527982 0.522111
vt 0.566658 0.517368
vt 0.566620 0.521435
vt 0.593298 0.518076
vt 0.594319 0.519778
vt 0.717689 0.522245
vt 0.750463 0.520935
vt 0.772870 0.522296
vt 0.795190 0.520512
vt 0.718219 0.523533
vt 0.828846 0.521043
vt 0.750053 0.524149
vt 0.828846 0.522398
vt 0.796659 0.523638
vt 0.851276 0.520054
vt 0.827777 0.518391
vt 0.867132 0.518104
vt 0.827777 0.516597
vt 0.884046 0.520512
vt 0.848812 0.515625
vt 0.905081 0.519540
vt 0.881648 0.516084
vt 0.905122 0.517748
vt 0.394110 0.526983
vt 0.375455 0.525664
vt 0.411075 0.525554
vt 0.375455 0.524220
vt 0.423607 0.527532
vt 0.397731 0.523596
vt 0.445952 0.526910
vt 0.426590 0.524059
vt 0.446725 0.525447
vt 0.718309 0.527068
vt 0.717689 0.525711
vt 0.757749 0.525954
vt 0.740765 0.524489
vt 0.740767 0.527709
vt 0.773124 0.524149
vt 0.773107 0.527367
vt 0.796202 0.524858
vt 0.796202 0.526147
vt 0.760463 0.489822
vt 0.790609 0.488669
vt 0.813032 0.489909
vt 0.834464 0.488194
vt 0.761753 0.491040
vt 0.864263 0.488779
vt 0.791552 0.491625
vt 0.864263 0.490015
vt 0.833583 0.491237
vt 0.292886 0.525735
vt 0.271385 0.524159
vt 0.308844 0.523821
vt 0.272162 0.522384
vt 0.323153 0.526144
vt 0.294074 0.521412
vt 0.346338 0.525239
vt 0.324811 0.521908
vt 0.346338 0.523484
vt 0.847258 0.501489
vt 0.847258 0.500044
vt 0.888304 0.500268
vt 0.870950 0.498736
vt 0.871872 0.502249
vt 0.906390 0.498339
vt 0.906307 0.501872
vt 0.931004 0.499099
vt 0.931004 0.500544
vt 0.864263 0.489972
vt 0.890897 0.488993
vt 0.906182 0.490204
vt 0.926363 0.488697
vt 0.864263 0.491020
vt 0.949976 0.489300
vt 0.887901 0.491625
vt 0.950017 0.490348
vt 0.923342 0.491327
vt 0.182907 0.528841
vt 0.182890 0.527657
vt 0.216312 0.527698
vt 0.202230 0.526530
vt 0.202455 0.529362
vt 0.230219 0.526036
vt 0.229957 0.528956
vt 0.250324 0.526626
vt 0.250324 0.527807
vt 0.926509 0.529487
vt 0.910698 0.528344
vt 0.939597 0.528188
vt 0.910698 0.527042
vt 0.950342 0.529849
vt 0.928308 0.526442
vt 0.967952 0.529249
vt 0.951345 0.526823
vt 0.968546 0.528035
vt 0.784352 0.501608
vt 0.783381 0.500633
vt 0.814482 0.500884
vt 0.800928 0.499729
vt 0.803118 0.502254
vt 0.825849 0.499514
vt 0.828009 0.502040
vt 0.845556 0.500140
vt 0.845556 0.501135
vt 0.500306 0.530207
vt 0.501247 0.529317
vt 0.533942 0.529896
vt 0.518994 0.528704
vt 0.519935 0.530958
vt 0.546127 0.528785
vt 0.547069 0.531038
vt 0.565757 0.529535
vt 0.565757 0.530407
vt 0.778099 0.509723
vt 0.762461 0.510216
vt 0.752360 0.509240
vt 0.742478 0.510178
vt 0.778099 0.508930
vt 0.727825 0.509533
vt 0.763240 0.508355
vt 0.727825 0.508740
vt 0.742219 0.508265
vt 0.791279 0.529921
vt 0.777024 0.529446
vt 0.776019 0.528645
vt 0.810928 0.529643
vt 0.789823 0.527902
vt 0.823736 0.528916
vt 0.809178 0.527709
vt 0.823736 0.528097
vt 0.291558 0.529149
vt 0.271393 0.528453
vt 0.271385 0.527305
vt 0.320280 0.528951
vt 0.292255 0.526344
vt 0.341150 0.527990
vt 0.320954 0.526144
vt 0.341150 0.526839
vt 0.735135 0.530413
vt 0.717710 0.529838
vt 0.717689 0.528861
vt 0.759586 0.530131
vt 0.734113 0.527994
vt 0.776019 0.529261
vt 0.758573 0.527709
vt 0.776019 0.528287
vt 0.369079 0.528750
vt 0.391522 0.527827
vt 0.369079 0.529679
vt 0.392325 0.530042
vt 0.422189 0.527532
vt 0.424798 0.529661
vt 0.446709 0.527879
vt 0.446725 0.528805
vt 0.873006 0.528797
vt 0.846438 0.528402
vt 0.828846 0.527120
vt 0.892241 0.528072
vt 0.829641 0.525625
vt 0.892241 0.526597
vt 0.848891 0.524902
vt 0.874649 0.525315
vt 0.617084 0.530261
vt 0.617113 0.529317
vt 0.636903 0.530993
vt 0.663057 0.531002
vt 0.637408 0.528670
vt 0.683381 0.530355
vt 0.663562 0.528679
vt 0.683381 0.529411
vt 0.077526 0.528105
vt 0.100783 0.527231
vt 0.077526 0.529033
vt 0.100240 0.529466
vt 0.132723 0.526920
vt 0.131664 0.529222
vt 0.155438 0.527352
vt 0.155438 0.528281
vt 0.530129 0.525576
vt 0.529663 0.522430
vt 0.570663 0.522111
vt 0.500306 0.524856
vt 0.500306 0.523531
vt 0.570695 0.525327
vt 0.600447 0.522832
vt 0.600486 0.524155
vt 0.500306 0.527557
vt 0.500306 0.526333
vt 0.525556 0.528546
vt 0.562019 0.528704
vt 0.525556 0.525576
vt 0.587241 0.527945
vt 0.562019 0.525734
vt 0.587269 0.526723
vt 0.236396 0.526036
vt 0.204628 0.525540
vt 0.182890 0.523997
vt 0.260615 0.525269
vt 0.182890 0.522361
vt 0.260615 0.523633
vt 0.204872 0.521543
vt 0.236616 0.522039
vt 0.756117 0.502254
vt 0.754172 0.498685
vt 0.783381 0.499787
vt 0.783381 0.501252
vt 0.717478 0.502091
vt 0.715528 0.498524
vt 0.688227 0.500992
vt 0.688264 0.499526
vt 0.878551 0.514988
vt 0.844519 0.514444
vt 0.819722 0.512763
vt 0.904284 0.514185
vt 0.820524 0.511001
vt 0.904284 0.512442
vt 0.845455 0.510216
vt 0.879487 0.510760
vt 0.077526 0.525691
vt 0.077526 0.524379
vt 0.104580 0.526729
vt 0.143863 0.526920
vt 0.105618 0.523567
vt 0.171014 0.526125
vt 0.143932 0.523774
vt 0.171014 0.524814
vt 0.750484 0.520512
vt 0.718482 0.519356
vt 0.717689 0.517613
vt 0.795795 0.520332
vt 0.750487 0.516327
vt 0.827777 0.518978
vt 0.795745 0.516146
vt 0.827777 0.517302
vt 0.886751 0.524902
vt 0.852784 0.524340
vt 0.828846 0.522796
vt 0.910699 0.524223
vt 0.830447 0.521279
vt 0.910699 0.522635
vt 0.853619 0.520512
vt 0.886807 0.521092
vt 0.617084 0.507209
vt 0.618212 0.504143
vt 0.727825 0.508412
vt 0.694377 0.510216
vt 0.649210 0.509770
vt 0.727825 0.505276
vt 0.650593 0.502270
vt 0.696854 0.502784
vt 0.000000 0.517378
vt 0.105257 0.513108
vt 0.031697 0.518102
vt 0.084464 0.517397
vt 0.052540 0.513811
vt -0.000000 0.515590
vt 0.137004 0.513830
vt 0.138103 0.515621
vt 0.403789 0.519744
vt 0.375455 0.519095
vt 0.421085 0.515956
vt 0.375455 0.517520
vt 0.468073 0.515322
vt 0.450797 0.519112
vt 0.496426 0.515972
vt 0.496426 0.517547
vt 0.653010 0.490735
vt 0.687986 0.491194
vt 0.653010 0.491680
vt 0.682809 0.490321
vt 0.598233 0.518452
vt 0.598233 0.516523
vt 0.615363 0.518810
vt 0.615363 0.517166
vt 0.735060 0.490462
vt 0.716823 0.491680
vt 0.714814 0.490827
vt 0.735060 0.491351
vt 0.503413 0.482256
vt 0.516008 0.481899
vt 0.503413 0.480970
vt 0.598233 0.513450
vt 0.615363 0.516095
vt 0.615363 0.513450
vt 0.615363 0.510807
vt 0.598233 0.510450
vt 0.164115 0.501756
vt 0.164115 0.499756
vt 0.176710 0.501756
vt 0.164115 0.503758
vt 0.176710 0.499399
vt 0.176710 0.504115
vt 0.688226 0.497837
vt 0.662571 0.500912
vt 0.643449 0.496625
vt 0.624801 0.501485
vt 0.688226 0.494049
vt 0.598663 0.499199
vt 0.660973 0.491763
vt 0.597556 0.495413
vt 0.624362 0.492339
vt 0.372698 0.498628
vt 0.354411 0.501486
vt 0.339557 0.498626
vt 0.326754 0.502627
vt 0.372698 0.495771
vt 0.306409 0.501483
vt 0.352360 0.494625
vt 0.306381 0.498625
vt 0.325812 0.495769
vt 0.958512 0.512838
vt 0.944563 0.514981
vt 0.931835 0.512408
vt 0.922286 0.515625
vt 0.958512 0.510406
vt 0.906205 0.514339
vt 0.942499 0.509192
vt 0.905122 0.511979
vt 0.920257 0.509836
vt 0.908165 0.484335
vt 0.908131 0.486695
vt 0.878431 0.485192
vt 0.889834 0.488194
vt 0.892153 0.482406
vt 0.865826 0.487978
vt 0.868156 0.482188
vt 0.849860 0.486047
vt 0.849860 0.483687
vt 0.362766 0.512467
vt 0.345442 0.514754
vt 0.333733 0.511968
vt 0.320880 0.515398
vt 0.362766 0.509968
vt 0.304766 0.514040
vt 0.346652 0.508609
vt 0.304700 0.511469
vt 0.322091 0.509253
vt 0.957716 0.495407
vt 0.942467 0.497479
vt 0.930711 0.494906
vt 0.920557 0.498122
vt 0.957716 0.493047
vt 0.904928 0.496836
vt 0.942090 0.491763
vt 0.903675 0.494407
vt 0.918923 0.492335
vt 0.961270 0.485116
vt 0.961270 0.487475
vt 0.934161 0.485332
vt 0.945657 0.488546
vt 0.945604 0.482973
vt 0.923970 0.487761
vt 0.923883 0.482188
vt 0.908166 0.485546
vt 0.908270 0.483259
vt 0.912855 0.478327
vt 0.911704 0.480684
vt 0.885164 0.478897
vt 0.895847 0.482042
vt 0.897300 0.476255
vt 0.873058 0.481542
vt 0.874515 0.475753
vt 0.857508 0.479468
vt 0.857508 0.477110
vt 0.959476 0.471536
vt 0.959476 0.473679
vt 0.934663 0.471750
vt 0.945059 0.474681
vt 0.944729 0.469465
vt 0.924486 0.473966
vt 0.924155 0.468750
vt 0.909739 0.471895
vt 0.909774 0.469751
vt 0.492914 0.526668
vt 0.478831 0.528454
vt 0.470438 0.526239
vt 0.460140 0.528884
vt 0.492883 0.524669
vt 0.446725 0.527742
vt 0.479589 0.523596
vt 0.446725 0.525740
vt 0.460898 0.524026
vt 0.182891 0.488113
vt 0.181774 0.489899
vt 0.162640 0.488540
vt 0.169566 0.490900
vt 0.172190 0.486541
vt 0.153224 0.490470
vt 0.155848 0.486111
vt 0.142523 0.488897
vt 0.142523 0.487111
vt 0.995799 0.511407
vt 0.995795 0.513121
vt 0.977657 0.511477
vt 0.984626 0.513836
vt 0.985829 0.509835
vt 0.968482 0.513193
vt 0.969686 0.509192
vt 0.958512 0.511622
vt 0.958512 0.509905
vt 0.179531 0.515035
vt 0.179531 0.516751
vt 0.159721 0.515320
vt 0.166896 0.517679
vt 0.169107 0.513392
vt 0.150298 0.517249
vt 0.152544 0.512963
vt 0.139816 0.515677
vt 0.141025 0.513891
vt 0.995679 0.471110
vt 0.985621 0.472610
vt 0.977597 0.470965
vt 0.971087 0.473181
vt 0.995679 0.469465
vt 0.959514 0.472465
vt 0.984071 0.468750
vt 0.959476 0.470823
vt 0.969572 0.469321
vt 0.983184 0.504916
vt 0.970590 0.506773
vt 0.961627 0.504843
vt 0.952858 0.507486
vt 0.983184 0.503058
vt 0.939928 0.506700
vt 0.970259 0.502270
vt 0.939893 0.504842
vt 0.952487 0.502985
vt 0.171440 0.497544
vt 0.163510 0.498831
vt 0.156639 0.497472
vt 0.151704 0.499258
vt 0.170264 0.496258
vt 0.141897 0.498686
vt 0.161670 0.495614
vt 0.141897 0.497330
vt 0.149803 0.496113
vt 0.364401 0.503046
vt 0.341537 0.504974
vt 0.342304 0.503759
vt 0.351450 0.502903
vt 0.372764 0.504047
vt 0.351051 0.505976
vt 0.372764 0.505334
vt 0.364002 0.506119
vt 0.959284 0.521225
vt 0.969195 0.520512
vt 0.985257 0.521083
vt 0.959284 0.522869
vt 0.996583 0.522654
vt 0.970611 0.524441
vt 0.996432 0.524227
vt 0.986673 0.525012
vt 0.984207 0.496907
vt 0.996285 0.497693
vt 0.969124 0.497550
vt 0.957716 0.499194
vt 0.996285 0.499337
vt 0.957720 0.500836
vt 0.984877 0.500980
vt 0.969978 0.501551
vt 0.171401 0.490900
vt 0.182890 0.491828
vt 0.153671 0.491327
vt 0.141897 0.492830
vt 0.182890 0.493614
vt 0.141897 0.494616
vt 0.170055 0.495187
vt 0.153476 0.495614
vt 0.986289 0.491763
vt 1.000000 0.492692
vt 0.969159 0.492335
vt 0.957716 0.494120
vt 1.000000 0.494622
vt 0.958867 0.495978
vt 0.988592 0.496336
vt 0.971427 0.496907
vt 0.654618 0.522310
vt 0.670191 0.523383
vt 0.632892 0.523097
vt 0.617084 0.525312
vt 0.670191 0.525740
vt 0.617224 0.527597
vt 0.654523 0.527883
vt 0.632797 0.528670
vt 0.670222 0.523454
vt 0.683641 0.522310
vt 0.702207 0.522812
vt 0.670191 0.525454
vt 0.716380 0.524526
vt 0.684395 0.527170
vt 0.716380 0.526528
vt 0.702965 0.527670
vt 0.948110 0.475753
vt 0.961318 0.476895
vt 0.927833 0.476324
vt 0.912855 0.478252
vt 0.961318 0.479039
vt 0.912891 0.480397
vt 0.946303 0.480896
vt 0.927177 0.481468
vt 0.944867 0.520512
vt 0.959249 0.521513
vt 0.925411 0.521226
vt 0.910698 0.523298
vt 0.959284 0.523656
vt 0.910698 0.525441
vt 0.944537 0.525728
vt 0.923964 0.526442
vt 0.885832 0.503557
vt 0.902558 0.502270
vt 0.924579 0.502844
vt 0.885832 0.505916
vt 0.939893 0.504916
vt 0.901146 0.507988
vt 0.938640 0.507345
vt 0.923065 0.508632
vt 0.854304 0.471253
vt 0.909739 0.470036
vt 0.909739 0.472465
vt 0.870137 0.469250
vt 0.892963 0.468750
vt 0.855420 0.473682
vt 0.894035 0.474537
vt 0.871214 0.475040
vt 0.829684 0.503626
vt 0.846400 0.502270
vt 0.870640 0.502914
vt 0.828434 0.506199
vt 0.885832 0.505200
vt 0.844838 0.508415
vt 0.885832 0.507701
vt 0.867961 0.509059
vt 0.847258 0.494482
vt 0.903675 0.493193
vt 0.903675 0.495622
vt 0.862758 0.492338
vt 0.886560 0.491763
vt 0.847258 0.496911
vt 0.888140 0.497766
vt 0.864333 0.498339
vt 0.830093 0.491763
vt 0.847258 0.493050
vt 0.804939 0.492479
vt 0.787809 0.494908
vt 0.847258 0.495693
vt 0.787809 0.497550
vt 0.830093 0.498124
vt 0.804939 0.498909
vt 0.114688 0.506889
vt 0.134366 0.505317
vt 0.160644 0.506033
vt 0.114688 0.509747
vt 0.179532 0.508534
vt 0.133460 0.512321
vt 0.179532 0.511393
vt 0.159857 0.512963
vt 0.569345 0.492409
vt 0.597556 0.495697
vt 0.500306 0.498334
vt 0.500580 0.494191
vt 0.529559 0.491763
vt 0.528543 0.501625
vt 0.597556 0.499771
vt 0.568294 0.502270
s 1
usemtl Meshpart1Mtl.007
f 1/1/1 2/2/1 3/3/1
f 4/4/2 2/2/1 1/1/1
f 2/2/1 4/4/2 5/5/2
f 4/4/2 6/6/3 5/5/2
f 6/6/3 4/4/2 7/7/3
f 6/6/3 7/7/3 8/8/4
f 9/9/5 10/10/5 11/11/5
f 10/10/5 9/9/5 12/12/5
f 13/13/5 12/12/5 9/9/5
f 13/13/5 14/14/5 12/12/5
f 14/14/5 13/13/5 15/15/5
f 14/14/5 15/15/5 16/16/6
f 17/17/5 18/18/5 19/19/5
f 17/17/5 19/19/5 20/20/6
f 18/18/5 17/17/5 21/21/5
f 18/18/5 21/21/5 22/22/5
f 23/23/5 22/22/5 21/21/5
f 22/22/5 23/23/5 24/24/7
f 25/25/5 26/26/6 27/27/5
f 26/26/6 25/25/5 28/28/5
f 29/29/5 27/27/5 26/26/6
f 29/29/5 30/30/5 27/27/5
f 30/30/5 29/29/5 31/31/5
f 30/30/5 31/31/5 32/32/8
f 33/33/5 34/34/5 35/35/6
f 33/33/5 35/35/6 36/36/8
f 34/34/5 33/33/5 37/37/5
f 34/34/5 37/37/5 38/38/5
f 39/39/5 38/38/5 37/37/5
f 38/38/5 39/39/5 40/40/5
f 41/41/5 42/42/5 43/43/5
f 42/42/5 41/41/5 44/44/5
f 45/45/5 43/43/5 42/42/5
f 45/45/5 46/46/5 43/43/5
f 46/46/5 45/45/5 47/47/5
f 46/46/5 47/47/5 48/48/9
f 49/49/5 50/50/5 51/51/5
f 49/49/5 51/51/5 52/52/10
f 50/50/5 49/49/5 53/53/5
f 50/50/5 53/53/5 54/54/5
f 55/55/5 54/54/5 53/53/5
f 54/54/5 55/55/5 56/56/10
f 57/57/5 58/58/5 59/59/5
f 58/58/5 57/57/5 60/60/11
f 61/61/5 59/59/5 58/58/5
f 61/61/5 62/62/5 59/59/5
f 62/62/5 61/61/5 63/63/5
f 62/62/5 63/63/5 64/64/10
f 65/65/5 66/66/5 67/67/5
f 65/65/5 68/68/5 66/66/5
f 68/68/5 65/65/5 69/69/5
f 68/68/5 69/69/5 70/70/5
f 71/71/5 70/70/5 69/69/5
f 70/70/5 71/71/5 72/72/6
f 73/73/5 74/74/5 75/75/5
f 74/74/5 73/73/5 76/76/5
f 77/77/5 75/75/5 74/74/5
f 77/77/5 78/78/5 75/75/5
f 78/78/5 77/77/5 79/79/5
f 78/78/5 79/79/5 80/80/5
f 81/81/5 82/82/6 83/83/5
f 82/82/6 81/81/5 84/84/5
f 85/85/6 83/83/5 82/82/6
f 85/85/6 86/86/5 83/83/5
f 86/86/5 85/85/6 87/87/5
f 86/86/5 87/87/5 88/88/5
f 89/89/5 90/90/5 91/91/5
f 89/89/5 91/91/5 92/92/5
f 90/90/5 89/89/5 93/93/5
f 90/90/5 93/93/5 94/94/5
f 95/95/5 94/94/5 93/93/5
f 94/94/5 95/95/5 96/96/5
f 97/97/6 98/98/5 99/99/5
f 98/98/5 97/97/6 100/100/12
f 101/101/13 99/99/5 98/98/5
f 101/101/13 102/102/5 99/99/5
f 102/102/5 101/101/13 103/103/5
f 102/102/5 103/103/5 104/104/5
f 105/105/5 106/106/5 107/107/11
f 105/105/5 108/108/5 106/106/5
f 108/108/5 105/105/5 109/109/5
f 108/108/5 109/109/5 110/110/5
f 111/111/5 110/110/5 109/109/5
f 110/110/5 111/111/5 112/112/5
f 113/113/14 114/114/5 115/115/15
f 114/114/5 113/113/14 116/116/11
f 117/117/5 115/115/15 114/114/5
f 117/117/5 118/118/5 115/115/15
f 118/118/5 117/117/5 119/119/13
f 118/118/5 119/119/13 120/120/10
f 121/121/5 122/122/5 123/123/5
f 121/121/5 123/123/5 124/124/10
f 122/122/5 121/121/5 125/125/5
f 122/122/5 125/125/5 126/126/5
f 127/127/5 126/126/5 125/125/5
f 126/126/5 127/127/5 128/128/14
f 129/129/6 130/130/5 131/131/5
f 130/130/5 129/129/6 132/132/5
f 133/133/5 132/132/5 129/129/6
f 133/133/5 134/134/5 132/132/5
f 134/134/5 133/133/5 135/135/5
f 134/134/5 135/135/5 136/136/5
f 137/137/16 138/138/16 139/139/17
f 138/138/16 137/137/16 140/140/18
f 139/139/17 141/141/17 137/137/16
f 141/141/17 139/139/17 142/142/19
f 142/142/19 139/139/17 143/143/19
f 142/142/19 143/143/19 144/144/20
f 145/145/21 146/146/21 147/147/21
f 147/147/21 148/148/21 145/145/21
f 149/149/21 148/148/21 147/147/21
f 149/149/21 150/150/21 148/148/21
f 150/150/21 149/149/21 151/151/21
f 150/150/21 151/151/21 152/152/21
f 153/153/21 154/154/21 155/155/21
f 153/153/21 155/155/21 156/156/21
f 154/154/21 153/153/21 157/157/21
f 154/154/21 157/157/21 158/158/21
f 158/158/21 157/157/21 159/159/21
f 158/158/21 159/159/21 160/160/21
f 161/161/21 162/162/21 163/163/21
f 161/161/21 163/163/21 164/164/22
f 162/162/21 161/161/21 165/165/21
f 165/165/21 166/166/21 162/162/21
f 166/166/21 165/165/21 167/167/21
f 166/166/21 167/167/21 168/168/21
f 169/169/21 170/170/21 171/171/23
f 169/169/21 172/172/21 170/170/21
f 172/172/21 169/169/21 173/173/21
f 173/173/21 174/174/21 172/172/21
f 174/174/21 173/173/21 175/175/21
f 174/174/21 175/175/21 176/176/24
f 177/177/21 178/178/21 179/179/21
f 177/177/21 179/179/21 180/180/22
f 178/178/21 177/177/21 181/181/21
f 178/178/21 181/181/21 182/182/21
f 182/182/21 181/181/21 183/183/21
f 182/182/21 183/183/21 184/184/25
f 185/185/21 186/186/21 187/187/21
f 185/185/21 187/187/21 188/188/22
f 186/186/21 185/185/21 189/189/21
f 186/186/21 189/189/21 190/190/21
f 190/190/21 189/189/21 191/191/21
f 190/190/21 191/191/21 192/192/25
f 193/193/21 194/194/21 195/195/21
f 193/193/21 195/195/21 196/196/22
f 194/194/21 193/193/21 197/197/21
f 194/194/21 197/197/21 198/198/21
f 198/198/21 197/197/21 199/199/21
f 198/198/21 199/199/21 200/200/26
f 201/201/21 202/202/21 203/203/21
f 201/201/21 203/203/21 204/204/21
f 202/202/21 201/201/21 205/205/21
f 205/205/21 206/206/21 202/202/21
f 206/206/21 205/205/21 207/207/21
f 206/206/21 207/207/21 208/208/21
f 209/209/21 210/210/21 211/211/21
f 209/209/21 211/211/21 212/212/25
f 210/210/21 209/209/21 213/213/21
f 213/213/21 214/214/21 210/210/21
f 214/214/21 213/213/21 215/215/21
f 214/214/21 215/215/21 216/216/26
f 217/217/21 218/218/21 219/219/21
f 217/217/21 219/219/21 220/220/27
f 218/218/21 217/217/21 221/221/21
f 218/218/21 221/221/21 222/222/21
f 222/222/21 221/221/21 223/223/21
f 222/222/21 223/223/21 224/224/21
f 225/225/21 226/226/21 227/227/24
f 225/225/21 227/227/24 228/228/21
f 226/226/21 225/225/21 229/229/21
f 229/229/21 230/230/24 226/226/21
f 230/230/24 229/229/21 231/231/21
f 230/230/24 231/231/21 232/232/26
f 233/233/21 234/234/21 235/235/21
f 233/233/21 235/235/21 236/236/21
f 234/234/21 233/233/21 237/237/21
f 234/234/21 237/237/21 238/238/21
f 238/238/21 237/237/21 239/239/24
f 238/238/21 239/239/24 240/240/21
f 241/241/21 242/242/21 243/243/21
f 241/241/21 243/243/21 244/244/25
f 242/242/21 241/241/21 245/245/21
f 245/245/21 246/246/21 242/242/21
f 246/246/21 245/245/21 247/247/21
f 246/246/21 247/247/21 248/248/22
f 249/249/23 250/250/24 251/251/21
f 249/249/23 251/251/21 252/252/21
f 250/250/24 249/249/23 253/253/21
f 250/250/24 253/253/21 254/254/28
f 254/254/28 253/253/21 255/255/21
f 254/254/28 255/255/21 256/256/21
f 257/257/21 258/258/21 259/259/21
f 257/257/21 259/259/21 260/260/21
f 258/258/21 257/257/21 261/261/21
f 258/258/21 261/261/21 262/262/21
f 262/262/21 261/261/21 263/263/21
f 262/262/21 263/263/21 264/264/21
f 265/265/21 266/266/21 267/267/24
f 265/265/21 267/267/24 268/268/21
f 266/266/21 265/265/21 269/269/21
f 266/266/21 269/269/21 270/270/21
f 270/270/21 269/269/21 271/271/21
f 270/270/21 271/271/21 272/272/29
usemtl Meshpart2Mtl.005
f 273/273/2 274/274/2 275/275/2
f 276/276/2 274/274/2 273/273/2
f 277/277/2 275/275/2 274/274/2
f 275/275/2 277/277/2 278/278/2
f 274/274/2 276/276/2 279/279/2
f 279/279/2 276/276/2 280/280/2
f 281/281/2 282/282/2 283/283/2
f 284/284/30 282/282/2 281/281/2
f 285/285/30 283/283/2 282/282/2
f 283/283/2 285/285/30 286/286/31
f 282/282/2 284/284/30 287/287/32
f 287/287/32 284/284/30 288/288/33
f 291/289/34 289/290/35 290/291/36
f 291/289/34 292/292/37 289/290/35
f 293/293/38 294/294/39 295/295/40
f 294/294/39 293/293/38 296/296/41
f 297/297/42 298/298/43 299/299/44
f 298/298/43 297/297/42 300/300/45
f 302/301/46 303/302/47 301/303/48
f 301/303/48 303/302/47 304/304/49
f 305/305/50 306/306/51 307/307/52
f 307/307/52 306/306/51 308/308/53
f 306/306/51 309/309/54 308/308/53
f 309/309/54 306/306/51 310/310/55
f 313/311/56 311/312/57 312/313/58
f 314/314/59 311/312/57 313/311/56
f 313/311/56 315/315/60 314/314/59
f 315/315/60 313/311/56 316/316/61
f 317/317/62 318/318/63 319/319/64
f 318/318/63 320/320/65 319/319/64
f 321/321/66 317/317/62 319/319/64
f 320/320/65 322/322/67 319/319/64
f 323/323/68 321/321/66 319/319/64
f 322/322/67 324/324/69 319/319/64
f 325/325/70 323/323/68 319/319/64
f 324/324/69 325/325/70 319/319/64
f 326/326/71 327/327/72 328/328/64
f 327/327/72 329/329/73 328/328/64
f 330/330/74 326/326/71 328/328/64
f 329/329/73 331/331/75 328/328/64
f 332/332/76 330/330/74 328/328/64
f 331/331/75 333/333/77 328/328/64
f 334/334/78 332/332/76 328/328/64
f 333/333/77 334/334/78 328/328/64
f 335/335/79 336/336/80 337/337/5
f 336/336/80 338/338/81 337/337/5
f 339/339/82 335/335/79 337/337/5
f 338/338/81 340/340/83 337/337/5
f 341/341/84 339/339/82 337/337/5
f 340/340/83 342/342/85 337/337/5
f 343/343/86 341/341/84 337/337/5
f 342/342/85 343/343/86 337/337/5
f 344/344/87 345/345/88 346/346/89
f 345/345/88 347/347/90 346/346/89
f 348/348/91 344/344/87 346/346/89
f 347/347/90 349/349/92 346/346/89
f 350/350/93 348/348/91 346/346/89
f 349/349/92 351/351/94 346/346/89
f 352/352/95 350/350/93 346/346/89
f 351/351/94 352/352/95 346/346/89
f 353/353/96 354/354/97 355/355/89
f 354/354/97 356/356/98 355/355/89
f 357/357/99 353/353/96 355/355/89
f 356/356/98 358/358/100 355/355/89
f 359/359/101 357/357/99 355/355/89
f 358/358/100 360/360/102 355/355/89
f 361/361/103 359/359/101 355/355/89
f 360/360/102 361/361/103 355/355/89
f 362/362/104 363/363/105 364/364/106
f 363/363/105 365/365/107 364/364/106
f 366/366/108 362/362/104 364/364/106
f 365/365/107 367/367/109 364/364/106
f 368/368/110 366/366/108 364/364/106
f 367/367/109 369/369/111 364/364/106
f 370/370/112 368/368/110 364/364/106
f 369/369/111 370/370/112 364/364/106
f 371/371/113 372/372/114 373/373/5
f 372/372/114 374/374/115 373/373/5
f 375/375/116 371/371/113 373/373/5
f 374/374/115 376/376/117 373/373/5
f 377/377/118 375/375/116 373/373/5
f 376/376/117 378/378/119 373/373/5
f 379/379/120 377/377/118 373/373/5
f 378/378/119 379/379/120 373/373/5
f 380/380/121 381/381/122 382/382/123
f 381/381/122 383/383/124 382/382/123
f 384/384/125 380/380/121 382/382/123
f 383/383/124 385/385/126 382/382/123
f 386/386/127 384/384/125 382/382/123
f 385/385/126 387/387/128 382/382/123
f 388/388/129 386/386/127 382/382/123
f 387/387/128 388/388/129 382/382/123
f 389/389/130 390/390/131 391/391/132
f 390/390/131 392/392/133 391/391/132
f 393/393/134 389/389/130 391/391/132
f 392/392/133 394/394/135 391/391/132
f 395/395/136 393/393/134 391/391/132
f 394/394/135 396/396/137 391/391/132
f 397/397/138 395/395/136 391/391/132
f 396/396/137 397/397/138 391/391/132
f 398/398/139 399/399/140 400/400/141
f 399/399/140 401/401/142 400/400/141
f 402/402/143 398/398/139 400/400/141
f 401/401/142 403/403/144 400/400/141
f 404/404/145 402/402/143 400/400/141
f 403/403/144 405/405/146 400/400/141
f 406/406/147 404/404/145 400/400/141
f 405/405/146 406/406/147 400/400/141
f 407/407/148 408/408/149 409/409/150
f 408/408/149 410/410/151 409/409/150
f 411/411/152 407/407/148 409/409/150
f 410/410/151 412/412/153 409/409/150
f 413/413/154 411/411/152 409/409/150
f 412/412/153 414/414/155 409/409/150
f 415/415/156 413/413/154 409/409/150
f 414/414/155 415/415/156 409/409/150
f 416/416/157 417/417/158 418/418/5
f 417/417/158 419/419/159 418/418/5
f 420/420/160 416/416/157 418/418/5
f 419/419/159 421/421/161 418/418/5
f 422/422/162 420/420/160 418/418/5
f 421/421/161 423/423/163 418/418/5
f 424/424/164 422/422/162 418/418/5
f 423/423/163 424/424/164 418/418/5
f 425/425/165 426/426/166 427/427/167
f 426/426/166 428/428/168 427/427/167
f 429/429/169 425/425/165 427/427/167
f 428/428/168 430/430/170 427/427/167
f 431/431/171 429/429/169 427/427/167
f 430/430/170 432/432/172 427/427/167
f 433/433/173 431/431/171 427/427/167
f 432/432/172 433/433/173 427/427/167
f 434/434/174 435/435/175 436/436/176
f 435/435/175 437/437/177 436/436/176
f 438/438/178 434/434/174 436/436/176
f 437/437/177 439/439/179 436/436/176
f 440/440/180 438/438/178 436/436/176
f 439/439/179 441/441/181 436/436/176
f 442/442/182 440/440/180 436/436/176
f 441/441/181 442/442/182 436/436/176
f 443/443/183 444/444/184 445/445/6
f 444/444/184 446/446/185 445/445/6
f 447/447/186 443/443/183 445/445/6
f 446/446/185 448/448/187 445/445/6
f 449/449/188 447/447/186 445/445/6
f 448/448/187 450/450/189 445/445/6
f 451/451/190 449/449/188 445/445/6
f 450/450/189 451/451/190 445/445/6
f 452/452/191 453/453/192 454/454/193
f 453/453/192 455/455/194 454/454/193
f 456/456/195 452/452/191 454/454/193
f 455/455/194 457/457/196 454/454/193
f 458/458/197 456/456/195 454/454/193
f 457/457/196 459/459/198 454/454/193
f 460/460/199 458/458/197 454/454/193
f 459/459/198 460/460/199 454/454/193
f 461/461/13 462/462/200 463/463/5
f 463/463/5 464/464/5 461/461/13
f 465/465/15 464/464/5 463/463/5
f 465/465/15 466/466/5 464/464/5
f 466/466/5 465/465/15 467/467/5
f 466/466/5 467/467/5 468/468/5
f 469/469/11 470/470/11 471/471/5
f 471/471/5 472/472/5 469/469/11
f 473/473/5 472/472/5 471/471/5
f 473/473/5 474/474/5 472/472/5
f 474/474/5 473/473/5 475/475/6
f 474/474/5 475/475/6 476/476/5
f 477/477/5 478/478/5 479/479/5
f 479/479/5 480/480/5 477/477/5
f 481/481/5 480/480/5 479/479/5
f 481/481/5 482/482/5 480/480/5
f 482/482/5 481/481/5 483/483/5
f 482/482/5 483/483/5 484/484/5
f 485/485/200 486/486/13 487/487/5
f 486/486/13 488/488/5 487/487/5
f 489/489/201 488/488/5 486/486/13
f 489/489/201 490/490/5 488/488/5
f 490/490/5 489/489/201 491/491/13
f 490/490/5 491/491/13 492/492/6
f 493/493/202 494/494/6 495/495/6
f 495/495/6 496/496/5 493/493/202
f 497/497/5 496/496/5 495/495/6
f 497/497/5 498/498/5 496/496/5
f 498/498/5 497/497/5 499/499/5
f 498/498/5 499/499/5 500/500/5
f 501/501/203 502/502/5 503/503/13
f 502/502/5 504/504/5 503/503/13
f 505/505/5 504/504/5 502/502/5
f 505/505/5 506/506/5 504/504/5
f 506/506/5 505/505/5 507/507/5
f 506/506/5 507/507/5 508/508/5
f 509/509/5 510/510/5 511/511/5
f 510/510/5 512/512/5 511/511/5
f 513/513/5 512/512/5 510/510/5
f 513/513/5 514/514/5 512/512/5
f 514/514/5 513/513/5 515/515/5
f 514/514/5 515/515/5 516/516/204
f 517/517/5 518/518/5 519/519/5
f 518/518/5 517/517/5 520/520/5
f 518/518/5 520/520/5 521/521/6
f 519/519/5 522/522/5 517/517/5
f 522/522/5 519/519/5 523/523/5
f 522/522/5 523/523/5 524/524/5
f 525/525/5 526/526/5 527/527/5
f 526/526/5 528/528/5 527/527/5
f 529/529/5 528/528/5 526/526/5
f 529/529/5 530/530/5 528/528/5
f 530/530/5 529/529/5 531/531/5
f 530/530/5 531/531/5 532/532/5
f 533/533/5 534/534/5 535/535/5
f 535/535/5 536/536/5 533/533/5
f 537/537/5 536/536/5 535/535/5
f 537/537/5 538/538/5 536/536/5
f 538/538/5 537/537/5 539/539/5
f 538/538/5 539/539/5 540/540/5
f 541/541/5 542/542/5 543/543/5
f 541/541/5 543/543/5 544/544/8
f 542/542/5 541/541/5 545/545/5
f 545/545/5 546/546/5 542/542/5
f 545/545/5 547/547/5 546/546/5
f 546/546/5 547/547/5 548/548/9
f 549/549/5 550/550/5 551/551/5
f 551/551/5 552/552/5 549/549/5
f 553/553/5 552/552/5 551/551/5
f 553/553/5 554/554/5 552/552/5
f 554/554/5 553/553/5 555/555/6
f 554/554/5 555/555/6 556/556/5
f 557/557/13 558/558/13 559/559/11
f 558/558/13 560/560/5 559/559/11
f 561/561/5 560/560/5 558/558/13
f 561/561/5 562/562/5 560/560/5
f 562/562/5 561/561/5 563/563/5
f 562/562/5 563/563/5 564/564/15
f 565/565/5 566/566/5 567/567/5
f 567/567/5 568/568/5 565/565/5
f 569/569/5 568/568/5 567/567/5
f 569/569/5 570/570/5 568/568/5
f 570/570/5 569/569/5 571/571/5
f 570/570/5 571/571/5 572/572/5
f 573/573/5 574/574/5 575/575/5
f 575/575/5 576/576/5 573/573/5
f 577/577/5 576/576/5 575/575/5
f 577/577/5 578/578/5 576/576/5
f 578/578/5 577/577/5 579/579/5
f 578/578/5 579/579/5 580/580/5
f 581/581/5 582/582/5 583/583/5
f 581/581/5 583/583/5 584/584/5
f 581/581/5 584/584/5 585/585/8
f 582/582/5 586/586/5 583/583/5
f 586/586/5 582/582/5 587/587/6
f 586/586/5 587/587/6 588/588/10
f 589/589/17 590/590/17 591/591/17
f 591/591/17 590/590/17 592/592/17
f 590/590/17 589/589/17 593/593/17
f 593/593/17 589/589/17 594/594/17
f 595/595/17 592/592/17 590/590/17
f 592/592/17 595/595/17 596/596/17
f 597/597/17 598/598/17 599/599/17
f 599/599/17 598/598/17 600/600/17
f 601/601/17 597/597/17 599/599/17
f 597/597/17 601/601/17 602/602/17
f 603/603/17 602/602/17 601/601/17
f 602/602/17 603/603/17 604/604/17
f 606/605/205 607/606/206 605/607/207
f 607/606/206 606/605/205 608/608/208
f 610/609/209 611/610/210 609/611/211
f 609/611/211 611/610/210 612/612/212
f 615/613/213 613/614/214 614/615/215
f 615/613/213 616/616/216 613/614/214
f 617/617/217 619/302/218 618/618/219
f 619/302/218 617/617/217 620/619/220
f 622/610/221 623/620/222 621/621/223
f 621/621/223 623/620/222 624/622/224
f 623/620/222 625/623/225 624/622/224
f 625/623/225 623/620/222 626/624/226
f 627/625/227 628/626/228 629/627/229
f 629/627/229 630/628/230 627/625/227
f 629/627/229 628/626/228 631/629/231
f 630/628/230 629/627/229 632/630/232
f 633/631/233 634/632/234 635/633/235
f 634/632/234 636/634/236 635/633/235
f 637/635/237 633/631/233 635/633/235
f 636/634/236 638/636/238 635/633/235
f 639/637/239 637/635/237 635/633/235
f 638/636/238 640/638/240 635/633/235
f 641/639/241 639/637/239 635/633/235
f 640/638/240 641/639/241 635/633/235
f 642/640/242 643/641/243 644/642/21
f 643/641/243 645/643/244 644/642/21
f 646/644/245 642/640/242 644/642/21
f 645/643/244 647/645/246 644/642/21
f 648/646/247 646/644/245 644/642/21
f 647/645/246 649/647/248 644/642/21
f 650/648/249 648/646/247 644/642/21
f 649/647/248 650/648/249 644/642/21
f 651/649/250 652/650/251 653/651/252
f 652/650/251 654/652/253 653/651/252
f 655/653/254 651/649/250 653/651/252
f 654/652/253 656/654/255 653/651/252
f 657/655/256 655/653/254 653/651/252
f 656/654/255 658/656/257 653/651/252
f 659/657/258 657/655/256 653/651/252
f 658/656/257 659/657/258 653/651/252
f 660/658/259 661/659/260 662/660/21
f 661/659/260 663/661/261 662/660/21
f 664/662/262 660/658/259 662/660/21
f 663/661/261 665/663/263 662/660/21
f 666/664/264 664/662/262 662/660/21
f 665/663/263 667/665/265 662/660/21
f 668/666/266 666/664/264 662/660/21
f 667/665/265 668/666/266 662/660/21
f 669/667/267 670/668/268 671/669/269
f 670/668/268 672/670/270 671/669/269
f 673/671/271 669/667/267 671/669/269
f 672/670/270 674/672/272 671/669/269
f 675/673/273 673/671/271 671/669/269
f 674/672/272 676/674/274 671/669/269
f 677/675/275 675/673/273 671/669/269
f 676/674/274 677/675/275 671/669/269
f 678/676/276 679/677/277 680/678/278
f 679/677/277 681/679/279 680/678/278
f 682/680/280 678/676/276 680/678/278
f 681/679/279 683/681/281 680/678/278
f 684/682/282 682/680/280 680/678/278
f 683/681/281 685/683/283 680/678/278
f 686/684/284 684/682/282 680/678/278
f 685/683/283 686/684/284 680/678/278
f 687/685/285 688/686/286 689/687/287
f 688/686/286 690/688/288 689/687/287
f 691/689/289 687/685/285 689/687/287
f 690/688/288 692/690/290 689/687/287
f 693/691/291 691/689/289 689/687/287
f 692/690/290 694/692/292 689/687/287
f 695/693/293 693/691/291 689/687/287
f 694/692/292 695/693/293 689/687/287
f 696/694/294 697/695/295 698/696/296
f 697/695/295 699/697/297 698/696/296
f 700/698/298 696/694/294 698/696/296
f 699/697/297 701/699/299 698/696/296
f 702/700/300 700/698/298 698/696/296
f 701/699/299 703/701/301 698/696/296
f 704/702/302 702/700/300 698/696/296
f 703/701/301 704/702/302 698/696/296
f 705/703/303 706/704/304 707/705/305
f 706/704/304 708/706/306 707/705/305
f 709/707/307 705/703/303 707/705/305
f 708/706/306 710/708/308 707/705/305
f 711/709/309 709/707/307 707/705/305
f 710/708/308 712/710/310 707/705/305
f 713/711/311 711/709/309 707/705/305
f 712/710/310 713/711/311 707/705/305
f 714/712/312 715/713/313 716/714/235
f 715/713/313 717/715/314 716/714/235
f 718/716/315 714/712/312 716/714/235
f 717/715/314 719/717/316 716/714/235
f 720/718/317 718/716/315 716/714/235
f 719/717/316 721/719/318 716/714/235
f 722/720/319 720/718/317 716/714/235
f 721/719/318 722/720/319 716/714/235
f 723/721/320 724/722/321 725/723/21
f 724/722/321 726/724/322 725/723/21
f 727/725/323 723/721/320 725/723/21
f 726/724/322 728/726/324 725/723/21
f 729/727/325 727/725/323 725/723/21
f 728/726/324 730/728/326 725/723/21
f 731/729/327 729/727/325 725/723/21
f 730/728/326 731/729/327 725/723/21
f 732/730/328 733/731/329 734/732/330
f 733/731/329 735/733/331 734/732/330
f 736/734/332 732/730/328 734/732/330
f 735/733/331 737/735/333 734/732/330
f 738/736/334 736/734/332 734/732/330
f 737/735/333 739/737/335 734/732/330
f 740/738/336 738/736/334 734/732/330
f 739/737/335 740/738/336 734/732/330
f 741/739/337 742/740/338 743/741/339
f 742/740/338 744/742/340 743/741/339
f 745/743/341 741/739/337 743/741/339
f 744/742/340 746/744/342 743/741/339
f 747/745/343 745/743/341 743/741/339
f 746/744/342 748/746/344 743/741/339
f 749/747/345 747/745/343 743/741/339
f 748/746/344 749/747/345 743/741/339
f 750/748/346 751/749/347 752/750/348
f 751/749/347 753/751/349 752/750/348
f 754/752/350 750/748/346 752/750/348
f 753/751/349 755/753/351 752/750/348
f 756/754/352 754/752/350 752/750/348
f 755/753/351 757/755/353 752/750/348
f 758/756/354 756/754/352 752/750/348
f 757/755/353 758/756/354 752/750/348
f 759/757/355 760/758/356 761/759/21
f 760/758/356 762/760/357 761/759/21
f 763/761/358 759/757/355 761/759/21
f 762/760/357 764/762/359 761/759/21
f 765/763/360 763/761/358 761/759/21
f 764/762/359 766/764/361 761/759/21
f 767/765/362 765/763/360 761/759/21
f 766/764/361 767/765/362 761/759/21
f 768/766/363 769/767/364 770/768/252
f 769/767/364 771/769/365 770/768/252
f 772/770/366 768/766/363 770/768/252
f 771/769/365 773/771/367 770/768/252
f 774/772/368 772/770/366 770/768/252
f 773/771/367 775/773/369 770/768/252
f 776/774/370 774/772/368 770/768/252
f 775/773/369 776/774/370 770/768/252
f 777/775/21 778/776/21 779/777/21
f 777/775/21 779/777/21 780/778/21
f 778/776/21 777/775/21 781/779/21
f 781/779/21 782/780/21 778/776/21
f 781/779/21 783/781/21 782/780/21
f 782/780/21 783/781/21 784/782/21
f 785/783/28 786/784/21 787/785/21
f 787/785/21 788/786/371 785/783/28
f 789/787/287 788/786/371 787/785/21
f 789/787/287 790/788/21 788/786/371
f 790/788/21 789/787/287 791/789/23
f 790/788/21 791/789/23 792/790/372
f 793/791/373 794/792/21 795/793/21
f 794/792/21 796/794/371 795/793/21
f 797/795/21 796/794/371 794/792/21
f 797/795/21 798/796/24 796/794/371
f 798/796/24 797/795/21 799/797/21
f 798/796/24 799/797/21 800/798/21
f 801/799/21 802/800/21 803/801/24
f 802/800/21 804/802/21 803/801/24
f 805/803/21 804/802/21 802/800/21
f 805/803/21 806/804/21 804/802/21
f 806/804/21 805/803/21 807/805/21
f 806/804/21 807/805/21 808/806/374
f 809/807/21 810/808/21 811/809/21
f 810/808/21 812/810/21 811/809/21
f 813/811/21 812/810/21 810/808/21
f 813/811/21 814/812/21 812/810/21
f 814/812/21 813/811/21 815/813/21
f 814/812/21 815/813/21 816/814/21
f 817/815/23 818/816/21 819/817/21
f 818/816/21 820/818/21 819/817/21
f 821/819/287 820/818/21 818/816/21
f 821/819/287 822/820/21 820/818/21
f 822/820/21 821/819/287 823/821/373
f 822/820/21 823/821/373 824/822/24
f 825/823/21 826/824/25 827/825/21
f 827/825/21 828/826/287 825/823/21
f 829/827/21 828/826/287 827/825/21
f 829/827/21 830/828/21 828/826/287
f 830/828/21 829/827/21 831/829/375
f 830/828/21 831/829/375 832/830/21
f 833/831/21 834/832/21 835/833/21
f 834/832/21 836/834/21 835/833/21
f 837/835/21 836/834/21 834/832/21
f 837/835/21 838/836/21 836/834/21
f 838/836/21 837/835/21 839/837/21
f 838/836/21 839/837/21 840/838/21
f 841/839/21 842/840/21 843/841/21
f 842/840/21 844/842/21 843/841/21
f 845/843/21 844/842/21 842/840/21
f 845/843/21 846/844/21 844/842/21
f 846/844/21 845/843/21 847/845/21
f 846/844/21 847/845/21 848/846/21
f 849/847/21 850/848/373 851/849/21
f 851/849/21 852/850/21 849/847/21
f 853/851/21 852/850/21 851/849/21
f 853/851/21 854/852/24 852/850/21
f 854/852/24 853/851/21 855/853/28
f 854/852/24 855/853/28 856/854/21
f 857/855/21 858/856/21 859/857/21
f 858/856/21 857/855/21 860/858/23
f 858/856/21 860/858/23 861/859/28
f 859/857/21 862/860/21 857/855/21
f 862/860/21 859/857/21 863/861/21
f 862/860/21 863/861/21 864/862/371
f 865/863/21 866/864/21 867/865/21
f 867/865/21 868/866/21 865/863/21
f 869/867/21 868/866/21 867/865/21
f 869/867/21 870/868/21 868/866/21
f 870/868/21 869/867/21 871/869/21
f 870/868/21 871/869/21 872/870/376
f 873/871/21 874/872/21 875/873/21
f 874/872/21 873/871/21 876/874/21
f 874/872/21 876/874/21 877/875/21
f 875/873/21 878/876/21 873/871/21
f 878/876/21 875/873/21 879/877/21
f 878/876/21 879/877/21 880/878/24
f 881/879/371 882/880/21 883/881/21
f 882/880/21 884/882/21 883/881/21
f 885/883/21 884/882/21 882/880/21
f 885/883/21 886/884/21 884/882/21
f 886/884/21 885/883/21 887/885/24
f 886/884/21 887/885/24 888/886/23
f 889/887/21 890/888/24 891/889/21
f 891/889/21 892/890/21 889/887/21
f 893/891/21 892/890/21 891/889/21
f 893/891/21 894/892/21 892/890/21
f 894/892/21 893/891/21 895/893/21
f 894/892/21 895/893/21 896/894/22
f 897/895/21 898/896/21 899/897/21
f 897/895/21 899/897/21 900/898/21
f 897/895/21 900/898/21 901/899/21
f 898/896/21 902/900/21 899/897/21
f 902/900/21 898/896/21 903/901/21
f 902/900/21 903/901/21 904/902/28
