# Blender 5.2.2 LTS
# www.blender.org
mtllib eyethingbolt.mtl
o eyethingbolt
v 0.363922 -0.101746 0.005142 0.0000 0.0000 0.0000
v 0.363922 0.106262 0.005142 0.0000 0.0000 0.0000
v 0.363922 -0.070740 0.078140 0.0000 0.0000 0.0000
v 0.363922 0.002258 0.109131 0.0000 0.0000 0.0000
v 0.363922 0.075256 0.078140 0.0000 0.0000 0.0000
v 0.363922 -0.070740 -0.067871 0.0000 0.0000 0.0000
v 0.363922 0.002258 -0.098862 0.0000 0.0000 0.0000
v 0.363922 0.075256 -0.067871 0.0000 0.0000 0.0000
v 0.237946 0.060242 0.066132 0.0000 0.0000 0.0000
v -0.440063 0.060242 0.066132 0.0000 0.0000 0.0000
v 0.237946 0.085266 0.005142 0.0000 0.0000 0.0000
v -0.440063 0.085266 0.005142 0.0000 0.0000 0.0000
v 0.237946 0.060242 -0.054871 0.0000 0.0000 0.0000
v -0.440063 0.060242 -0.054871 0.0000 0.0000 0.0000
v 0.363922 0.075256 0.078140 0.0000 0.0000 0.0000
v 0.225922 0.075256 0.078140 0.0000 0.0000 0.0000
v 0.363922 0.106262 0.005142 0.0000 0.0000 0.0000
v 0.225922 0.106262 0.005142 0.0000 0.0000 0.0000
v 0.363922 0.075256 -0.067871 0.0000 0.0000 0.0000
v 0.225922 0.075256 -0.067871 0.0000 0.0000 0.0000
v -0.440063 -0.061737 0.066132 0.0000 0.0000 0.0000
v 0.237946 -0.061737 0.066132 0.0000 0.0000 0.0000
v 0.237946 -0.000732 0.091141 0.0000 0.0000 0.0000
v -0.440063 -0.000732 0.091141 0.0000 0.0000 0.0000
v 0.237946 0.060242 0.066132 0.0000 0.0000 0.0000
v -0.440063 0.060242 0.066132 0.0000 0.0000 0.0000
v 0.225922 0.002258 0.109131 0.0000 0.0000 0.0000
v 0.363922 0.002258 0.109131 0.0000 0.0000 0.0000
v 0.363922 0.075256 0.078140 0.0000 0.0000 0.0000
v 0.225922 -0.070740 0.078140 0.0000 0.0000 0.0000
v 0.225922 0.075256 0.078140 0.0000 0.0000 0.0000
v 0.363922 -0.070740 0.078140 0.0000 0.0000 0.0000
v -0.440063 -0.061737 -0.054871 0.0000 0.0000 0.0000
v -0.440063 -0.061737 0.066132 0.0000 0.0000 0.0000
v -0.440063 -0.000732 -0.080856 0.0000 0.0000 0.0000
v -0.440063 -0.086761 0.005142 0.0000 0.0000 0.0000
v -0.440063 0.060242 0.066132 0.0000 0.0000 0.0000
v -0.440063 -0.000732 0.091141 0.0000 0.0000 0.0000
v -0.440063 0.060242 -0.054871 0.0000 0.0000 0.0000
v -0.440063 0.085266 0.005142 0.0000 0.0000 0.0000
v 0.225922 -0.070740 -0.067871 0.0000 0.0000 0.0000
v 0.225922 0.106262 0.005142 0.0000 0.0000 0.0000
v 0.225922 0.002258 -0.098862 0.0000 0.0000 0.0000
v 0.225922 0.075256 -0.067871 0.0000 0.0000 0.0000
v 0.225922 -0.101746 0.005142 0.0000 0.0000 0.0000
v 0.225922 -0.070740 0.078140 0.0000 0.0000 0.0000
v 0.225922 0.002258 0.109131 0.0000 0.0000 0.0000
v 0.225922 0.075256 0.078140 0.0000 0.0000 0.0000
v -0.440063 -0.061737 0.066132 0.0000 0.0000 0.0000
v 0.237946 -0.061737 0.066132 0.0000 0.0000 0.0000
v -0.440063 -0.086761 0.005142 0.0000 0.0000 0.0000
v 0.237946 -0.086761 0.005142 0.0000 0.0000 0.0000
v -0.440063 -0.061737 -0.054871 0.0000 0.0000 0.0000
v 0.237946 -0.061737 -0.054871 0.0000 0.0000 0.0000
v 0.225922 -0.070740 0.078140 0.0000 0.0000 0.0000
v 0.363922 -0.070740 0.078140 0.0000 0.0000 0.0000
v 0.225922 -0.101746 0.005142 0.0000 0.0000 0.0000
v 0.363922 -0.101746 0.005142 0.0000 0.0000 0.0000
v 0.225922 -0.070740 -0.067871 0.0000 0.0000 0.0000
v 0.363922 -0.070740 -0.067871 0.0000 0.0000 0.0000
v -0.440063 -0.061737 -0.054871 0.0000 0.0000 0.0000
v 0.237946 -0.061737 -0.054871 0.0000 0.0000 0.0000
v -0.440063 -0.000732 -0.080856 0.0000 0.0000 0.0000
v 0.237946 -0.000732 -0.080856 0.0000 0.0000 0.0000
v 0.237946 0.060242 -0.054871 0.0000 0.0000 0.0000
v -0.440063 0.060242 -0.054871 0.0000 0.0000 0.0000
v 0.363922 0.075256 -0.067871 0.0000 0.0000 0.0000
v 0.225922 -0.070740 -0.067871 0.0000 0.0000 0.0000
v 0.225922 0.075256 -0.067871 0.0000 0.0000 0.0000
v 0.363922 -0.070740 -0.067871 0.0000 0.0000 0.0000
v 0.363922 0.002258 -0.098862 0.0000 0.0000 0.0000
v 0.225922 0.002258 -0.098862 0.0000 0.0000 0.0000
v 0.339935 0.014252 -0.250870 0.0000 0.0000 0.0000
v 0.347931 0.006256 -0.244858 0.0000 0.0000 0.0000
v 0.346924 0.007263 -0.249863 0.0000 0.0000 0.0000
v 0.351929 -0.001740 -0.249863 0.0000 0.0000 0.0000
v 0.347931 0.005249 -0.254868 0.0000 0.0000 0.0000
v 0.340942 0.011261 -0.259857 0.0000 0.0000 0.0000
v 0.349945 0.002258 -0.258865 0.0000 0.0000 0.0000
v 0.343933 0.004242 -0.266861 0.0000 0.0000 0.0000
v 0.336945 0.005249 -0.273865 0.0000 0.0000 0.0000
v 0.350922 -0.002747 -0.259857 0.0000 0.0000 0.0000
v 0.347931 -0.004761 -0.268860 0.0000 0.0000 0.0000
v 0.352936 -0.007751 -0.257858 0.0000 0.0000 0.0000
v 0.354919 -0.010742 -0.253860 0.0000 0.0000 0.0000
v 0.354919 -0.011749 -0.248871 0.0000 0.0000 0.0000
v 0.351929 -0.013733 -0.265869 0.0000 0.0000 0.0000
v 0.341919 -0.007751 -0.276871 0.0000 0.0000 0.0000
v 0.353943 -0.019745 -0.257858 0.0000 0.0000 0.0000
v 0.354919 -0.021759 -0.247864 0.0000 0.0000 0.0000
v 0.347931 -0.019745 -0.272858 0.0000 0.0000 0.0000
v 0.350922 -0.028748 -0.261871 0.0000 0.0000 0.0000
v 0.351929 -0.031738 -0.247864 0.0000 0.0000 0.0000
v 0.345947 -0.036743 -0.264862 0.0000 0.0000 0.0000
v 0.340942 -0.026733 -0.277863 0.0000 0.0000 0.0000
v 0.335938 0.007263 -0.225861 0.0000 0.0000 0.0000
v 0.339935 -0.023743 -0.218857 0.0000 0.0000 0.0000
v 0.344940 -0.035736 -0.230865 0.0000 0.0000 0.0000
v 0.346924 -0.040741 -0.247864 0.0000 0.0000 0.0000
v 0.350922 -0.027740 -0.233871 0.0000 0.0000 0.0000
v 0.346924 -0.017761 -0.224869 0.0000 0.0000 0.0000
v 0.340942 -0.004761 -0.221863 0.0000 0.0000 0.0000
v 0.353943 -0.018738 -0.238861 0.0000 0.0000 0.0000
v 0.350922 -0.011749 -0.231857 0.0000 0.0000 0.0000
v 0.346924 -0.002747 -0.229858 0.0000 0.0000 0.0000
v 0.353943 -0.010742 -0.243866 0.0000 0.0000 0.0000
v 0.352936 -0.006744 -0.239868 0.0000 0.0000 0.0000
v 0.350922 -0.001740 -0.238861 0.0000 0.0000 0.0000
v 0.343933 0.006256 -0.232864 0.0000 0.0000 0.0000
v 0.348938 0.002258 -0.240860 0.0000 0.0000 0.0000
v 0.340942 0.012268 -0.240860 0.0000 0.0000 0.0000
v 0.307922 0.037262 -0.170868 0.0000 0.0000 0.0000
v 0.324921 0.071259 -0.052856 0.0000 0.0000 0.0000
v 0.344940 0.051239 -0.052856 0.0000 0.0000 0.0000
v 0.296936 0.048248 -0.176865 0.0000 0.0000 0.0000
v 0.306946 0.022247 -0.164871 0.0000 0.0000 0.0000
v 0.343933 0.023254 -0.052856 0.0000 0.0000 0.0000
v 0.324921 -0.007751 -0.236862 0.0000 0.0000 0.0000
v 0.316925 -0.000732 -0.243866 0.0000 0.0000 0.0000
v 0.323944 -0.018738 -0.230865 0.0000 0.0000 0.0000
v 0.294922 0.010254 -0.162857 0.0000 0.0000 0.0000
v 0.314941 -0.026733 -0.228867 0.0000 0.0000 0.0000
v 0.339935 0.014252 -0.250870 0.0000 0.0000 0.0000
v 0.340942 0.011261 -0.259857 0.0000 0.0000 0.0000
v 0.331940 0.019257 -0.250870 0.0000 0.0000 0.0000
v 0.332947 0.015259 -0.264862 0.0000 0.0000 0.0000
v 0.321930 0.022247 -0.250870 0.0000 0.0000 0.0000
v 0.343933 0.004242 -0.266861 0.0000 0.0000 0.0000
v 0.323944 0.017242 -0.267868 0.0000 0.0000 0.0000
v 0.313934 0.016266 -0.269867 0.0000 0.0000 0.0000
v 0.336945 0.005249 -0.273865 0.0000 0.0000 0.0000
v 0.328949 0.005249 -0.279861 0.0000 0.0000 0.0000
v 0.318939 0.003265 -0.282867 0.0000 0.0000 0.0000
v 0.312927 0.018249 -0.231857 0.0000 0.0000 0.0000
v 0.317932 0.006256 -0.217865 0.0000 0.0000 0.0000
v 0.322937 0.018249 -0.233871 0.0000 0.0000 0.0000
v 0.326935 0.008240 -0.220871 0.0000 0.0000 0.0000
v 0.335938 0.007263 -0.225861 0.0000 0.0000 0.0000
v 0.307922 0.003265 -0.216858 0.0000 0.0000 0.0000
v 0.302948 0.015259 -0.231857 0.0000 0.0000 0.0000
v 0.293945 0.011261 -0.231857 0.0000 0.0000 0.0000
v 0.311920 0.022247 -0.251862 0.0000 0.0000 0.0000
v 0.301941 0.019257 -0.251862 0.0000 0.0000 0.0000
v 0.286926 0.004242 -0.233871 0.0000 0.0000 0.0000
v 0.292938 0.014252 -0.251862 0.0000 0.0000 0.0000
v 0.303925 0.013245 -0.270859 0.0000 0.0000 0.0000
v 0.294922 0.009247 -0.269867 0.0000 0.0000 0.0000
v 0.287933 0.002258 -0.267868 0.0000 0.0000 0.0000
v 0.285919 0.007263 -0.250870 0.0000 0.0000 0.0000
v 0.343933 0.006256 -0.232864 0.0000 0.0000 0.0000
v 0.332947 0.016266 -0.236862 0.0000 0.0000 0.0000
v 0.340942 0.012268 -0.240860 0.0000 0.0000 0.0000
v 0.324921 0.071259 -0.052856 0.0000 0.0000 0.0000
v 0.296936 0.048248 -0.176865 0.0000 0.0000 0.0000
v 0.296936 0.071259 -0.051865 0.0000 0.0000 0.0000
v 0.316925 -0.000732 -0.243866 0.0000 0.0000 0.0000
v 0.304932 -0.001740 -0.246857 0.0000 0.0000 0.0000
v 0.279938 0.047241 -0.178864 0.0000 0.0000 0.0000
v 0.267944 0.036255 -0.176865 0.0000 0.0000 0.0000
v 0.276947 0.052246 -0.051865 0.0000 0.0000 0.0000
v 0.295929 -0.038757 -0.224869 0.0000 0.0000 0.0000
v 0.317932 0.006256 -0.217865 0.0000 0.0000 0.0000
v 0.326935 0.008240 -0.220871 0.0000 0.0000 0.0000
v 0.335938 0.007263 -0.225861 0.0000 0.0000 0.0000
v 0.324921 -0.010742 -0.211868 0.0000 0.0000 0.0000
v 0.333923 -0.007751 -0.215866 0.0000 0.0000 0.0000
v 0.315948 -0.014740 -0.210861 0.0000 0.0000 0.0000
v 0.339935 -0.023743 -0.218857 0.0000 0.0000 0.0000
v 0.307922 0.003265 -0.216858 0.0000 0.0000 0.0000
v 0.331940 -0.028748 -0.215866 0.0000 0.0000 0.0000
v 0.302948 0.015259 -0.231857 0.0000 0.0000 0.0000
v 0.344940 -0.035736 -0.230865 0.0000 0.0000 0.0000
v 0.293945 0.011261 -0.231857 0.0000 0.0000 0.0000
v 0.298920 -0.001740 -0.217865 0.0000 0.0000 0.0000
v 0.286926 0.004242 -0.233871 0.0000 0.0000 0.0000
v 0.290924 -0.006744 -0.220871 0.0000 0.0000 0.0000
v 0.305939 -0.018738 -0.211868 0.0000 0.0000 0.0000
v 0.284943 -0.012756 -0.225861 0.0000 0.0000 0.0000
v 0.297943 -0.021759 -0.215866 0.0000 0.0000 0.0000
v 0.312927 -0.035736 -0.215866 0.0000 0.0000 0.0000
v 0.303925 -0.037750 -0.218857 0.0000 0.0000 0.0000
v 0.289948 -0.025757 -0.221863 0.0000 0.0000 0.0000
v 0.322937 -0.032745 -0.214859 0.0000 0.0000 0.0000
v 0.318939 -0.049744 -0.228867 0.0000 0.0000 0.0000
v 0.337921 -0.041748 -0.228867 0.0000 0.0000 0.0000
v 0.328949 -0.046753 -0.227859 0.0000 0.0000 0.0000
v 0.346924 -0.017761 -0.224869 0.0000 0.0000 0.0000
v 0.340942 -0.004761 -0.221863 0.0000 0.0000 0.0000
v 0.292938 -0.009735 -0.279861 0.0000 0.0000 0.0000
v 0.296936 -0.040741 -0.272858 0.0000 0.0000 0.0000
v 0.285919 -0.015747 -0.273865 0.0000 0.0000 0.0000
v 0.281921 -0.005737 -0.264862 0.0000 0.0000 0.0000
v 0.290924 -0.028748 -0.276871 0.0000 0.0000 0.0000
v 0.278931 -0.013733 -0.259857 0.0000 0.0000 0.0000
v 0.277924 -0.010742 -0.250870 0.0000 0.0000 0.0000
v 0.281921 -0.020752 -0.266861 0.0000 0.0000 0.0000
v 0.285919 -0.029755 -0.268860 0.0000 0.0000 0.0000
v 0.288940 -0.038757 -0.265869 0.0000 0.0000 0.0000
v 0.279938 -0.026733 -0.258865 0.0000 0.0000 0.0000
v 0.281921 -0.030762 -0.259857 0.0000 0.0000 0.0000
v 0.277924 -0.022736 -0.254868 0.0000 0.0000 0.0000
v 0.279938 -0.030762 -0.249863 0.0000 0.0000 0.0000
v 0.283936 -0.035736 -0.257858 0.0000 0.0000 0.0000
v 0.277924 -0.020752 -0.249863 0.0000 0.0000 0.0000
v 0.278931 -0.012756 -0.240860 0.0000 0.0000 0.0000
v 0.277924 -0.022736 -0.244858 0.0000 0.0000 0.0000
v 0.280945 -0.019745 -0.232864 0.0000 0.0000 0.0000
v 0.278931 -0.025757 -0.240860 0.0000 0.0000 0.0000
v 0.284943 -0.027740 -0.229858 0.0000 0.0000 0.0000
v 0.280945 -0.029755 -0.238861 0.0000 0.0000 0.0000
v 0.287933 -0.037750 -0.231857 0.0000 0.0000 0.0000
v 0.295929 -0.038757 -0.224869 0.0000 0.0000 0.0000
v 0.282928 -0.034760 -0.239868 0.0000 0.0000 0.0000
v 0.290924 -0.044739 -0.238861 0.0000 0.0000 0.0000
v 0.284943 -0.038757 -0.243866 0.0000 0.0000 0.0000
v 0.291931 -0.047760 -0.247864 0.0000 0.0000 0.0000
v 0.284943 -0.039734 -0.248871 0.0000 0.0000 0.0000
v 0.284943 -0.038757 -0.253860 0.0000 0.0000 0.0000
v 0.291931 -0.045746 -0.257858 0.0000 0.0000 0.0000
v 0.286926 0.004242 -0.233871 0.0000 0.0000 0.0000
v 0.287933 0.002258 -0.267868 0.0000 0.0000 0.0000
v 0.285919 0.007263 -0.250870 0.0000 0.0000 0.0000
v 0.280945 -0.001740 -0.250870 0.0000 0.0000 0.0000
v 0.281921 -0.003754 -0.236862 0.0000 0.0000 0.0000
v 0.290924 -0.006744 -0.220871 0.0000 0.0000 0.0000
v 0.284943 -0.012756 -0.225861 0.0000 0.0000 0.0000
v 0.289948 -0.025757 -0.221863 0.0000 0.0000 0.0000
v 0.304932 -0.001740 -0.246857 0.0000 0.0000 0.0000
v 0.296936 0.003265 -0.051865 0.0000 0.0000 0.0000
v 0.302948 -0.027740 -0.230865 0.0000 0.0000 0.0000
v 0.279938 0.047241 -0.178864 0.0000 0.0000 0.0000
v 0.267944 0.036255 -0.176865 0.0000 0.0000 0.0000
v 0.295929 -0.009735 -0.243866 0.0000 0.0000 0.0000
v 0.276947 0.052246 -0.051865 0.0000 0.0000 0.0000
v 0.267944 0.021240 -0.170868 0.0000 0.0000 0.0000
v 0.294922 -0.020752 -0.237869 0.0000 0.0000 0.0000
v 0.276947 0.023254 -0.050858 0.0000 0.0000 0.0000
v 0.278931 0.010254 -0.164871 0.0000 0.0000 0.0000
v 0.345947 -0.036743 -0.264862 0.0000 0.0000 0.0000
v 0.323944 -0.036743 -0.281860 0.0000 0.0000 0.0000
v 0.314941 -0.039734 -0.280869 0.0000 0.0000 0.0000
v 0.319946 -0.051758 -0.266861 0.0000 0.0000 0.0000
v 0.309937 -0.051758 -0.264862 0.0000 0.0000 0.0000
v 0.304932 -0.040741 -0.277863 0.0000 0.0000 0.0000
v 0.310944 -0.054749 -0.247864 0.0000 0.0000 0.0000
v 0.296936 -0.040741 -0.272858 0.0000 0.0000 0.0000
v 0.299927 -0.049744 -0.261871 0.0000 0.0000 0.0000
v 0.288940 -0.038757 -0.265869 0.0000 0.0000 0.0000
v 0.287933 -0.037750 -0.231857 0.0000 0.0000 0.0000
v 0.295929 -0.038757 -0.224869 0.0000 0.0000 0.0000
v 0.299927 -0.048737 -0.233871 0.0000 0.0000 0.0000
v 0.308929 -0.049744 -0.230865 0.0000 0.0000 0.0000
v 0.290924 -0.044739 -0.238861 0.0000 0.0000 0.0000
v 0.300934 -0.052734 -0.247864 0.0000 0.0000 0.0000
v 0.291931 -0.047760 -0.247864 0.0000 0.0000 0.0000
v 0.291931 -0.045746 -0.257858 0.0000 0.0000 0.0000
v 0.344940 -0.035736 -0.230865 0.0000 0.0000 0.0000
v 0.312927 -0.035736 -0.215866 0.0000 0.0000 0.0000
v 0.303925 -0.037750 -0.218857 0.0000 0.0000 0.0000
v 0.318939 -0.049744 -0.228867 0.0000 0.0000 0.0000
v 0.337921 -0.041748 -0.228867 0.0000 0.0000 0.0000
v 0.328949 -0.046753 -0.227859 0.0000 0.0000 0.0000
v 0.320923 -0.054749 -0.246857 0.0000 0.0000 0.0000
v 0.330933 -0.052734 -0.246857 0.0000 0.0000 0.0000
v 0.339935 -0.047760 -0.246857 0.0000 0.0000 0.0000
v 0.328949 -0.048737 -0.266861 0.0000 0.0000 0.0000
v 0.346924 -0.040741 -0.247864 0.0000 0.0000 0.0000
v 0.337921 -0.043762 -0.266861 0.0000 0.0000 0.0000
v 0.306946 0.022247 -0.164871 0.0000 0.0000 0.0000
v 0.343933 0.023254 -0.052856 0.0000 0.0000 0.0000
v 0.324921 0.003265 -0.051865 0.0000 0.0000 0.0000
v 0.294922 0.010254 -0.162857 0.0000 0.0000 0.0000
v 0.314941 -0.026733 -0.228867 0.0000 0.0000 0.0000
v 0.296936 0.003265 -0.051865 0.0000 0.0000 0.0000
v 0.302948 -0.027740 -0.230865 0.0000 0.0000 0.0000
v 0.278931 0.010254 -0.164871 0.0000 0.0000 0.0000
v 0.313934 0.016266 -0.269867 0.0000 0.0000 0.0000
v 0.336945 0.005249 -0.273865 0.0000 0.0000 0.0000
v 0.341919 -0.007751 -0.276871 0.0000 0.0000 0.0000
v 0.347931 -0.019745 -0.272858 0.0000 0.0000 0.0000
v 0.334930 -0.010742 -0.282867 0.0000 0.0000 0.0000
v 0.345947 -0.036743 -0.264862 0.0000 0.0000 0.0000
v 0.340942 -0.026733 -0.277863 0.0000 0.0000 0.0000
v 0.332947 -0.031738 -0.280869 0.0000 0.0000 0.0000
v 0.328949 0.005249 -0.279861 0.0000 0.0000 0.0000
v 0.325928 -0.014740 -0.286865 0.0000 0.0000 0.0000
v 0.318939 0.003265 -0.282867 0.0000 0.0000 0.0000
v 0.309937 0.000244 -0.283859 0.0000 0.0000 0.0000
v 0.316925 -0.018738 -0.287857 0.0000 0.0000 0.0000
v 0.300934 -0.004761 -0.282867 0.0000 0.0000 0.0000
v 0.323944 -0.036743 -0.281860 0.0000 0.0000 0.0000
v 0.307922 -0.021759 -0.286865 0.0000 0.0000 0.0000
v 0.314941 -0.039734 -0.280869 0.0000 0.0000 0.0000
v 0.292938 -0.009735 -0.279861 0.0000 0.0000 0.0000
v 0.304932 -0.040741 -0.277863 0.0000 0.0000 0.0000
v 0.298920 -0.025757 -0.282867 0.0000 0.0000 0.0000
v 0.296936 -0.040741 -0.272858 0.0000 0.0000 0.0000
v 0.285919 -0.015747 -0.273865 0.0000 0.0000 0.0000
v 0.290924 -0.028748 -0.276871 0.0000 0.0000 0.0000
v 0.303925 0.013245 -0.270859 0.0000 0.0000 0.0000
v 0.294922 0.009247 -0.269867 0.0000 0.0000 0.0000
v 0.287933 0.002258 -0.267868 0.0000 0.0000 0.0000
v 0.328949 -0.048737 -0.266861 0.0000 0.0000 0.0000
v 0.337921 -0.043762 -0.266861 0.0000 0.0000 0.0000
vn 1.0000 -0.0000 -0.0000
vn 1.0000 0.0009 -0.0000
vn 1.0000 0.0005 -0.0000
vn -0.0000 1.0000 -0.0000
vn -0.0000 0.7072 0.7071
vn -0.0000 0.7072 -0.7071
vn -0.0000 0.7071 -0.7071
vn -0.0000 0.7072 0.7070
vn -0.0000 0.7073 -0.7070
vn -0.0000 -0.7072 0.7071
vn -0.0000 -0.7068 0.7074
vn -0.0000 0.0001 1.0000
vn -0.0000 0.7071 0.7071
vn -0.0000 -0.0000 1.0000
vn -0.0000 -0.7070 0.7073
vn -0.0000 0.7069 0.7073
vn -0.0000 -0.7070 0.7072
vn -1.0000 -0.0005 -0.0000
vn -1.0000 -0.0000 -0.0000
vn -1.0000 -0.0012 -0.0000
vn -1.0000 0.0012 -0.0000
vn -0.0000 -1.0000 -0.0000
vn -0.0000 -0.7071 -0.7071
vn -0.0000 -0.7072 -0.7071
vn -0.0000 -0.7072 0.7070
vn -0.0000 -0.7073 -0.7070
vn -0.0000 0.0001 -1.0000
vn -0.0000 -0.7072 -0.7070
vn -0.0000 -0.7068 -0.7074
vn -0.0000 0.7070 -0.7072
vn -0.0000 -0.0000 -1.0000
vn -0.0000 -0.7070 -0.7072
vn -0.0000 -0.7069 -0.7073
vn 0.5992 0.8000 -0.0299
vn 0.7962 0.5916 0.1266
vn 0.7858 0.6182 -0.0182
vn 0.9259 0.3777 -0.0004
vn 0.8027 0.5745 -0.1600
vn 0.6308 0.7236 -0.2802
vn 0.8401 0.4807 -0.2513
vn 0.7075 0.5340 -0.4629
vn 0.8957 0.3432 -0.2828
vn 0.8025 0.2920 -0.5203
vn 0.5239 0.5608 -0.6411
vn 0.9468 0.2187 -0.2361
vn 0.9839 0.1268 -0.1261
vn 0.9946 0.1024 0.0154
vn 0.8990 0.0652 -0.4330
vn 0.6601 0.2270 -0.7161
vn 0.9656 -0.1106 -0.2353
vn 0.9872 -0.1565 0.0320
vn 0.7948 -0.1032 -0.5980
vn 0.8855 -0.3329 -0.3241
vn 0.9156 -0.4001 0.0396
vn 0.7478 -0.5349 -0.3932
vn 0.6294 -0.2594 -0.7325
vn 0.7240 -0.4955 0.4799
vn 0.7802 -0.6237 0.0479
vn 0.8710 -0.2971 0.3913
vn 0.5988 -0.1830 0.7797
vn 0.7679 -0.0413 0.6393
vn 0.9555 -0.0797 0.2839
vn 0.8800 0.1012 0.4640
vn 0.6305 0.2998 0.7159
vn 0.7798 0.3486 0.5201
vn 0.4976 0.6257 0.6007
vn 0.9772 0.1429 0.1571
vn 0.9370 0.2415 0.2525
vn 0.8831 0.3735 0.2839
vn 0.6853 0.5852 0.4334
vn 0.8327 0.5012 0.2355
vn 0.6220 0.7465 0.2365
vn 0.8897 0.4157 -0.1889
vn 0.4090 0.8748 -0.2596
vn 0.8917 0.3243 -0.3158
vn 0.3456 0.8695 -0.3529
vn 0.9368 -0.3475 0.0398
vn 0.8789 -0.3839 -0.2831
vn 0.9297 0.3683 -0.0076
vn 0.4526 0.7793 -0.4334
vn 0.8764 -0.2754 0.3952
vn 0.3325 -0.9220 0.1986
vn 0.3318 -0.7766 0.5356
vn 0.6298 0.7226 -0.2851
vn 0.3772 0.9253 -0.0387
vn 0.5950 0.8030 -0.0348
vn 0.4182 0.8189 -0.3931
vn 0.1260 0.9909 -0.0469
vn 0.7060 0.5350 -0.4641
vn 0.1813 0.8613 -0.4746
vn -0.0716 0.8453 -0.5295
vn 0.5214 0.5639 -0.6404
vn 0.3044 0.5492 -0.7783
vn 0.0700 0.5009 -0.8627
vn -0.0859 0.8943 0.4392
vn 0.0390 0.5851 0.8101
vn 0.1654 0.9044 0.3933
vn 0.2766 0.6233 0.7314
vn 0.4996 0.6234 0.6014
vn -0.2066 0.5078 0.8363
vn -0.3313 0.8297 0.4492
vn -0.1255 0.9906 -0.0547
vn -0.3766 0.9247 -0.0551
vn -0.5545 0.7075 0.4381
vn -0.5979 0.7997 -0.0549
vn -0.7461 0.5368 0.3938
vn -0.3145 0.7788 -0.5428
vn -0.5366 0.6570 -0.5296
vn -0.7253 0.4996 -0.4736
vn -0.7834 0.6198 -0.0465
vn 0.6877 0.5820 0.4340
vn 0.4022 0.8564 0.3238
vn 0.6215 0.7470 0.2363
vn 0.3449 0.8700 -0.3525
vn -0.3301 0.9345 -0.1336
vn 0.4095 0.8745 -0.2600
vn -0.2834 0.7232 -0.6297
vn 0.4493 0.7806 -0.4345
vn -0.3755 0.8400 -0.3917
vn -0.8948 0.3639 -0.2588
vn -0.9009 0.4339 0.0077
vn 0.2130 0.1414 0.9668
vn 0.2750 0.6228 0.7325
vn 0.0383 0.5830 0.8116
vn 0.4319 0.2283 0.8726
vn 0.4985 0.6243 0.6014
vn -0.0234 0.0467 0.9986
vn 0.5985 -0.1808 0.7805
vn -0.2054 0.5047 0.8385
vn 0.4003 -0.3051 0.8641
vn 0.7233 -0.4967 0.4797
vn -0.5560 0.7067 0.4375
vn -0.3316 0.8283 0.4517
vn -0.4328 0.3925 0.8115
vn -0.7477 0.5366 0.3912
vn -0.6301 0.2571 0.7327
vn -0.2522 -0.0478 0.9665
vn -0.4698 -0.1418 0.8713
vn -0.7946 0.1020 0.5985
vn -0.0706 -0.5014 0.8623
vn -0.3055 -0.5493 0.7778
vn -0.5220 -0.5615 0.6421
vn -0.6596 -0.2279 0.7162
vn 0.1741 -0.4176 0.8918
vn 0.0712 -0.8457 0.5290
vn 0.5370 -0.6577 0.5283
vn 0.3148 -0.7806 0.5400
vn 0.7665 -0.0387 0.6410
vn 0.6299 0.2989 0.7169
vn -0.8705 0.2981 -0.3915
vn -0.5990 0.1802 -0.7802
vn -0.7664 0.0374 -0.6413
vn -0.9555 0.0781 -0.2844
vn -0.9870 0.1576 -0.0314
vn -0.6310 -0.3006 -0.7152
vn -0.8799 -0.1033 -0.4638
vn -0.4963 -0.6266 -0.6009
vn -0.7804 -0.3453 -0.5213
vn -0.6856 -0.5834 -0.4355
vn -0.9355 -0.2469 -0.2525
vn -0.8837 -0.3702 -0.2862
vn -0.9772 -0.1424 -0.1575
vn -0.9265 -0.3764 -0.0000
vn -0.8322 -0.5018 -0.2359
vn -0.9946 -0.1022 -0.0158
vn -0.9655 0.1105 0.2357
vn -0.9842 -0.1245 0.1255
vn -0.8989 -0.0555 0.4346
vn -0.9451 -0.2270 0.2352
vn -0.8032 -0.2887 0.5211
vn -0.8939 -0.3495 0.2807
vn -0.7073 -0.5329 0.4645
vn -0.5240 -0.5630 0.6391
vn -0.8407 -0.4797 0.2513
vn -0.6286 -0.7247 0.2822
vn -0.8016 -0.5774 0.1548
vn -0.5967 -0.8018 0.0320
vn -0.7825 -0.6225 0.0154
vn -0.7960 -0.5920 -0.1261
vn -0.6238 -0.7458 -0.2336
vn -0.9141 0.4035 -0.0391
vn -0.7788 0.6255 -0.0462
vn -0.7270 0.4990 -0.4717
vn -0.7483 0.5341 0.3935
vn -0.8861 0.3317 0.3236
vn -0.6293 0.2598 0.7324
vn -0.7953 0.1016 0.5977
vn -0.6615 -0.2282 0.7144
vn -0.3788 0.8369 -0.3952
vn -0.2852 0.7242 -0.6279
vn -0.8955 0.3611 -0.2599
vn -0.8374 0.2285 -0.4965
vn -0.9460 -0.3225 -0.0319
vn -0.9014 0.4329 0.0080
vn -0.8981 -0.4275 -0.1031
vn -0.4085 -0.8509 0.3303
vn -0.9292 -0.3627 0.0710
vn -0.4794 -0.8635 0.1567
vn -0.3547 -0.9350 0.0004
vn 0.2057 -0.5053 -0.8381
vn 0.0861 -0.8940 -0.4397
vn -0.0394 -0.5841 -0.8107
vn -0.1650 -0.9045 -0.3932
vn -0.2754 -0.6243 -0.7310
vn -0.1260 -0.9909 0.0475
vn -0.4989 -0.6259 -0.5994
vn -0.4015 -0.8571 -0.3228
vn -0.6870 -0.5836 -0.4330
vn -0.7073 -0.5336 0.4638
vn -0.4172 -0.8192 0.3935
vn -0.5228 -0.5610 0.6418
vn -0.1807 -0.8587 0.4795
vn -0.6297 -0.7232 0.2836
vn -0.3772 -0.9253 0.0400
vn -0.5979 -0.8010 0.0317
vn -0.6220 -0.7462 -0.2372
vn -0.0696 -0.4991 0.8637
vn -0.3063 -0.5471 0.7790
vn 0.0718 -0.8452 0.5296
vn 0.1253 -0.9906 0.0556
vn 0.3154 -0.7774 0.5442
vn 0.3759 -0.9251 0.0543
vn 0.5385 -0.6543 0.5310
vn 0.5959 -0.8011 0.0551
vn 0.7243 -0.4939 0.4811
vn 0.3404 -0.8253 -0.4506
vn 0.7804 -0.6234 0.0480
vn 0.5572 -0.7042 -0.4400
vn 0.7479 -0.5346 -0.3935
vn 0.4029 -0.9001 -0.1656
vn 0.9382 -0.3438 0.0389
vn 0.8790 -0.3846 -0.2818
vn 0.3320 -0.9226 0.1967
vn -0.3536 -0.9354 -0.0003
vn 0.3302 -0.7777 0.5349
vn -0.4092 -0.8502 0.3313
vn -0.4790 -0.8636 0.1571
vn 0.4711 0.1409 -0.8707
vn 0.5240 0.5610 -0.6408
vn 0.6615 0.2295 -0.7140
vn 0.7956 -0.1019 -0.5971
vn 0.6291 -0.2606 -0.7324
vn 0.4323 -0.3947 -0.8108
vn 0.7478 -0.5345 -0.3937
vn 0.3070 0.5488 -0.7775
vn 0.2515 0.0470 -0.9667
vn 0.0698 0.5004 -0.8630
vn -0.1740 0.4174 -0.8919
vn -0.0702 0.8462 -0.5282
vn 0.0237 -0.0472 -0.9986
vn -0.4007 0.3060 -0.8636
vn 0.2052 -0.5072 -0.8371
vn -0.2119 -0.1417 -0.9670
vn -0.0395 -0.5834 -0.8112
vn -0.5985 0.1803 -0.7806
vn -0.2758 -0.6225 -0.7324
vn -0.4312 -0.2287 -0.8728
vn -0.4976 -0.6249 -0.6016
vn -0.7679 0.0386 -0.6394
vn -0.6302 -0.2983 -0.7169
vn -0.3136 0.7798 -0.5418
vn -0.5375 0.6569 -0.5288
vn -0.7262 0.4989 -0.4730
vn 0.3371 -0.8268 -0.4503
vn 0.5564 -0.7053 -0.4392
vt 0.943805 0.503060
vt 0.731705 0.502633
vt 0.943798 0.498060
vt 0.882783 0.495814
vt 0.794930 0.497760
vt 0.880573 0.507935
vt 0.792720 0.509881
vt 0.731705 0.507635
vt 0.519084 0.510506
vt 0.000000 0.512612
vt 0.000000 0.507705
vt 0.519085 0.515412
vt 0.000000 0.495814
vt 0.463500 0.485219
vt 0.463500 0.491831
vt 0.000000 0.489201
vt 0.149927 0.526718
vt 0.000000 0.523326
vt 0.149927 0.522517
vt 0.000000 0.527527
vt 0.874617 0.475310
vt 0.731972 0.468750
vt 0.874617 0.469975
vt 0.731972 0.474085
vt 0.750152 0.488016
vt 0.750152 0.495763
vt 0.463500 0.492965
vt 0.463500 0.485219
vt -0.000000 0.481633
vt -0.000000 0.476727
vt 0.668264 0.480312
vt 0.668264 0.485219
vt 0.750152 0.486026
vt 0.900621 0.485219
vt 0.900621 0.490562
vt 0.881441 0.525071
vt 0.731705 0.522862
vt 0.881441 0.521398
vt 0.750152 0.491369
vt 0.731705 0.526535
vt 0.775020 0.520046
vt 0.731705 0.511944
vt 0.837545 0.521398
vt 0.731705 0.516187
vt 0.838125 0.511167
vt 0.775976 0.509881
vt 0.881440 0.519270
vt 0.881789 0.515092
vt 0.604499 0.517489
vt 0.731705 0.511472
vt 0.679569 0.519099
vt 0.731705 0.516559
vt 0.550468 0.512797
vt 0.550474 0.507711
vt 0.602610 0.505171
vt 0.677680 0.506781
vt 0.393427 0.499959
vt 0.000000 0.503560
vt 0.000000 0.495814
vt 0.393427 0.507705
vt 0.000000 0.522517
vt 0.544590 0.515412
vt 0.544590 0.519937
vt 0.000000 0.517993
vt 0.808695 0.482043
vt 0.668264 0.478205
vt 0.808695 0.476727
vt 0.668264 0.483521
vt 0.449377 0.527330
vt 0.299408 0.522517
vt 0.449377 0.523228
vt 0.299408 0.526620
vt 0.000000 0.476727
vt 0.731972 0.473274
vt -0.000000 0.472203
vt 0.731705 0.495814
vt 0.393427 0.505171
vt 0.393427 0.498558
vt 0.731705 0.502426
vt 0.149927 0.522517
vt 0.299408 0.523730
vt 0.299408 0.527369
vt 0.700834 0.525169
vt 0.550468 0.519099
vt 0.700834 0.519808
vt 0.149927 0.526157
vt 0.550468 0.524460
vt 0.808695 0.482268
vt 0.818125 0.481828
vt 0.817949 0.482171
vt 0.828902 0.482158
vt 0.821555 0.482507
vt 0.814264 0.482875
vt 0.826258 0.482772
vt 0.824181 0.483345
vt 0.832007 0.482842
vt 0.835289 0.483473
vt 0.822572 0.483858
vt 0.837375 0.482705
vt 0.840165 0.482428
vt 0.840024 0.482092
vt 0.845177 0.483264
vt 0.838386 0.484056
vt 0.850161 0.482721
vt 0.850187 0.482043
vt 0.851814 0.483772
vt 0.859509 0.483028
vt 0.859604 0.482080
vt 0.866943 0.483275
vt 0.410564 0.506523
vt 0.419409 0.507184
vt 0.410565 0.507418
vt 0.858038 0.484165
vt 0.520893 0.508565
vt 0.530038 0.507517
vt 0.529833 0.508724
vt 0.867363 0.482127
vt 0.520493 0.507581
vt 0.530038 0.506426
vt 0.520302 0.506737
vt 0.844592 0.481434
vt 0.838006 0.480528
vt 0.851797 0.481132
vt 0.834698 0.480965
vt 0.821871 0.480335
vt 0.823590 0.480837
vt 0.410564 0.506865
vt 0.401606 0.507396
vt 0.402680 0.506523
vt 0.837474 0.481758
vt 0.832046 0.481486
vt 0.825962 0.481420
vt 0.813994 0.481041
vt 0.410564 0.507515
vt 0.821650 0.481560
vt 0.808695 0.481588
vt 0.898209 0.518111
vt 0.893228 0.509959
vt 0.920942 0.509881
vt 0.881789 0.518560
vt 0.914485 0.517741
vt 0.949311 0.509943
vt 0.937170 0.522565
vt 0.925689 0.523072
vt 0.949311 0.522187
vt 0.718122 0.519127
vt 0.700834 0.524394
vt 0.700834 0.519099
vt 0.713352 0.524360
vt 0.885419 0.483656
vt 0.874617 0.483085
vt 0.882537 0.483048
vt 0.878231 0.484034
vt 0.915645 0.493727
vt 0.907356 0.492582
vt 0.916305 0.492740
vt 0.893259 0.484126
vt 0.907296 0.493791
vt 0.896762 0.493851
vt 0.889379 0.484639
vt 0.915665 0.494562
vt 0.907530 0.494871
vt 0.896590 0.495017
vt 0.404939 0.506517
vt 0.405080 0.505322
vt 0.415788 0.506523
vt 0.415572 0.505484
vt 0.425374 0.505533
vt 0.393427 0.505171
vt 0.393426 0.506398
vt 0.897216 0.492556
vt 0.885503 0.491369
vt 0.896790 0.491390
vt 0.885929 0.492535
vt 0.874806 0.491381
vt 0.874833 0.492570
vt 0.864906 0.491607
vt 0.906909 0.491606
vt 0.885426 0.493894
vt 0.874735 0.493843
vt 0.864906 0.493814
vt 0.864966 0.492605
vt 0.434313 0.505652
vt 0.426135 0.506442
vt 0.916236 0.491931
vt 0.878903 0.482138
vt 0.893259 0.481822
vt 0.885541 0.482369
vt 0.977870 0.504230
vt 0.971057 0.495786
vt 1.000000 0.496098
vt 0.976918 0.509881
vt 0.989269 0.509775
vt 0.960246 0.504229
vt 0.943805 0.504248
vt 0.943805 0.496045
vt 0.849704 0.478013
vt 0.859992 0.479421
vt 0.849342 0.479259
vt 0.860859 0.478267
vt 0.869842 0.479470
vt 0.838633 0.477796
vt 0.861809 0.477376
vt 0.837541 0.479108
vt 0.851126 0.477030
vt 0.476220 0.505237
vt 0.466135 0.506483
vt 0.466010 0.505392
vt 0.827777 0.480151
vt 0.838741 0.480335
vt 0.826351 0.478897
vt 0.818091 0.479840
vt 0.816504 0.478744
vt 0.826746 0.477650
vt 0.817759 0.477647
vt 0.808695 0.478583
vt 0.828502 0.476727
vt 0.818677 0.476757
vt 0.501649 0.506670
vt 0.520302 0.506426
vt 0.504401 0.507155
vt 0.808695 0.477651
vt 0.520302 0.506929
vt 0.840022 0.476813
vt 0.498190 0.506409
vt 0.486947 0.505171
vt 0.498190 0.505197
vt 0.475804 0.506424
vt 0.486947 0.506383
vt 0.872205 0.477885
vt 0.870197 0.478596
vt 0.899135 0.483969
vt 0.908520 0.485108
vt 0.899096 0.484804
vt 0.491412 0.525348
vt 0.478609 0.525976
vt 0.486506 0.525091
vt 0.491117 0.524480
vt 0.463323 0.526211
vt 0.477321 0.525576
vt 0.449377 0.525960
vt 0.466439 0.525728
vt 0.428079 0.507174
vt 0.419409 0.506574
vt 0.428079 0.506523
vt 0.474107 0.525097
vt 0.456832 0.525556
vt 0.469111 0.525170
vt 0.479520 0.524823
vt 0.471682 0.524519
vt 0.463652 0.525048
vt 0.482055 0.524476
vt 0.490103 0.523813
vt 0.480942 0.524153
vt 0.483644 0.523302
vt 0.478148 0.523894
vt 0.474399 0.523113
vt 0.473587 0.523766
vt 0.463175 0.523281
vt 0.458604 0.522743
vt 0.467691 0.523846
vt 0.454019 0.523765
vt 0.462278 0.524120
vt 0.449377 0.524378
vt 0.460669 0.524461
vt 0.460858 0.524789
vt 0.449809 0.525034
vt 0.899896 0.482982
vt 0.908509 0.482820
vt 0.908363 0.484029
vt 0.908520 0.481822
vt 0.893259 0.483162
vt 0.900242 0.482150
vt 0.497215 0.523460
vt 0.497643 0.524395
vt 0.522516 0.509633
vt 0.530038 0.508885
vt 0.529672 0.509982
vt 0.522516 0.508724
vt 0.488747 0.522751
vt 0.474456 0.522517
vt 0.550468 0.505171
vt 0.550468 0.510824
vt 0.533971 0.505189
vt 0.538291 0.510737
vt 0.943983 0.477308
vt 0.897302 0.481822
vt 0.929573 0.477002
vt 0.930694 0.468750
vt 0.887079 0.481499
vt 0.874617 0.480998
vt 0.904721 0.468866
vt 0.911880 0.476566
vt 0.874617 0.468871
vt 0.435375 0.506525
vt 0.444710 0.505180
vt 0.445845 0.506360
vt 0.455576 0.505171
vt 0.457050 0.506260
vt 0.845999 0.495025
vt 0.855948 0.493806
vt 0.855845 0.494792
vt 0.466010 0.506149
vt 0.393426 0.507652
vt 0.393426 0.506523
vt 0.401606 0.507534
vt 0.466010 0.505254
vt 0.545097 0.514121
vt 0.537814 0.514526
vt 0.529059 0.513818
vt 0.550468 0.511846
vt 0.533160 0.511936
vt 0.545667 0.511309
vt 0.527318 0.511655
vt 0.863856 0.492667
vt 0.855385 0.492599
vt 0.541518 0.512331
vt 0.864906 0.493651
vt 0.527318 0.512889
vt 0.864756 0.494449
vt 0.537138 0.512943
vt 0.537851 0.513600
vt 0.844815 0.491369
vt 0.854664 0.491508
vt 0.542601 0.510824
vt 0.845477 0.492581
vt 0.846085 0.493850
vt 0.834220 0.492555
vt 0.835290 0.493910
vt 0.823099 0.492596
vt 0.824137 0.493890
vt 0.813462 0.492655
vt 0.835738 0.495051
vt 0.814055 0.493862
vt 0.824615 0.495030
vt 0.813462 0.494825
vt 0.434313 0.505316
vt 0.971168 0.484050
vt 0.966354 0.490504
vt 0.943805 0.483844
vt 0.983590 0.490532
vt 0.999511 0.483750
vt 0.969041 0.495766
vt 0.981316 0.495786
vt 0.999511 0.490487
vt 0.498190 0.507222
vt 0.470294 0.506576
vt 0.489069 0.506770
vt 0.498190 0.506483
vt 0.759735 0.492972
vt 0.758029 0.494123
vt 0.750152 0.493205
vt 0.769849 0.492803
vt 0.761258 0.491944
vt 0.475997 0.507029
vt 0.768577 0.494051
vt 0.757722 0.495030
vt 0.768607 0.495054
vt 0.519285 0.506426
vt 0.530038 0.505208
vt 0.529613 0.506374
vt 0.779661 0.493887
vt 0.779256 0.494949
vt 0.791144 0.494664
vt 0.781384 0.492578
vt 0.790664 0.493721
vt 0.792373 0.492414
vt 0.802318 0.494313
vt 0.803896 0.492314
vt 0.802640 0.493405
vt 0.813206 0.492204
vt 0.813462 0.493804
vt 0.813462 0.493083
vt 0.518692 0.505251
vt 0.508013 0.505200
vt 0.508202 0.506398
vt 0.498190 0.505171
vt 0.498190 0.506250
vt 0.784149 0.491369
vt 0.772484 0.491623
s 1
usemtl Meshpart1Mtl.005
f 1/1/1 2/2/1 3/3/1
f 3/3/1 2/2/1 4/4/1
f 4/4/1 2/2/1 5/5/2
f 2/2/1 1/1/1 6/6/1
f 7/7/1 2/2/1 6/6/1
f 2/2/1 7/7/1 8/8/3
f 11/9/4 10/10/5 9/11/5
f 10/10/5 11/9/4 12/12/4
f 13/13/6 12/14/4 11/15/4
f 12/14/4 13/13/6 14/16/7
f 17/17/4 16/18/8 15/19/8
f 17/17/4 18/20/4 16/18/8
f 19/21/9 18/22/4 17/23/4
f 19/21/9 20/24/9 18/22/4
f 21/25/10 22/26/11 23/27/12
f 21/25/10 23/27/12 24/28/12
f 24/29/12 23/30/12 25/31/8
f 24/29/12 25/31/8 26/32/13
f 27/33/14 28/34/14 29/35/13
f 30/36/15 28/37/14 27/38/14
f 27/33/14 29/35/13 31/39/16
f 30/36/15 32/40/17 28/37/14
f 33/41/18 34/42/19 35/43/19
f 34/42/19 33/41/18 36/44/20
f 34/42/19 37/45/19 35/43/19
f 37/45/19 34/42/19 38/46/19
f 37/45/19 39/47/19 35/43/19
f 39/47/19 37/45/19 40/48/21
f 41/49/19 42/50/19 43/51/19
f 43/51/19 42/50/19 44/52/19
f 45/53/19 42/50/19 41/49/19
f 42/50/19 45/53/19 46/54/19
f 47/55/19 42/50/19 46/54/19
f 42/50/19 47/55/19 48/56/19
f 51/57/22 50/58/10 49/59/10
f 51/57/22 52/60/22 50/58/10
f 53/61/23 52/62/22 51/63/22
f 53/61/23 54/64/24 52/62/22
f 57/65/22 56/66/25 55/67/25
f 57/65/22 58/68/22 56/66/25
f 59/69/26 58/70/22 57/71/22
f 59/69/26 60/72/26 58/70/22
f 63/73/27 62/22/28 61/74/29
f 63/73/27 64/75/27 62/22/28
f 66/76/7 64/77/27 63/78/27
f 66/76/7 65/79/6 64/77/27
f 69/80/7 67/81/30 71/82/31
f 72/83/31 70/84/32 68/85/33
f 69/80/7 71/82/31 72/86/31
f 72/83/31 71/87/31 70/84/32
f 73/88/34 74/89/35 75/90/36
f 74/89/35 76/91/37 75/90/36
f 77/92/38 73/88/34 75/90/36
f 75/90/36 76/91/37 77/92/38
f 73/88/34 77/92/38 78/93/39
f 79/94/40 78/93/39 77/92/38
f 77/92/38 76/91/37 79/94/40
f 78/93/39 79/94/40 80/95/41
f 80/95/41 79/94/40 82/96/42
f 79/94/40 76/91/37 82/96/42
f 83/97/43 80/95/41 82/96/42
f 80/95/41 83/97/43 81/98/44
f 82/96/42 76/91/37 84/99/45
f 83/97/43 82/96/42 84/99/45
f 84/99/45 76/91/37 85/100/46
f 85/100/46 76/91/37 86/101/47
f 84/99/45 87/102/48 83/97/43
f 85/100/46 87/102/48 84/99/45
f 88/103/49 81/98/44 83/97/43
f 88/103/49 83/97/43 87/102/48
f 86/101/47 89/104/50 85/100/46
f 87/102/48 85/100/46 89/104/50
f 89/104/50 86/101/47 90/105/51
f 91/106/52 88/103/49 87/102/48
f 89/104/50 91/106/52 87/102/48
f 90/105/51 92/107/53 89/104/50
f 91/106/52 89/104/50 92/107/53
f 92/107/53 90/105/51 93/108/54
f 93/108/54 94/109/55 92/107/53
f 92/110/53 95/111/56 91/112/52
f 95/113/56 92/107/53 94/109/55
f 93/114/54 98/115/57 99/116/58
f 94/109/55 93/108/54 99/117/58
f 98/115/57 93/114/54 100/118/59
f 100/118/59 97/119/60 98/115/57
f 97/119/60 100/118/59 101/120/61
f 103/121/62 101/122/61 100/123/59
f 104/124/63 102/125/64 101/122/61
f 101/122/61 103/121/62 104/124/63
f 102/125/64 104/124/63 105/126/65
f 105/127/65 96/128/66 102/129/64
f 106/130/67 104/124/63 103/121/62
f 107/131/68 105/126/65 104/124/63
f 104/124/63 106/130/67 107/131/68
f 100/123/59 90/105/51 103/121/62
f 90/105/51 100/123/59 93/108/54
f 103/121/62 86/101/47 106/130/67
f 86/101/47 103/121/62 90/105/51
f 106/130/67 76/91/37 107/131/68
f 86/101/47 76/91/37 106/130/67
f 105/126/65 107/131/68 108/132/69
f 107/131/68 76/91/37 108/132/69
f 108/132/69 109/133/70 105/126/65
f 96/128/66 105/127/65 109/134/70
f 109/133/70 108/132/69 110/135/71
f 108/132/69 76/91/37 110/135/71
f 110/135/71 111/136/72 109/133/70
f 111/136/72 110/135/71 74/89/35
f 110/135/71 76/91/37 74/89/35
f 74/89/35 73/88/34 111/136/72
f 112/137/73 113/138/74 114/139/75
f 113/138/74 112/137/73 115/140/76
f 114/139/75 116/141/77 112/137/73
f 116/141/77 114/139/75 117/142/78
f 116/141/77 118/143/79 112/137/73
f 118/143/79 115/140/76 112/137/73
f 115/140/76 118/143/79 119/144/80
f 118/143/79 116/141/77 120/145/81
f 121/146/82 120/147/81 116/148/77
f 120/147/81 121/146/82 122/149/83
f 124/150/84 125/151/85 123/152/86
f 125/151/85 124/150/84 126/153/87
f 126/154/87 127/155/88 125/156/85
f 128/157/89 126/153/87 124/150/84
f 127/155/88 126/154/87 129/158/90
f 130/159/91 127/155/88 129/158/90
f 126/153/87 128/157/89 131/160/92
f 131/161/92 129/158/90 126/154/87
f 129/158/90 131/161/92 132/162/93
f 133/163/94 129/158/90 132/162/93
f 129/158/90 133/163/94 130/159/91
f 134/164/95 135/165/96 136/166/97
f 135/165/96 137/167/98 136/166/97
f 138/168/99 136/166/97 137/167/98
f 139/169/100 135/165/96 134/164/95
f 140/170/101 139/169/100 134/164/95
f 142/171/102 140/172/101 134/173/95
f 143/174/103 141/175/104 140/172/101
f 143/174/103 140/172/101 142/171/102
f 145/176/105 141/175/104 143/174/103
f 145/176/105 144/177/106 141/175/104
f 142/171/102 134/173/95 127/155/88
f 127/155/88 134/173/95 136/178/97
f 142/171/102 146/179/107 143/174/103
f 143/174/103 147/180/108 145/176/105
f 147/180/108 143/174/103 146/179/107
f 146/179/107 142/171/102 130/159/91
f 127/155/88 130/159/91 142/171/102
f 148/181/109 145/176/105 147/180/108
f 145/176/105 148/181/109 149/182/110
f 149/182/110 144/177/106 145/176/105
f 150/183/111 151/184/112 138/168/99
f 136/166/97 138/168/99 151/184/112
f 151/185/112 127/155/88 136/178/97
f 151/186/112 150/187/111 152/188/113
f 127/155/88 151/185/112 125/156/85
f 152/188/113 125/151/85 151/186/112
f 125/151/85 152/188/113 123/152/86
f 154/189/114 155/190/115 153/191/116
f 157/192/117 154/189/114 156/193/118
f 154/189/114 157/192/117 158/194/119
f 155/190/115 154/189/114 158/194/119
f 159/195/120 155/190/115 158/194/119
f 155/190/115 159/195/120 160/196/121
f 165/197/122 163/198/123 162/199/124
f 166/200/125 164/201/126 163/198/123
f 163/198/123 165/197/122 166/200/125
f 162/199/124 167/202/127 165/197/122
f 165/197/122 168/203/128 166/200/125
f 167/202/127 162/199/124 169/204/129
f 167/202/127 170/205/130 165/197/122
f 168/203/128 165/197/122 170/205/130
f 170/206/130 172/207/131 168/208/128
f 173/209/132 169/204/129 171/210/133
f 169/204/129 173/209/132 174/211/134
f 174/211/134 167/202/127 169/204/129
f 175/212/135 174/211/134 173/209/132
f 174/211/134 175/212/135 176/213/136
f 176/213/136 177/214/137 174/211/134
f 167/202/127 174/211/134 177/214/137
f 177/214/137 176/213/136 179/215/138
f 178/216/139 179/215/138 176/213/136
f 180/217/140 167/202/127 177/214/137
f 181/218/141 177/214/137 179/215/138
f 177/214/137 181/218/141 180/217/140
f 181/219/141 179/220/138 161/221/142
f 179/215/138 178/216/139 182/222/143
f 161/221/142 179/220/138 182/223/143
f 167/202/127 180/217/140 183/224/144
f 170/205/130 167/202/127 183/224/144
f 184/225/145 183/226/144 180/227/140
f 183/226/144 185/228/146 170/206/130
f 183/226/144 184/225/145 186/229/147
f 185/228/146 183/226/144 186/229/147
f 172/207/131 170/206/130 185/228/146
f 187/230/148 166/200/125 168/203/128
f 166/200/125 187/230/148 188/231/149
f 164/201/126 166/200/125 188/231/149
f 192/232/150 189/233/151 191/234/152
f 192/235/150 191/236/152 194/237/153
f 194/237/153 195/238/154 192/235/150
f 191/236/152 193/239/155 196/240/156
f 194/237/153 191/236/152 196/240/156
f 190/241/157 197/242/158 193/239/155
f 196/240/156 193/239/155 197/242/158
f 197/243/158 190/244/157 198/245/159
f 196/240/156 197/242/158 199/246/160
f 198/247/159 200/248/161 197/242/158
f 199/246/160 197/242/158 200/248/161
f 201/249/162 196/240/156 199/246/160
f 201/249/162 194/237/153 196/240/156
f 202/250/163 199/246/160 200/248/161
f 202/250/163 201/249/162 199/246/160
f 200/248/161 198/247/159 203/251/164
f 202/250/163 200/248/161 203/251/164
f 194/237/153 201/249/162 204/252/165
f 204/252/165 195/238/154 194/237/153
f 202/250/163 204/252/165 201/249/162
f 204/252/165 205/253/166 195/238/154
f 205/253/166 204/252/165 206/254/167
f 202/250/163 206/254/167 204/252/165
f 206/254/167 207/255/168 205/253/166
f 207/255/168 206/254/167 208/256/169
f 202/250/163 208/256/169 206/254/167
f 208/256/169 209/257/170 207/255/168
f 209/257/170 208/256/169 210/258/171
f 202/250/163 210/258/171 208/256/169
f 210/258/171 211/259/172 209/257/170
f 212/260/173 209/257/170 211/259/172
f 211/259/172 210/258/171 213/261/174
f 202/250/163 213/261/174 210/258/171
f 213/261/174 214/262/175 211/259/172
f 214/262/175 213/261/174 215/263/176
f 202/250/163 215/263/176 213/261/174
f 215/263/176 216/264/177 214/262/175
f 202/250/163 217/265/178 215/263/176
f 216/264/177 215/263/176 217/265/178
f 202/250/163 218/266/179 217/265/178
f 218/266/179 216/264/177 217/265/178
f 202/250/163 203/251/164 218/266/179
f 219/267/180 216/264/177 218/266/179
f 219/267/180 218/266/179 203/251/164
f 203/251/164 198/247/159 219/267/180
f 223/268/181 222/269/182 221/270/183
f 223/268/181 220/271/184 222/269/182
f 192/232/150 223/268/181 221/270/183
f 221/270/183 189/233/151 192/232/150
f 195/272/154 223/268/181 192/232/150
f 220/271/184 223/268/181 224/273/185
f 195/238/154 224/274/185 223/275/181
f 224/276/185 225/277/186 220/278/184
f 224/274/185 195/238/154 205/253/166
f 225/277/186 224/276/185 226/279/187
f 205/253/166 226/280/187 224/274/185
f 207/255/168 227/281/188 226/280/187
f 226/280/187 205/253/166 207/255/168
f 227/281/188 207/255/168 209/257/170
f 209/257/170 212/260/173 227/281/188
f 231/282/189 228/283/190 232/284/191
f 233/285/192 232/284/191 228/283/190
f 232/286/191 233/287/192 235/288/193
f 235/288/193 234/289/194 232/286/191
f 236/290/195 235/288/193 233/287/192
f 230/291/196 235/288/193 236/290/195
f 234/289/194 235/288/193 237/292/197
f 235/288/193 230/291/196 238/293/198
f 238/293/198 237/292/197 235/288/193
f 237/292/197 238/293/198 229/294/199
f 240/295/200 242/296/201 241/297/202
f 243/298/203 241/297/202 242/296/201
f 241/297/202 243/298/203 244/299/204
f 242/300/201 245/301/205 243/302/203
f 244/299/204 243/298/203 246/303/206
f 243/304/203 245/305/205 247/306/207
f 246/303/206 243/298/203 247/307/207
f 248/308/208 246/309/206 247/310/207
f 249/311/209 251/312/210 250/313/211
f 252/314/212 250/313/211 251/312/210
f 251/315/210 245/301/205 252/316/212
f 251/312/210 249/311/209 253/317/213
f 245/301/205 251/315/210 254/318/214
f 253/317/213 254/319/214 251/312/210
f 247/320/207 245/301/205 254/318/214
f 254/319/214 253/317/213 255/321/215
f 256/322/216 254/319/214 255/321/215
f 247/310/207 254/319/214 256/322/216
f 256/322/216 248/308/208 247/310/207
f 252/316/212 258/323/217 259/324/218
f 250/313/211 252/314/212 259/325/218
f 258/323/217 252/316/212 260/326/219
f 263/327/220 262/328/221 260/326/219
f 245/301/205 260/326/219 252/316/212
f 263/327/220 260/326/219 245/301/205
f 264/329/222 261/330/223 262/328/221
f 264/329/222 262/328/221 263/327/220
f 265/331/224 261/330/223 264/329/222
f 265/331/224 257/332/225 261/330/223
f 263/327/220 266/333/226 264/329/222
f 267/334/227 257/332/225 265/331/224
f 266/333/226 263/327/220 242/300/201
f 245/301/205 242/300/201 263/327/220
f 268/335/228 264/329/222 266/333/226
f 264/329/222 268/335/228 265/331/224
f 265/331/224 239/336/229 267/334/227
f 239/336/229 265/331/224 268/335/228
f 242/296/201 240/295/200 266/337/226
f 271/338/230 269/339/231 270/340/232
f 269/339/231 271/338/230 272/341/233
f 274/342/234 272/341/233 271/338/230
f 273/343/235 272/341/233 275/344/236
f 276/345/237 275/344/236 272/341/233
f 272/341/233 274/342/234 276/345/237
f 281/346/238 278/347/239 279/348/240
f 279/348/240 280/349/241 281/346/238
f 283/350/242 281/351/238 280/352/241
f 284/353/243 283/350/242 282/354/244
f 278/347/239 281/346/238 285/355/245
f 281/351/238 283/350/242 286/356/246
f 284/353/243 286/356/246 283/350/242
f 286/356/246 285/357/245 281/351/238
f 285/357/245 286/356/246 287/358/247
f 288/359/248 277/360/249 287/361/247
f 289/362/250 287/358/247 286/356/246
f 287/358/247 289/362/250 288/363/248
f 286/356/246 284/353/243 289/362/250
f 288/363/248 289/362/250 290/364/251
f 291/365/252 289/362/250 284/353/243
f 292/366/253 290/364/251 289/362/250
f 293/367/254 289/362/250 291/365/252
f 289/362/250 293/367/254 292/366/253
f 290/364/251 292/366/253 294/368/255
f 295/369/256 292/366/253 293/367/254
f 292/366/253 295/369/256 296/370/257
f 296/370/257 294/368/255 292/366/253
f 297/371/258 296/370/257 295/369/256
f 294/368/255 296/370/257 298/372/259
f 296/370/257 297/371/258 299/373/260
f 299/373/260 298/372/259 296/370/257
f 300/374/261 288/359/248 301/375/262
f 277/360/249 288/359/248 300/374/261
f 290/376/251 301/375/262 288/359/248
f 302/377/263 301/375/262 290/376/251
f 294/378/255 302/377/263 290/376/251
f 303/379/264 291/365/252 304/380/265
f 304/380/265 284/353/243 282/354/244
f 291/365/252 284/353/243 304/380/265
