# Blender 5.2.2 LTS
# www.blender.org
mtllib mag eyething.mtl
o eyethging_mag
v -0.034180 -0.139261 0.127472 0.9996 0.0000 0.0000
v -0.051178 -0.109263 0.127472 0.9996 0.0000 0.0000
v -0.057190 -0.146280 0.134476 0.9996 0.0000 0.0000
v -0.071167 -0.101267 0.127472 0.9996 0.0000 0.0000
v -0.031189 -0.172281 0.127472 0.9996 0.0000 0.0000
v -0.083191 -0.119272 0.127472 0.9996 0.0000 0.0000
v -0.044189 -0.190256 0.127472 0.9996 0.0000 0.0000
v -0.081177 -0.153269 0.127472 0.9996 0.0000 0.0000
v -0.064178 -0.182261 0.127472 0.9996 0.0000 0.0000
v 0.044830 -0.001261 0.125473 0.9996 0.0000 0.0000
v 0.042816 0.026724 0.125473 0.9996 0.0000 0.0000
v 0.023834 0.001730 0.132477 0.9996 0.0000 0.0000
v 0.030823 0.040731 0.125473 0.9996 0.0000 0.0000
v 0.033813 -0.028269 0.125473 0.9996 0.0000 0.0000
v 0.014832 0.031729 0.125473 0.9996 0.0000 0.0000
v 0.017822 -0.037272 0.125473 0.9996 0.0000 0.0000
v 0.003815 0.005728 0.125473 0.9996 0.0000 0.0000
v 0.004822 -0.023264 0.125473 0.9996 0.0000 0.0000
v 0.039825 0.039724 -0.123520 0.9996 0.0000 0.0000
v 0.029816 0.029745 -0.123520 0.9996 0.0000 0.0000
v 0.051819 0.032736 -0.123520 0.9996 0.0000 0.0000
v 0.058807 0.012716 -0.123520 0.9996 0.0000 0.0000
v 0.027832 0.007742 -0.123520 0.9996 0.0000 0.0000
v 0.057831 -0.009257 -0.123520 0.9996 0.0000 0.0000
v 0.035828 -0.012278 -0.123520 0.9996 0.0000 0.0000
v 0.047821 -0.019266 -0.123520 0.9996 0.0000 0.0000
v -0.008179 -0.087260 -0.131531 0.9996 0.0000 0.0000
v -0.027191 -0.116282 -0.131531 0.9996 0.0000 0.0000
v 0.019836 -0.134257 -0.131531 0.9996 0.0000 0.0000
v 0.024811 -0.099283 -0.131531 0.9996 0.0000 0.0000
v 0.013824 -0.080271 -0.131531 0.9996 0.0000 0.0000
v 0.000824 -0.163279 -0.131531 0.9996 0.0000 0.0000
v -0.032166 -0.151285 -0.131531 0.9996 0.0000 0.0000
v -0.021179 -0.170267 -0.131531 0.9996 0.0000 0.0000
v -0.027191 -0.116282 -0.131531 0.9996 0.0000 0.0000
v -0.008179 -0.087260 -0.131531 0.9996 0.0000 0.0000
v -0.004181 -0.125284 -0.139526 0.9996 0.0000 0.0000
v 0.013824 -0.080271 -0.131531 0.9996 0.0000 0.0000
v -0.032166 -0.151285 -0.131531 0.9996 0.0000 0.0000
v 0.024811 -0.099283 -0.131531 0.9996 0.0000 0.0000
v -0.021179 -0.170267 -0.131531 0.9996 0.0000 0.0000
v 0.019836 -0.134257 -0.131531 0.9996 0.0000 0.0000
v 0.000824 -0.163279 -0.131531 0.9996 0.0000 0.0000
v 0.027832 0.007742 -0.123520 0.9996 0.0000 0.0000
v 0.029816 0.029745 -0.123520 0.9996 0.0000 0.0000
v 0.043823 0.010732 -0.128525 0.9996 0.0000 0.0000
v 0.039825 0.039724 -0.123520 0.9996 0.0000 0.0000
v 0.035828 -0.012278 -0.123520 0.9996 0.0000 0.0000
v 0.051819 0.032736 -0.123520 0.9996 0.0000 0.0000
v 0.047821 -0.019266 -0.123520 0.9996 0.0000 0.0000
v 0.058807 0.012716 -0.123520 0.9996 0.0000 0.0000
v 0.057831 -0.009257 -0.123520 0.9996 0.0000 0.0000
v 0.004822 -0.023264 0.125473 0.9996 0.0000 0.0000
v 0.033813 -0.028269 0.125473 0.9996 0.0000 0.0000
v 0.017822 -0.037272 0.125473 0.9996 0.0000 0.0000
v 0.044830 -0.001261 0.125473 0.9996 0.0000 0.0000
v 0.003815 0.005728 0.125473 0.9996 0.0000 0.0000
v 0.042816 0.026724 0.125473 0.9996 0.0000 0.0000
v 0.014832 0.031729 0.125473 0.9996 0.0000 0.0000
v 0.030823 0.040731 0.125473 0.9996 0.0000 0.0000
v -0.064178 -0.182261 0.127472 0.9996 0.0000 0.0000
v -0.034180 -0.139261 0.127472 0.9996 0.0000 0.0000
v -0.031189 -0.172281 0.127472 0.9996 0.0000 0.0000
v -0.044189 -0.190256 0.127472 0.9996 0.0000 0.0000
v -0.081177 -0.153269 0.127472 0.9996 0.0000 0.0000
v -0.051178 -0.109263 0.127472 0.9996 0.0000 0.0000
v -0.083191 -0.119272 0.127472 0.9996 0.0000 0.0000
v -0.071167 -0.101267 0.127472 0.9996 0.0000 0.0000
v -0.008179 -0.169260 0.125473 0.8869 0.8869 0.8869
v -0.029175 -0.099283 0.125473 0.8869 0.8869 0.8869
v -0.042175 -0.195261 0.125473 0.8869 0.8869 0.8869
v -0.002167 -0.129282 0.125473 0.8869 0.8869 0.8869
v -0.072174 -0.096262 0.125473 0.8869 0.8869 0.8869
v -0.086182 -0.193278 0.125473 0.8869 0.8869 0.8869
v -0.107178 -0.122263 0.125473 0.8869 0.8869 0.8869
v -0.113190 -0.162272 0.125473 0.8869 0.8869 0.8869
v 0.031830 0.044729 0.121475 0.8869 0.8869 0.8869
v -0.015167 -0.023264 0.121475 0.8869 0.8869 0.8869
v 0.016815 -0.041270 0.121475 0.8869 0.8869 0.8869
v -0.004181 0.038717 0.121475 0.8869 0.8869 0.8869
v -0.024170 0.009725 0.121475 0.8869 0.8869 0.8869
v 0.063812 0.026724 0.121475 0.8869 0.8869 0.8869
v 0.052826 -0.034281 0.121475 0.8869 0.8869 0.8869
v 0.072815 -0.006266 0.121475 0.8869 0.8869 0.8869
v 0.015808 -0.075266 -0.129532 0.8869 0.8869 0.8869
v 0.022827 -0.176279 -0.129532 0.8869 0.8869 0.8869
v -0.023163 -0.175272 -0.129532 0.8869 0.8869 0.8869
v 0.049835 -0.105265 -0.129532 0.8869 0.8869 0.8869
v 0.051819 -0.146281 -0.129532 0.8869 0.8869 0.8869
v -0.030182 -0.075266 -0.129532 0.8869 0.8869 0.8869
v -0.056183 -0.146281 -0.129532 0.8869 0.8869 0.8869
v -0.059174 -0.104258 -0.129532 0.8869 0.8869 0.8869
v 0.072815 -0.009257 -0.120529 0.8869 0.8869 0.8869
v 0.038818 0.043722 -0.120529 0.8869 0.8869 0.8869
v 0.065826 0.037740 -0.120529 0.8869 0.8869 0.8869
v 0.079834 0.015737 -0.120529 0.8869 0.8869 0.8869
v 0.047821 -0.022257 -0.120529 0.8869 0.8869 0.8869
v 0.014832 0.029745 -0.120529 0.8869 0.8869 0.8869
v 0.020813 -0.016276 -0.120529 0.8869 0.8869 0.8869
v 0.006836 0.004720 -0.120529 0.8869 0.8869 0.8869
v 0.025818 -0.047282 -0.098526 0.0667 0.0667 0.0667
v -0.030182 -0.075266 -0.129532 0.0667 0.0667 0.0667
v 0.015808 -0.075266 -0.129532 0.0667 0.0667 0.0667
v -0.081177 -0.069285 0.096481 0.0667 0.0667 0.0667
v -0.029175 -0.099283 0.125473 0.0667 0.0667 0.0667
v -0.073181 -0.096262 0.125473 0.0667 0.0667 0.0667
v 0.035828 0.068716 0.096481 0.0667 0.0667 0.0667
v 0.031830 0.045736 0.121475 0.0667 0.0667 0.0667
v -0.005188 0.038717 0.121475 0.0667 0.0667 0.0667
v 0.035828 0.061727 -0.100525 0.0667 0.0667 0.0667
v 0.038818 0.043722 -0.120529 0.0667 0.0667 0.0667
v 0.065826 0.037740 -0.120529 0.0667 0.0667 0.0667
v -0.081177 -0.069285 0.096481 0.0667 0.0667 0.0667
v -0.029175 -0.099283 0.125473 0.0667 0.0667 0.0667
v 0.026825 -0.061259 0.096481 0.0667 0.0667 0.0667
v -0.073181 -0.096262 0.125473 0.0667 0.0667 0.0667
v -0.002167 -0.129282 0.125473 0.0667 0.0667 0.0667
v -0.107178 -0.122263 0.125473 0.0667 0.0667 0.0667
v 0.084808 -0.102274 0.096481 0.0667 0.0667 0.0667
v -0.175171 -0.122263 0.096481 0.0667 0.0667 0.0667
v 0.059814 -0.169260 0.096481 0.0667 0.0667 0.0667
v -0.113190 -0.162272 0.125473 0.0667 0.0667 0.0667
v -0.008179 -0.169260 0.125473 0.0667 0.0667 0.0667
v -0.200165 -0.189280 0.096481 0.0667 0.0667 0.0667
v -0.034180 -0.223276 0.096481 0.0667 0.0667 0.0667
v -0.142181 -0.231272 0.096481 0.0667 0.0667 0.0667
v -0.042175 -0.195261 0.125473 0.0667 0.0667 0.0667
v -0.086182 -0.193278 0.125473 0.0667 0.0667 0.0667
v 0.063812 0.026724 0.121475 0.0667 0.0667 0.0667
v 0.035828 0.068716 0.096481 0.0667 0.0667 0.0667
v 0.031830 0.045736 0.121475 0.0667 0.0667 0.0667
v -0.005188 0.038717 0.121475 0.0667 0.0667 0.0667
v 0.120819 0.033743 0.096481 0.0667 0.0667 0.0667
v -0.056183 0.064718 0.096481 0.0667 0.0667 0.0667
v 0.072815 -0.006266 0.121475 0.0667 0.0667 0.0667
v -0.024170 0.009725 0.121475 0.0667 0.0667 0.0667
v 0.148834 -0.019266 0.096481 0.0667 0.0667 0.0667
v -0.100189 0.023733 0.096481 0.0667 0.0667 0.0667
v 0.103821 -0.061259 0.096481 0.0667 0.0667 0.0667
v -0.072174 -0.030283 0.096481 0.0667 0.0667 0.0667
v 0.052826 -0.034281 0.121475 0.0667 0.0667 0.0667
v -0.015167 -0.023264 0.121475 0.0667 0.0667 0.0667
v 0.012817 -0.065256 0.096481 0.0667 0.0667 0.0667
v 0.016815 -0.041270 0.121475 0.0667 0.0667 0.0667
v -0.033173 -0.203257 -0.098526 0.0667 0.0667 0.0667
v -0.023163 -0.175272 -0.129532 0.0667 0.0667 0.0667
v 0.022827 -0.176279 -0.129532 0.0667 0.0667 0.0667
v -0.034180 -0.223276 0.096481 0.0667 0.0667 0.0667
v -0.042175 -0.195261 0.125473 0.0667 0.0667 0.0667
v -0.086182 -0.193278 0.125473 0.0667 0.0667 0.0667
v 0.052826 -0.034281 0.121475 0.0667 0.0667 0.0667
v 0.012817 -0.065256 0.096481 0.0667 0.0667 0.0667
v 0.016815 -0.041270 0.121475 0.0667 0.0667 0.0667
v 0.020813 -0.016276 -0.120529 0.0667 0.0667 0.0667
v 0.050812 -0.041270 -0.100525 0.0667 0.0667 0.0667
v 0.047821 -0.022257 -0.120529 0.0667 0.0667 0.0667
v -0.085175 -0.031260 -0.098526 0.0667 0.0667 0.0667
v 0.025818 -0.047282 -0.098526 0.0667 0.0667 0.0667
v -0.030182 -0.075266 -0.129532 0.0667 0.0667 0.0667
v 0.015808 -0.075266 -0.129532 0.0667 0.0667 0.0667
v -0.059174 -0.104258 -0.129532 0.0667 0.0667 0.0667
v 0.048828 -0.105265 -0.129532 0.0667 0.0667 0.0667
v -0.148163 -0.070261 -0.098526 0.0667 0.0667 0.0667
v 0.118835 -0.109263 -0.098526 0.0667 0.0667 0.0667
v -0.126190 -0.141276 -0.098526 0.0667 0.0667 0.0667
v 0.051819 -0.146281 -0.129532 0.0667 0.0667 0.0667
v -0.057190 -0.146281 -0.129532 0.0667 0.0667 0.0667
v 0.140808 -0.180277 -0.098526 0.0667 0.0667 0.0667
v -0.033173 -0.203257 -0.098526 0.0667 0.0667 0.0667
v 0.077820 -0.219279 -0.098526 0.0667 0.0667 0.0667
v -0.023163 -0.175272 -0.129532 0.0667 0.0667 0.0667
v 0.022827 -0.176279 -0.129532 0.0667 0.0667 0.0667
v -0.028168 0.036733 -0.100525 0.0667 0.0667 0.0667
v 0.035828 0.061727 -0.100525 0.0667 0.0667 0.0667
v 0.013824 0.029745 -0.120529 0.0667 0.0667 0.0667
v 0.038818 0.043722 -0.120529 0.0667 0.0667 0.0667
v 0.006836 0.004720 -0.120529 0.0667 0.0667 0.0667
v 0.065826 0.037740 -0.120529 0.0667 0.0667 0.0667
v -0.051178 -0.003275 -0.100525 0.0667 0.0667 0.0667
v 0.105835 0.055715 -0.100525 0.0667 0.0667 0.0667
v -0.018188 -0.035258 -0.100525 0.0667 0.0667 0.0667
v 0.079834 0.015737 -0.120529 0.0667 0.0667 0.0667
v 0.020813 -0.016276 -0.120529 0.0667 0.0667 0.0667
v 0.137817 0.023733 -0.100525 0.0667 0.0667 0.0667
v 0.050812 -0.041270 -0.100525 0.0667 0.0667 0.0667
v 0.115814 -0.016276 -0.100525 0.0667 0.0667 0.0667
v 0.047821 -0.022257 -0.120529 0.0667 0.0667 0.0667
v 0.072815 -0.009257 -0.120529 0.0667 0.0667 0.0667
v 0.182831 0.306722 0.103470 0.0667 0.0667 0.0667
v 0.182831 -0.136271 -0.104523 0.0667 0.0667 0.0667
v 0.182831 0.306722 -0.104523 0.0667 0.0667 0.0667
v 0.182831 -0.136271 0.103470 0.0667 0.0667 0.0667
v 0.230835 -0.180277 0.103470 0.0667 0.0667 0.0667
v 0.230835 -0.180277 -0.104523 0.0667 0.0667 0.0667
v 0.230835 -0.245280 0.103470 0.0667 0.0667 0.0667
v 0.230835 -0.245280 -0.104523 0.0667 0.0667 0.0667
v 0.182831 0.306722 0.103470 0.0667 0.0667 0.0667
v 0.182831 -0.136271 -0.104523 0.0667 0.0667 0.0667
v 0.182831 0.306722 -0.104523 0.0667 0.0667 0.0667
v 0.182831 -0.136271 0.103470 0.0667 0.0667 0.0667
v -0.181183 0.306722 0.103470 0.0667 0.0667 0.0667
v 0.230835 -0.180277 0.103470 0.0667 0.0667 0.0667
v -0.181183 0.306722 -0.104523 0.0667 0.0667 0.0667
v 0.230835 -0.180277 -0.104523 0.0667 0.0667 0.0667
v -0.181183 -0.136271 0.103470 0.0667 0.0667 0.0667
v -0.181183 -0.136271 -0.104523 0.0667 0.0667 0.0667
v -0.228180 -0.180277 -0.104523 0.0667 0.0667 0.0667
v -0.228180 -0.180277 0.103470 0.0667 0.0667 0.0667
v -0.228180 -0.245280 0.103470 0.0667 0.0667 0.0667
v 0.230835 -0.245280 0.103470 0.0667 0.0667 0.0667
v 0.182831 -0.136271 0.103470 0.0667 0.0667 0.0667
v 0.230835 -0.180277 0.103470 0.0667 0.0667 0.0667
v -0.181183 -0.136271 0.103470 0.0667 0.0667 0.0667
v -0.228180 -0.180277 0.103470 0.0667 0.0667 0.0667
v -0.181183 0.306722 0.103470 0.0667 0.0667 0.0667
v 0.182831 0.306722 0.103470 0.0667 0.0667 0.0667
v -0.181183 0.306722 0.103470 0.0667 0.0667 0.0667
v -0.181183 0.306722 -0.104523 0.0667 0.0667 0.0667
v -0.181183 -0.136271 0.103470 0.0667 0.0667 0.0667
v -0.181183 -0.136271 -0.104523 0.0667 0.0667 0.0667
v -0.228180 -0.180277 -0.104523 0.0667 0.0667 0.0667
v -0.228180 -0.180277 0.103470 0.0667 0.0667 0.0667
v -0.228180 -0.245280 -0.104523 0.0667 0.0667 0.0667
v -0.228180 -0.245280 0.103470 0.0667 0.0667 0.0667
v -0.228180 -0.245280 -0.104523 0.0667 0.0667 0.0667
v 0.230835 -0.245280 -0.104523 0.0667 0.0667 0.0667
v 0.230835 -0.245280 0.103470 0.0667 0.0667 0.0667
v -0.228180 -0.245280 0.103470 0.0667 0.0667 0.0667
v 0.182831 0.306722 -0.104523 0.0667 0.0667 0.0667
v -0.181183 -0.136271 -0.104523 0.0667 0.0667 0.0667
v -0.181183 0.306722 -0.104523 0.0667 0.0667 0.0667
v 0.182831 -0.136271 -0.104523 0.0667 0.0667 0.0667
v 0.230835 -0.245280 -0.104523 0.0667 0.0667 0.0667
v 0.230835 -0.180277 -0.104523 0.0667 0.0667 0.0667
v -0.228180 -0.245280 -0.104523 0.0667 0.0667 0.0667
v -0.228180 -0.180277 -0.104523 0.0667 0.0667 0.0667
v -0.045685 -0.142771 0.130974 0.9996 0.0000 0.0000
v -0.042679 -0.124262 0.127472 0.9996 0.0000 0.0000
v -0.054184 -0.127772 0.130974 0.9996 0.0000 0.0000
v -0.061172 -0.105265 0.127472 0.9996 0.0000 0.0000
v -0.064178 -0.123774 0.130974 0.9996 0.0000 0.0000
v -0.044189 -0.159281 0.130974 0.9996 0.0000 0.0000
v -0.032684 -0.155771 0.127472 0.9996 0.0000 0.0000
v -0.077179 -0.110270 0.127472 0.9996 0.0000 0.0000
v -0.070190 -0.132776 0.130974 0.9996 0.0000 0.0000
v -0.050690 -0.168268 0.130974 0.9996 0.0000 0.0000
v -0.037689 -0.181269 0.127472 0.9996 0.0000 0.0000
v -0.082184 -0.136271 0.127472 0.9996 0.0000 0.0000
v -0.069183 -0.149775 0.130974 0.9996 0.0000 0.0000
v -0.060684 -0.164271 0.130974 0.9996 0.0000 0.0000
v -0.054184 -0.186259 0.127472 0.9996 0.0000 0.0000
v -0.072678 -0.167765 0.127472 0.9996 0.0000 0.0000
v 0.034332 0.000234 0.128975 0.9996 0.0000 0.0000
v 0.043823 0.012731 0.125473 0.9996 0.0000 0.0000
v 0.033325 0.014227 0.128975 0.9996 0.0000 0.0000
v 0.036819 0.033727 0.125473 0.9996 0.0000 0.0000
v 0.027328 0.021230 0.128975 0.9996 0.0000 0.0000
v 0.028824 -0.013270 0.128975 0.9996 0.0000 0.0000
v 0.039322 -0.014765 0.125473 0.9996 0.0000 0.0000
v 0.022827 0.036230 0.125473 0.9996 0.0000 0.0000
v 0.019333 0.016729 0.128975 0.9996 0.0000 0.0000
v 0.020828 -0.017771 0.128975 0.9996 0.0000 0.0000
v 0.025818 -0.032770 0.125473 0.9996 0.0000 0.0000
v 0.009323 0.018728 0.125473 0.9996 0.0000 0.0000
v 0.013824 0.003729 0.128975 0.9996 0.0000 0.0000
v 0.014328 -0.010767 0.128975 0.9996 0.0000 0.0000
v 0.011322 -0.030268 0.125473 0.9996 0.0000 0.0000
v 0.004318 -0.008768 0.125473 0.9996 0.0000 0.0000
v 0.045822 0.036230 -0.123520 0.9996 0.0000 0.0000
v 0.034821 0.034734 -0.123520 0.9996 0.0000 0.0000
v 0.040817 0.031240 -0.123520 0.9996 0.0000 0.0000
v 0.044312 0.021230 -0.123520 0.9996 0.0000 0.0000
v 0.055313 0.022726 -0.123520 0.9996 0.0000 0.0000
v 0.028824 0.018743 -0.123520 0.9996 0.0000 0.0000
v 0.043320 0.010229 -0.123520 0.9996 0.0000 0.0000
v 0.042831 -0.000757 -0.123520 0.9996 0.0000 0.0000
v 0.058319 0.001730 -0.123520 0.9996 0.0000 0.0000
v 0.046829 -0.010767 -0.123520 0.9996 0.0000 0.0000
v 0.031830 -0.002268 -0.123520 0.9996 0.0000 0.0000
v 0.052826 -0.014261 -0.123520 0.9996 0.0000 0.0000
v 0.041824 -0.015772 -0.123520 0.9996 0.0000 0.0000
v 0.005829 -0.110758 -0.131531 0.9996 0.0000 0.0000
v -0.017685 -0.101771 -0.131531 0.9996 0.0000 0.0000
v -0.003677 -0.125269 -0.131531 0.9996 0.0000 0.0000
v 0.008316 -0.093271 -0.131531 0.9996 0.0000 0.0000
v 0.022324 -0.116770 -0.131531 0.9996 0.0000 0.0000
v 0.002823 -0.083765 -0.131531 0.9996 0.0000 0.0000
v 0.019318 -0.089777 -0.131531 0.9996 0.0000 0.0000
v -0.013184 -0.139780 -0.131531 0.9996 0.0000 0.0000
v 0.010330 -0.148768 -0.131531 0.9996 0.0000 0.0000
v -0.015671 -0.157282 -0.131531 0.9996 0.0000 0.0000
v -0.029678 -0.133784 -0.131531 0.9996 0.0000 0.0000
v -0.010178 -0.166773 -0.131531 0.9996 0.0000 0.0000
v -0.026672 -0.160776 -0.131531 0.9996 0.0000 0.0000
v -0.015686 -0.120783 -0.135529 0.9996 0.0000 0.0000
v -0.017685 -0.101771 -0.131531 0.9996 0.0000 0.0000
v -0.006180 -0.106272 -0.135529 0.9996 0.0000 0.0000
v 0.002823 -0.083765 -0.131531 0.9996 0.0000 0.0000
v 0.004822 -0.102778 -0.135529 0.9996 0.0000 0.0000
v -0.018173 -0.138285 -0.135529 0.9996 0.0000 0.0000
v -0.029678 -0.133784 -0.131531 0.9996 0.0000 0.0000
v 0.019318 -0.089777 -0.131531 0.9996 0.0000 0.0000
v 0.010315 -0.112284 -0.135529 0.9996 0.0000 0.0000
v -0.012680 -0.147776 -0.135529 0.9996 0.0000 0.0000
v -0.026672 -0.160776 -0.131531 0.9996 0.0000 0.0000
v 0.022324 -0.116770 -0.131531 0.9996 0.0000 0.0000
v 0.007828 -0.129771 -0.135529 0.9996 0.0000 0.0000
v -0.001678 -0.144282 -0.135529 0.9996 0.0000 0.0000
v -0.010178 -0.166773 -0.131531 0.9996 0.0000 0.0000
v 0.010330 -0.148768 -0.131531 0.9996 0.0000 0.0000
v 0.035828 0.009237 -0.126022 0.9996 0.0000 0.0000
v 0.028824 0.018743 -0.123520 0.9996 0.0000 0.0000
v 0.036819 0.020239 -0.126022 0.9996 0.0000 0.0000
v 0.034821 0.034734 -0.123520 0.9996 0.0000 0.0000
v 0.041824 0.025228 -0.126022 0.9996 0.0000 0.0000
v 0.039825 -0.000773 -0.126022 0.9996 0.0000 0.0000
v 0.031830 -0.002268 -0.123520 0.9996 0.0000 0.0000
v 0.045822 0.036230 -0.123520 0.9996 0.0000 0.0000
v 0.047821 0.021734 -0.126022 0.9996 0.0000 0.0000
v 0.045822 -0.004267 -0.126022 0.9996 0.0000 0.0000
v 0.041824 -0.015772 -0.123520 0.9996 0.0000 0.0000
v 0.055313 0.022726 -0.123520 0.9996 0.0000 0.0000
v 0.051315 0.011724 -0.126022 0.9996 0.0000 0.0000
v 0.050827 0.000738 -0.126022 0.9996 0.0000 0.0000
v 0.052826 -0.014261 -0.123520 0.9996 0.0000 0.0000
v 0.058319 0.001730 -0.123520 0.9996 0.0000 0.0000
v 0.011322 -0.030268 0.125473 0.9996 0.0000 0.0000
v 0.019318 -0.025767 0.125473 0.9996 0.0000 0.0000
v 0.025818 -0.032770 0.125473 0.9996 0.0000 0.0000
v 0.024826 -0.012263 0.125473 0.9996 0.0000 0.0000
v 0.039322 -0.014765 0.125473 0.9996 0.0000 0.0000
v 0.024323 0.002233 0.125473 0.9996 0.0000 0.0000
v 0.004318 -0.008768 0.125473 0.9996 0.0000 0.0000
v 0.023315 0.016226 0.125473 0.9996 0.0000 0.0000
v 0.043823 0.012731 0.125473 0.9996 0.0000 0.0000
v 0.028824 0.029226 0.125473 0.9996 0.0000 0.0000
v 0.009323 0.018728 0.125473 0.9996 0.0000 0.0000
v 0.036819 0.033727 0.125473 0.9996 0.0000 0.0000
v 0.022827 0.036230 0.125473 0.9996 0.0000 0.0000
v -0.047684 -0.177271 0.127472 0.9996 0.0000 0.0000
v -0.049179 -0.160761 0.127472 0.9996 0.0000 0.0000
v -0.032684 -0.155771 0.127472 0.9996 0.0000 0.0000
v -0.054184 -0.186259 0.127472 0.9996 0.0000 0.0000
v -0.037689 -0.181269 0.127472 0.9996 0.0000 0.0000
v -0.057678 -0.146265 0.127472 0.9996 0.0000 0.0000
v -0.072678 -0.167765 0.127472 0.9996 0.0000 0.0000
v -0.066177 -0.131266 0.127472 0.9996 0.0000 0.0000
v -0.042679 -0.124262 0.127472 0.9996 0.0000 0.0000
v -0.082184 -0.136271 0.127472 0.9996 0.0000 0.0000
v -0.067184 -0.114268 0.127472 0.9996 0.0000 0.0000
v -0.061172 -0.105265 0.127472 0.9996 0.0000 0.0000
v -0.077179 -0.110270 0.127472 0.9996 0.0000 0.0000
v -0.025177 -0.182261 0.125473 0.8869 0.8869 0.8869
v -0.018677 -0.134272 0.125473 0.8869 0.8869 0.8869
v -0.035675 -0.147272 0.125473 0.8869 0.8869 0.8869
v -0.015671 -0.114283 0.125473 0.8869 0.8869 0.8869
v -0.005173 -0.149271 0.125473 0.8869 0.8869 0.8869
v -0.057175 -0.145762 0.125473 0.8869 0.8869 0.8869
v -0.050674 -0.097773 0.125473 0.8869 0.8869 0.8869
v -0.079178 -0.144770 0.125473 0.8869 0.8869 0.8869
v -0.064178 -0.194269 0.125473 0.8869 0.8869 0.8869
v -0.096680 -0.157770 0.125473 0.8869 0.8869 0.8869
v -0.089676 -0.109263 0.125473 0.8869 0.8869 0.8869
v -0.099686 -0.177775 0.125473 0.8869 0.8869 0.8869
v -0.110184 -0.142267 0.125473 0.8869 0.8869 0.8869
v 0.024323 0.001730 0.121475 0.8869 0.8869 0.8869
v 0.008331 0.010732 0.121475 0.8869 0.8869 0.8869
v 0.000824 -0.032267 0.121475 0.8869 0.8869 0.8869
v -0.009674 0.007726 0.121475 0.8869 0.8869 0.8869
v 0.013824 0.041723 0.121475 0.8869 0.8869 0.8869
v -0.019669 -0.006769 0.121475 0.8869 0.8869 0.8869
v -0.014175 0.024221 0.121475 0.8869 0.8869 0.8869
v 0.047821 0.035726 0.121475 0.8869 0.8869 0.8869
v 0.040314 -0.007273 0.121475 0.8869 0.8869 0.8869
v 0.058319 -0.003779 0.121475 0.8869 0.8869 0.8869
v 0.034821 -0.037775 0.121475 0.8869 0.8869 0.8869
v 0.068314 0.010229 0.121475 0.8869 0.8869 0.8869
v 0.062820 -0.020273 0.121475 0.8869 0.8869 0.8869
v -0.003677 -0.125269 -0.129532 0.8869 0.8869 0.8869
v 0.019318 -0.125773 -0.129532 0.8869 0.8869 0.8869
v -0.000168 -0.175776 -0.129532 0.8869 0.8869 0.8869
v 0.036331 -0.140772 -0.129532 0.8869 0.8869 0.8869
v 0.032822 -0.090266 -0.129532 0.8869 0.8869 0.8869
v 0.037323 -0.161280 -0.129532 0.8869 0.8869 0.8869
v 0.050827 -0.125773 -0.129532 0.8869 0.8869 0.8869
v -0.007187 -0.075266 -0.129532 0.8869 0.8869 0.8869
v -0.026672 -0.125269 -0.129532 0.8869 0.8869 0.8869
v -0.043182 -0.110773 -0.129532 0.8869 0.8869 0.8869
v -0.039673 -0.160776 -0.129532 0.8869 0.8869 0.8869
v -0.044678 -0.089762 -0.129532 0.8869 0.8869 0.8869
v -0.057678 -0.125269 -0.129532 0.8869 0.8869 0.8869
v 0.069321 0.014242 -0.120529 0.8869 0.8869 0.8869
v 0.055817 0.017233 -0.120529 0.8869 0.8869 0.8869
v 0.052322 0.040731 -0.120529 0.8869 0.8869 0.8869
v 0.076324 0.003240 -0.120529 0.8869 0.8869 0.8869
v 0.072830 0.026739 -0.120529 0.8869 0.8869 0.8869
v 0.043320 0.010732 -0.120529 0.8869 0.8869 0.8869
v 0.060318 -0.015757 -0.120529 0.8869 0.8869 0.8869
v 0.031326 0.003744 -0.120529 0.8869 0.8869 0.8869
v 0.026825 0.036733 -0.120529 0.8869 0.8869 0.8869
v 0.017822 0.006735 -0.120529 0.8869 0.8869 0.8869
v 0.034317 -0.019266 -0.120529 0.8869 0.8869 0.8869
v 0.010834 0.017233 -0.120529 0.8869 0.8869 0.8869
v 0.013824 -0.005778 -0.120529 0.8869 0.8869 0.8869
v -0.002182 -0.061274 -0.114029 0.0667 0.0667 0.0667
v 0.020813 -0.061274 -0.114029 0.0667 0.0667 0.0667
v -0.007187 -0.075266 -0.129532 0.0667 0.0667 0.0667
v -0.051178 -0.097773 0.125473 0.0667 0.0667 0.0667
v -0.055176 -0.084284 0.110977 0.0667 0.0667 0.0667
v -0.077179 -0.082773 0.110977 0.0667 0.0667 0.0667
v 0.033829 0.057226 0.108978 0.0667 0.0667 0.0667
v 0.015320 0.053716 0.108978 0.0667 0.0667 0.0667
v 0.013321 0.042227 0.121475 0.0667 0.0667 0.0667
v 0.037323 0.052725 -0.110527 0.0667 0.0667 0.0667
v 0.050827 0.049734 -0.110527 0.0667 0.0667 0.0667
v 0.052322 0.040731 -0.120529 0.0667 0.0667 0.0667
v -0.027176 -0.065272 0.096481 0.0667 0.0667 0.0667
v -0.055176 -0.084284 0.110977 0.0667 0.0667 0.0667
v -0.001175 -0.080271 0.110977 0.0667 0.0667 0.0667
v 0.012329 -0.095270 0.110977 0.0667 0.0667 0.0667
v -0.015671 -0.114283 0.125473 0.0667 0.0667 0.0667
v -0.077179 -0.082773 0.110977 0.0667 0.0667 0.0667
v -0.094177 -0.095774 0.110977 0.0667 0.0667 0.0667
v -0.090179 -0.109263 0.125473 0.0667 0.0667 0.0667
v 0.041321 -0.115778 0.110977 0.0667 0.0667 0.0667
v 0.055817 -0.081766 0.096481 0.0667 0.0667 0.0667
v -0.141174 -0.122263 0.110977 0.0667 0.0667 0.0667
v -0.128174 -0.095774 0.096481 0.0667 0.0667 0.0667
v 0.028824 -0.149271 0.110977 0.0667 0.0667 0.0667
v 0.072311 -0.135767 0.096481 0.0667 0.0667 0.0667
v -0.144180 -0.142267 0.110977 0.0667 0.0667 0.0667
v -0.110184 -0.142267 0.125473 0.0667 0.0667 0.0667
v 0.025818 -0.169260 0.110977 0.0667 0.0667 0.0667
v -0.005173 -0.149271 0.125473 0.0667 0.0667 0.0667
v -0.156677 -0.175776 0.110977 0.0667 0.0667 0.0667
v -0.187668 -0.155771 0.096481 0.0667 0.0667 0.0667
v -0.021179 -0.196268 0.110977 0.0667 0.0667 0.0667
v 0.012817 -0.196268 0.096481 0.0667 0.0667 0.0667
v -0.127686 -0.196772 0.110977 0.0667 0.0667 0.0667
v -0.171173 -0.210276 0.096481 0.0667 0.0667 0.0667
v -0.038177 -0.209269 0.110977 0.0667 0.0667 0.0667
v -0.025177 -0.182261 0.125473 0.0667 0.0667 0.0667
v -0.099686 -0.177775 0.125473 0.0667 0.0667 0.0667
v -0.114182 -0.212275 0.110977 0.0667 0.0667 0.0667
v -0.088181 -0.227274 0.096481 0.0667 0.0667 0.0667
v -0.060181 -0.208277 0.110977 0.0667 0.0667 0.0667
v 0.047821 0.036230 0.121475 0.0667 0.0667 0.0667
v 0.049820 0.047720 0.108978 0.0667 0.0667 0.0667
v 0.033829 0.057226 0.108978 0.0667 0.0667 0.0667
v 0.092316 0.030233 0.108978 0.0667 0.0667 0.0667
v 0.078323 0.051229 0.096481 0.0667 0.0667 0.0667
v -0.030685 0.051718 0.108978 0.0667 0.0667 0.0667
v 0.015320 0.053716 0.108978 0.0667 0.0667 0.0667
v -0.010178 0.066717 0.096481 0.0667 0.0667 0.0667
v 0.096817 0.013738 0.108978 0.0667 0.0667 0.0667
v 0.068314 0.010229 0.121475 0.0667 0.0667 0.0667
v -0.040176 0.037222 0.108978 0.0667 0.0667 0.0667
v -0.014679 0.024221 0.121475 0.0667 0.0667 0.0667
v 0.110825 -0.012766 0.108978 0.0667 0.0667 0.0667
v 0.134827 0.007238 0.096481 0.0667 0.0667 0.0667
v -0.062180 0.016729 0.108978 0.0667 0.0667 0.0667
v -0.078186 0.044225 0.096481 0.0667 0.0667 0.0667
v 0.088318 -0.033762 0.108978 0.0667 0.0667 0.0667
v 0.126328 -0.040262 0.096481 0.0667 0.0667 0.0667
v -0.086182 -0.003275 0.096481 0.0667 0.0667 0.0667
v -0.048172 -0.010279 0.108978 0.0667 0.0667 0.0667
v 0.078323 -0.047770 0.108978 0.0667 0.0667 0.0667
v 0.062820 -0.020273 0.121475 0.0667 0.0667 0.0667
v -0.019669 -0.006769 0.121475 0.0667 0.0667 0.0667
v -0.043671 -0.026774 0.108978 0.0667 0.0667 0.0667
v 0.032822 -0.049769 0.108978 0.0667 0.0667 0.0667
v 0.058319 -0.063257 0.096481 0.0667 0.0667 0.0667
v -0.029678 -0.047770 0.096481 0.0667 0.0667 0.0667
v -0.001175 -0.044260 0.108978 0.0667 0.0667 0.0667
v 0.000824 -0.032267 0.121475 0.0667 0.0667 0.0667
v 0.014816 -0.053263 0.108978 0.0667 0.0667 0.0667
v -0.000168 -0.175776 -0.129532 0.0667 0.0667 0.0667
v -0.005173 -0.189768 -0.114029 0.0667 0.0667 0.0667
v -0.028168 -0.189265 -0.114029 0.0667 0.0667 0.0667
v -0.060181 -0.208277 0.110977 0.0667 0.0667 0.0667
v -0.038177 -0.209269 0.110977 0.0667 0.0667 0.0667
v -0.064178 -0.194269 0.125473 0.0667 0.0667 0.0667
v 0.014816 -0.053263 0.108978 0.0667 0.0667 0.0667
v 0.032822 -0.049769 0.108978 0.0667 0.0667 0.0667
v 0.034821 -0.037775 0.121475 0.0667 0.0667 0.0667
v 0.049316 -0.031763 -0.110527 0.0667 0.0667 0.0667
v 0.035812 -0.028773 -0.110527 0.0667 0.0667 0.0667
v 0.034317 -0.019266 -0.120529 0.0667 0.0667 0.0667
v -0.057678 -0.053263 -0.114029 0.0667 0.0667 0.0667
v -0.029678 -0.039271 -0.098526 0.0667 0.0667 0.0667
v -0.002182 -0.061274 -0.114029 0.0667 0.0667 0.0667
v -0.044678 -0.089762 -0.129532 0.0667 0.0667 0.0667
v -0.072174 -0.067759 -0.114029 0.0667 0.0667 0.0667
v 0.020813 -0.061274 -0.114029 0.0667 0.0667 0.0667
v 0.037323 -0.076273 -0.114029 0.0667 0.0667 0.0667
v 0.032318 -0.090266 -0.129532 0.0667 0.0667 0.0667
v -0.103668 -0.087260 -0.114029 0.0667 0.0667 0.0667
v -0.116669 -0.050761 -0.098526 0.0667 0.0667 0.0667
v 0.083832 -0.107264 -0.114029 0.0667 0.0667 0.0667
v 0.072327 -0.078272 -0.098526 0.0667 0.0667 0.0667
v -0.092682 -0.122767 -0.114029 0.0667 0.0667 0.0667
v -0.137177 -0.105768 -0.098526 0.0667 0.0667 0.0667
v 0.085327 -0.127772 -0.114029 0.0667 0.0667 0.0667
v 0.050323 -0.125773 -0.129532 0.0667 0.0667 0.0667
v -0.091690 -0.143778 -0.114029 0.0667 0.0667 0.0667
v -0.058182 -0.125269 -0.129532 0.0667 0.0667 0.0667
v 0.096313 -0.163279 -0.114029 0.0667 0.0667 0.0667
v 0.129822 -0.144770 -0.098526 0.0667 0.0667 0.0667
v -0.045181 -0.174769 -0.114029 0.0667 0.0667 0.0667
v -0.079681 -0.172266 -0.098526 0.0667 0.0667 0.0667
v 0.109314 -0.199778 -0.098526 0.0667 0.0667 0.0667
v 0.064819 -0.182780 -0.114029 0.0667 0.0667 0.0667
v -0.028168 -0.189265 -0.114029 0.0667 0.0667 0.0667
v -0.040176 -0.160776 -0.129532 0.0667 0.0667 0.0667
v 0.050323 -0.197779 -0.114029 0.0667 0.0667 0.0667
v 0.037323 -0.161280 -0.129532 0.0667 0.0667 0.0667
v 0.022324 -0.211268 -0.098526 0.0667 0.0667 0.0667
v -0.005173 -0.189768 -0.114029 0.0667 0.0667 0.0667
v -0.007172 0.033239 -0.110527 0.0667 0.0667 0.0667
v 0.003830 0.049230 -0.100525 0.0667 0.0667 0.0667
v 0.024826 0.045736 -0.110527 0.0667 0.0667 0.0667
v 0.026321 0.036733 -0.120529 0.0667 0.0667 0.0667
v 0.037323 0.052725 -0.110527 0.0667 0.0667 0.0667
v 0.010330 0.017233 -0.120529 0.0667 0.0667 0.0667
v -0.010666 0.020727 -0.110527 0.0667 0.0667 0.0667
v -0.039673 0.016729 -0.100525 0.0667 0.0667 0.0667
v -0.022171 0.000723 -0.110527 0.0667 0.0667 0.0667
v 0.085831 0.046728 -0.110527 0.0667 0.0667 0.0667
v 0.050827 0.049734 -0.110527 0.0667 0.0667 0.0667
v 0.070831 0.058721 -0.100525 0.0667 0.0667 0.0667
v -0.005676 -0.015269 -0.110527 0.0667 0.0667 0.0667
v -0.034683 -0.019266 -0.100525 0.0667 0.0667 0.0667
v 0.092834 0.035726 -0.110527 0.0667 0.0667 0.0667
v 0.072830 0.026739 -0.120529 0.0667 0.0667 0.0667
v 0.001312 -0.025767 -0.110527 0.0667 0.0667 0.0667
v 0.013824 -0.005778 -0.120529 0.0667 0.0667 0.0667
v 0.108826 0.019735 -0.110527 0.0667 0.0667 0.0667
v 0.121826 0.039724 -0.100525 0.0667 0.0667 0.0667
v 0.035812 -0.028773 -0.110527 0.0667 0.0667 0.0667
v 0.016312 -0.038264 -0.100525 0.0667 0.0667 0.0667
v 0.097824 -0.000269 -0.110527 0.0667 0.0667 0.0667
v 0.126816 0.003729 -0.100525 0.0667 0.0667 0.0667
v 0.094315 -0.012766 -0.110527 0.0667 0.0667 0.0667
v 0.076324 0.003240 -0.120529 0.0667 0.0667 0.0667
v 0.060318 -0.015757 -0.120529 0.0667 0.0667 0.0667
v 0.061813 -0.025263 -0.110527 0.0667 0.0667 0.0667
v 0.049316 -0.031763 -0.110527 0.0667 0.0667 0.0667
v 0.083313 -0.028773 -0.100525 0.0667 0.0667 0.0667
v 0.182831 0.306722 -0.000526 0.0667 0.0667 0.0667
v 0.182831 0.085226 -0.000526 0.0667 0.0667 0.0667
v 0.182831 0.085226 -0.104523 0.0667 0.0667 0.0667
v 0.182831 -0.136271 -0.000526 0.0667 0.0667 0.0667
v 0.182831 0.085226 0.103470 0.0667 0.0667 0.0667
v 0.230835 -0.212778 -0.000526 0.0667 0.0667 0.0667
v 0.230835 -0.180277 -0.000526 0.0667 0.0667 0.0667
v 0.230835 -0.212778 0.103470 0.0667 0.0667 0.0667
v 0.230835 -0.245280 -0.000526 0.0667 0.0667 0.0667
v 0.230835 -0.212778 -0.104523 0.0667 0.0667 0.0667
v 0.182831 0.306722 -0.000526 0.0667 0.0667 0.0667
v 0.000824 0.306722 -0.000526 0.0667 0.0667 0.0667
v 0.000824 0.306722 0.103470 0.0667 0.0667 0.0667
v 0.206833 -0.158274 -0.000526 0.0667 0.0667 0.0667
v 0.182831 -0.136271 -0.000526 0.0667 0.0667 0.0667
v 0.206833 -0.158274 0.103470 0.0667 0.0667 0.0667
v 0.000824 0.306722 -0.104523 0.0667 0.0667 0.0667
v -0.181183 0.306722 -0.000526 0.0667 0.0667 0.0667
v 0.230835 -0.180277 -0.000526 0.0667 0.0667 0.0667
v 0.206833 -0.158274 -0.104523 0.0667 0.0667 0.0667
v -0.204681 -0.158274 -0.104523 0.0667 0.0667 0.0667
v -0.204681 -0.158274 -0.000526 0.0667 0.0667 0.0667
v -0.181183 -0.136271 -0.000526 0.0667 0.0667 0.0667
v -0.204681 -0.158274 0.103470 0.0667 0.0667 0.0667
v -0.228180 -0.180277 -0.000526 0.0667 0.0667 0.0667
v -0.022675 -0.190775 0.103470 0.0667 0.0667 0.0667
v 0.001328 -0.245280 0.103470 0.0667 0.0667 0.0667
v 0.206833 -0.190775 0.103470 0.0667 0.0667 0.0667
v 0.230835 -0.212778 0.103470 0.0667 0.0667 0.0667
v 0.206833 -0.158274 0.103470 0.0667 0.0667 0.0667
v -0.204681 -0.190775 0.103470 0.0667 0.0667 0.0667
v 0.000824 -0.136271 0.103470 0.0667 0.0667 0.0667
v -0.204681 -0.158274 0.103470 0.0667 0.0667 0.0667
v -0.228180 -0.212778 0.103470 0.0667 0.0667 0.0667
v 0.000824 0.085226 0.103470 0.0667 0.0667 0.0667
v -0.181183 0.085226 0.103470 0.0667 0.0667 0.0667
v 0.000824 0.306722 0.103470 0.0667 0.0667 0.0667
v 0.182831 0.085226 0.103470 0.0667 0.0667 0.0667
v -0.181183 0.306722 -0.000526 0.0667 0.0667 0.0667
v -0.181183 0.085226 -0.000526 0.0667 0.0667 0.0667
v -0.181183 0.085226 0.103470 0.0667 0.0667 0.0667
v -0.181183 0.085226 -0.104523 0.0667 0.0667 0.0667
v -0.181183 -0.136271 -0.000526 0.0667 0.0667 0.0667
v -0.228180 -0.212778 -0.104523 0.0667 0.0667 0.0667
v -0.228180 -0.212778 -0.000526 0.0667 0.0667 0.0667
v -0.228180 -0.180277 -0.000526 0.0667 0.0667 0.0667
v -0.228180 -0.212778 0.103470 0.0667 0.0667 0.0667
v -0.228180 -0.245280 -0.000526 0.0667 0.0667 0.0667
v 0.001328 -0.245280 -0.000526 0.0667 0.0667 0.0667
v 0.001328 -0.245280 -0.104523 0.0667 0.0667 0.0667
v 0.230835 -0.245280 -0.000526 0.0667 0.0667 0.0667
v -0.228180 -0.245280 -0.000526 0.0667 0.0667 0.0667
v 0.001328 -0.245280 0.103470 0.0667 0.0667 0.0667
v 0.000824 0.306722 -0.104523 0.0667 0.0667 0.0667
v 0.000824 0.085226 -0.104523 0.0667 0.0667 0.0667
v -0.181183 0.085226 -0.104523 0.0667 0.0667 0.0667
v 0.000824 -0.136271 -0.104523 0.0667 0.0667 0.0667
v 0.182831 0.085226 -0.104523 0.0667 0.0667 0.0667
v 0.206833 -0.190775 -0.104523 0.0667 0.0667 0.0667
v 0.024826 -0.190775 -0.104523 0.0667 0.0667 0.0667
v 0.206833 -0.158274 -0.104523 0.0667 0.0667 0.0667
v 0.230835 -0.212778 -0.104523 0.0667 0.0667 0.0667
v -0.204681 -0.190775 -0.104523 0.0667 0.0667 0.0667
v 0.001328 -0.245280 -0.104523 0.0667 0.0667 0.0667
v -0.228180 -0.212778 -0.104523 0.0667 0.0667 0.0667
v -0.204681 -0.158274 -0.104523 0.0667 0.0667 0.0667
vn 0.2762 0.1025 0.9556
vn 0.2554 0.1607 0.9534
vn 0.2742 0.0932 0.9572
vn 0.1024 0.1816 0.9780
vn 0.0513 0.1888 0.9807
vn 0.1484 0.1657 0.9750
vn 0.1889 -0.0945 0.9774
vn 0.2941 0.0054 0.9558
vn 0.2290 -0.0522 0.9720
vn -0.0238 0.1584 0.9871
vn -0.1609 0.1294 0.9785
vn -0.0479 0.1545 0.9868
vn 0.0233 -0.1580 0.9872
vn 0.1547 -0.1330 0.9790
vn 0.0452 -0.1575 0.9865
vn -0.1888 0.0949 0.9774
vn -0.2865 0.0058 0.9581
vn -0.2266 0.0543 0.9725
vn -0.1028 -0.1816 0.9780
vn -0.0521 -0.1905 0.9803
vn -0.1444 -0.1665 0.9754
vn -0.2753 -0.1027 0.9559
vn -0.2521 -0.1666 0.9532
vn -0.2700 -0.0900 0.9586
vn 0.2918 -0.0631 0.9544
vn 0.3078 0.0036 0.9514
vn 0.3181 -0.0601 0.9461
vn 0.1732 0.1187 0.9777
vn 0.1280 0.1472 0.9808
vn 0.2467 0.0606 0.9672
vn 0.1262 -0.1652 0.9782
vn 0.2628 -0.1336 0.9556
vn 0.1908 -0.1753 0.9658
vn 0.0077 0.1581 0.9874
vn -0.1309 0.1810 0.9747
vn 0.0267 0.1567 0.9873
vn -0.0077 -0.1580 0.9874
vn 0.1246 -0.1756 0.9765
vn -0.0274 -0.1585 0.9870
vn -0.1260 0.1651 0.9782
vn -0.2652 0.1361 0.9545
vn -0.1912 0.1791 0.9651
vn -0.1737 -0.1186 0.9776
vn -0.1234 -0.1509 0.9808
vn -0.2498 -0.0591 0.9665
vn -0.2926 0.0630 0.9542
vn -0.3084 -0.0016 0.9513
vn -0.3197 0.0750 0.9445
vn -0.0000 -0.0000 1.0000
vn -0.0008 -0.0001 1.0000
vn -0.0001 0.0001 1.0000
vn -0.0004 -0.0001 1.0000
vn 0.0001 -0.0001 1.0000
vn -0.0000 0.0002 1.0000
vn 0.0005 -0.0000 1.0000
vn 0.0006 0.0001 1.0000
vn -0.0002 -0.0000 1.0000
vn -0.0010 -0.0001 1.0000
vn 0.0010 0.0001 1.0000
vn -0.2687 0.1257 -0.9550
vn -0.2428 0.1872 -0.9518
vn -0.2787 0.1207 -0.9528
vn -0.0950 0.1892 -0.9773
vn -0.0386 0.1930 -0.9804
vn -0.1494 0.1809 -0.9721
vn -0.1974 -0.0786 -0.9772
vn -0.3020 0.0204 -0.9531
vn -0.2328 -0.0341 -0.9719
vn 0.0237 0.1582 -0.9871
vn 0.1711 0.1366 -0.9757
vn 0.0653 0.1710 -0.9831
vn -0.0235 -0.1578 -0.9872
vn -0.1739 -0.1384 -0.9750
vn -0.0671 -0.1715 -0.9829
vn 0.1974 0.0790 -0.9771
vn 0.2975 -0.0190 -0.9545
vn 0.2276 0.0373 -0.9730
vn 0.0952 -0.1894 -0.9773
vn 0.0386 -0.1954 -0.9800
vn 0.1448 -0.1803 -0.9729
vn 0.2685 -0.1264 -0.9550
vn 0.2442 -0.1874 -0.9514
vn 0.2757 -0.1192 -0.9538
vn -0.2921 -0.0472 -0.9552
vn -0.3054 0.0248 -0.9519
vn -0.2963 -0.0403 -0.9542
vn -0.1742 0.1185 -0.9775
vn -0.1261 0.1514 -0.9804
vn -0.2245 0.0733 -0.9717
vn -0.1266 -0.1655 -0.9780
vn -0.2586 -0.1324 -0.9569
vn -0.1877 -0.1628 -0.9686
vn -0.0083 0.1580 -0.9874
vn 0.1194 0.1737 -0.9775
vn -0.0187 0.1557 -0.9876
vn 0.0084 -0.1580 -0.9874
vn -0.1150 -0.1725 -0.9783
vn 0.0160 -0.1527 -0.9881
vn 0.1264 0.1650 -0.9782
vn 0.2737 0.1283 -0.9532
vn 0.1970 0.1664 -0.9662
vn 0.1744 -0.1261 -0.9766
vn 0.1245 -0.1610 -0.9791
vn 0.2218 -0.0668 -0.9728
vn 0.2917 0.0469 -0.9554
vn 0.3004 -0.0084 -0.9538
vn 0.3102 0.0597 -0.9488
vn -0.0000 -0.0000 -1.0000
vn 0.0003 -0.0006 -1.0000
vn 0.0002 -0.0000 -1.0000
vn -0.0002 0.0006 -1.0000
vn 0.0006 0.0002 1.0000
vn 0.0002 -0.0001 1.0000
vn -0.0005 -0.0000 1.0000
vn 0.0001 -0.0002 1.0000
vn -0.0010 -0.0004 1.0000
vn -0.0001 0.0002 -1.0000
vn -0.0009 0.0004 -1.0000
vn 0.1889 0.6455 -0.7401
vn 0.1003 0.5910 -0.8004
vn -0.2563 0.7818 -0.5684
vn 0.1024 0.5284 0.8428
vn 0.3055 0.7607 0.5727
vn -0.0514 0.5301 0.8464
vn 0.0867 0.6680 0.7391
vn -0.1056 0.8843 0.4548
vn 0.1399 0.7648 0.6289
vn -0.0705 0.6687 -0.7402
vn 0.1319 0.8936 -0.4290
vn -0.1290 0.7708 -0.6238
vn -0.1497 0.6537 0.7418
vn -0.1041 0.5790 0.8087
vn -0.0979 0.7072 0.7002
vn 0.1340 0.4804 0.8667
vn 0.1842 0.5079 0.8415
vn 0.2778 0.3388 0.8989
vn -0.1499 0.6544 0.7411
vn -0.2784 0.6521 0.7052
vn -0.2411 0.7258 0.6443
vn 0.2983 0.1569 0.9415
vn 0.2012 0.3635 0.9096
vn 0.3369 0.1036 0.9358
vn -0.3790 0.4108 0.8292
vn -0.3277 0.3269 0.8864
vn 0.3296 0.0629 0.9420
vn 0.3879 -0.0456 0.9206
vn -0.3786 0.2996 0.8757
vn -0.3624 0.1438 0.9209
vn 0.3787 -0.2998 0.8756
vn 0.4166 -0.3226 0.8499
vn -0.3297 -0.0628 0.9420
vn -0.2432 -0.0719 0.9673
vn 0.3789 -0.4108 0.8292
vn 0.4938 -0.4988 0.7123
vn -0.2345 -0.2248 0.9458
vn 0.1498 -0.6546 0.7410
vn 0.2443 -0.7189 0.6508
vn -0.2936 -0.2972 0.9086
vn -0.1339 -0.4805 0.8667
vn 0.1004 -0.7090 0.6981
vn -0.0894 -0.5296 0.8435
vn 0.3236 0.4421 0.8365
vn 0.3005 0.5391 0.7868
vn 0.2203 0.5072 0.8332
vn 0.3383 0.3695 0.8654
vn 0.2322 0.6834 0.6921
vn 0.3862 0.3802 0.8404
vn -0.1662 0.5069 0.8458
vn -0.0195 0.6819 0.7312
vn -0.1290 0.4280 0.8945
vn 0.4033 0.1764 0.8979
vn -0.1893 0.4736 0.8601
vn -0.2587 0.3004 0.9181
vn 0.3302 -0.0313 0.9434
vn 0.2877 -0.0164 0.9576
vn -0.3301 0.0314 0.9434
vn -0.2701 0.0446 0.9618
vn 0.3392 -0.2078 0.9175
vn -0.3383 -0.3696 0.8654
vn -0.4149 -0.1300 0.9005
vn -0.3757 -0.1649 0.9119
vn 0.1894 -0.4734 0.8602
vn 0.2438 -0.4886 0.8378
vn -0.3773 -0.1075 0.9198
vn 0.1740 -0.5054 0.8451
vn 0.0314 -0.6720 0.7399
vn -0.2310 -0.6840 0.6919
vn -0.3847 -0.3801 0.8412
vn -0.3235 -0.4421 0.8366
vn -0.2907 -0.5412 0.7891
vn -0.2079 -0.5166 0.8306
vn 0.0704 -0.5364 -0.8410
vn 0.2364 -0.7882 -0.5682
vn -0.0890 -0.5373 -0.8387
vn 0.1498 -0.6555 0.7402
vn 0.0736 -0.5939 0.8011
vn -0.2681 -0.7581 0.5945
vn -0.0868 -0.6687 0.7384
vn 0.1231 -0.8695 0.4784
vn -0.1292 -0.7607 0.6362
vn 0.0707 -0.6702 -0.7388
vn -0.1466 -0.8729 -0.4654
vn 0.1149 -0.7647 -0.6340
vn -0.1107 0.4819 -0.8692
vn 0.1386 0.6951 -0.7055
vn -0.0614 0.5315 -0.8448
vn -0.3293 0.0786 -0.9409
vn -0.1987 0.2686 -0.9425
vn -0.2784 0.3202 -0.9055
vn 0.1888 0.6455 -0.7400
vn 0.3204 0.6407 -0.6978
vn 0.2859 0.7155 -0.6374
vn -0.2413 0.1406 -0.9602
vn 0.4016 0.3937 -0.8269
vn 0.3602 0.3018 -0.8827
vn -0.4006 -0.0230 -0.9160
vn 0.4001 0.2590 -0.8791
vn 0.3819 0.1143 -0.9171
vn -0.4002 -0.2590 -0.8791
vn -0.4466 -0.2991 -0.8432
vn 0.3293 -0.0785 -0.9409
vn 0.2391 -0.0880 -0.9670
vn -0.4015 -0.3936 -0.8269
vn -0.5387 -0.4778 -0.6939
vn 0.2846 -0.1819 -0.9412
vn 0.1745 -0.3829 -0.9072
vn -0.1888 -0.6457 -0.7398
vn -0.2821 -0.7111 -0.6440
vn 0.1106 -0.4821 -0.8691
vn 0.1412 -0.5298 -0.8363
vn 0.2644 -0.3535 -0.8973
vn -0.1889 -0.6457 -0.7398
vn -0.1351 -0.5897 -0.7962
vn -0.1417 -0.7034 -0.6966
vn -0.3231 0.3785 -0.8674
vn -0.2125 0.6859 -0.6960
vn -0.3950 0.3965 -0.8287
vn -0.3152 0.4490 -0.8361
vn -0.2892 0.5477 -0.7851
vn -0.2140 0.5112 -0.8324
vn -0.3301 -0.0236 -0.9437
vn -0.3247 0.1473 -0.9343
vn -0.3833 0.1215 -0.9156
vn -0.3706 0.1836 -0.9105
vn 0.1813 0.5052 -0.8437
vn 0.0416 0.6875 -0.7250
vn 0.1591 0.4471 -0.8802
vn -0.3622 -0.2106 -0.9080
vn -0.2825 -0.0402 -0.9584
vn 0.1969 0.4729 -0.8588
vn 0.2767 0.3099 -0.9096
vn -0.1969 -0.4726 -0.8590
vn -0.2663 -0.4926 -0.8285
vn 0.3302 0.0236 -0.9436
vn 0.2843 0.0413 -0.9578
vn -0.1812 -0.5042 -0.8443
vn -0.0406 -0.6783 -0.7337
vn 0.3319 -0.1141 -0.9364
vn 0.3233 -0.3786 -0.8673
vn 0.3579 -0.3343 -0.8719
vn 0.3135 -0.4462 -0.8382
vn 0.2750 -0.5513 -0.7876
vn 0.1989 -0.5234 -0.8286
vn 0.2082 -0.6889 -0.6943
vn 0.7071 0.7071 -0.0000
vn 0.8254 0.5645 -0.0000
vn 0.7071 0.6124 0.3536
vn 0.9154 0.4024 -0.0000
vn 0.9154 -0.0000 0.4024
vn 0.9154 0.3485 0.2012
vn 0.9786 0.0613 -0.1963
vn 1.0000 -0.0000 -0.0000
vn 0.6124 0.7071 -0.3536
vn 0.9154 0.4026 -0.0000
vn 0.6185 0.6747 -0.4027
vn 0.4174 0.8590 0.2965
vn 0.3536 0.7071 -0.6124
vn 0.9156 0.4021 -0.0000
vn 0.8758 0.4386 -0.2016
vn -0.9153 0.4028 -0.0000
vn -0.8769 0.4386 0.1965
vn -0.9152 0.4029 -0.0000
vn -0.9155 0.4023 -0.0000
vn -0.7720 0.5366 0.3407
vn -0.7071 0.7071 -0.0000
vn -0.8254 0.5645 -0.0000
vn -0.7071 0.6124 -0.3536
vn -0.7071 0.3536 -0.6124
vn -1.0000 -0.0000 -0.0000
vn -0.9786 -0.0000 -0.2056
vn -0.9154 0.2012 -0.3485
vn -0.9154 0.4024 -0.0000
vn -0.0000 -1.0000 -0.0000
vn 0.0006 -0.0000 -1.0000
vn 0.0006 -0.0002 -1.0000
vn -0.9154 0.3485 -0.2012
vn -0.9154 -0.0000 -0.4024
vn -0.8769 0.4388 0.1964
vn -0.9156 0.4022 -0.0000
vn -0.6284 0.6711 0.3933
vn 0.7669 0.5388 -0.3486
vn 0.9153 0.4028 -0.0000
vn -0.6124 0.7071 0.3536
vn -0.3536 0.7071 0.6124
vn 0.9154 0.2012 0.3485
vn 0.7071 0.3536 0.6124
vn 0.0708 -0.6689 -0.7400
vn 0.1492 -0.6045 -0.7825
vn 0.1027 -0.6618 -0.7427
vn 0.3823 -0.1141 -0.9170
vn 0.3695 -0.1742 -0.9128
vn 0.3222 0.0784 -0.9434
vn -0.0364 -0.7551 -0.6546
vn 0.0708 -0.6681 -0.7407
vn 0.2810 0.3753 -0.8833
vn -0.3478 -0.1928 -0.9175
vn 0.3486 0.1868 -0.9185
vn -0.2795 -0.3767 -0.8831
vn -0.3223 -0.0784 -0.9434
vn 0.0265 0.7690 -0.6387
vn -0.0707 0.6704 -0.7386
vn -0.1664 0.6065 -0.7775
vn -0.1022 0.6631 -0.7415
vn -0.0707 0.6688 -0.7401
vn 0.0708 -0.5352 -0.8418
vn 0.2836 -0.3119 -0.9068
vn -0.4622 -0.5853 -0.6662
vn -0.2522 -0.6230 -0.7405
vn -0.3197 -0.7524 -0.5760
vn 0.3988 0.1449 -0.9055
vn -0.4100 -0.0623 -0.9099
vn 0.4043 0.0674 -0.9121
vn -0.3958 -0.1467 -0.9065
vn -0.2848 0.1819 -0.9412
vn 0.3178 0.7482 -0.5824
vn -0.1746 0.3829 -0.9071
vn 0.4844 0.5773 -0.6574
vn 0.2520 0.6225 -0.7409
vn -0.0709 0.5348 -0.8420
vn 0.1413 0.5798 -0.8024
vn 0.1890 0.6451 -0.7404
vn 0.0243 -0.5752 -0.8177
vn 0.1021 -0.6641 -0.7406
vn -0.1817 -0.5063 -0.8430
vn -0.0363 -0.5678 0.8224
vn -0.1184 -0.6622 0.7399
vn 0.1735 -0.5063 0.8447
vn 0.0658 -0.5329 0.8436
vn -0.1026 -0.5292 0.8423
vn 0.2123 -0.6390 0.7393
vn -0.1074 -0.5981 -0.7942
vn -0.2524 -0.6237 -0.7398
vn -0.1894 -0.6465 -0.7390
vn -0.1652 -0.6000 0.7827
vn -0.1185 -0.6618 0.7403
vn -0.0867 -0.6681 0.7390
vn 0.0210 -0.7349 0.6778
vn -0.0863 -0.6686 0.7386
vn 0.3403 -0.2085 0.9169
vn -0.3218 0.0942 0.9421
vn 0.2771 -0.3727 0.8856
vn 0.3219 -0.0943 0.9421
vn -0.2734 0.3728 0.8867
vn 0.3749 0.1662 0.9120
vn -0.3416 0.1977 0.9188
vn 0.3737 0.1089 0.9211
vn -0.0128 0.7443 0.6677
vn 0.0863 0.6689 0.7384
vn 0.0868 0.6686 0.7385
vn 0.1799 0.6030 0.7772
vn 0.1189 0.6624 0.7396
vn 0.1045 -0.5789 0.8087
vn -0.1024 -0.5280 0.8431
vn 0.1500 -0.6544 0.7411
vn 0.4362 -0.5955 0.6746
vn 0.2125 -0.6382 0.7400
vn -0.2036 -0.3615 0.9099
vn -0.3003 -0.1582 0.9406
vn 0.2774 -0.7514 0.5988
vn -0.3938 0.1801 0.9014
vn 0.3926 -0.0916 0.9151
vn -0.3920 0.0886 0.9157
vn 0.3942 -0.1815 0.9009
vn -0.2652 0.7583 0.5955
vn -0.4435 0.5992 0.6665
vn -0.2131 0.6377 0.7402
vn 0.2914 0.2989 0.9087
vn 0.1025 0.5276 0.8433
vn -0.0420 0.5810 -0.8128
vn -0.1024 0.6624 -0.7421
vn 0.1816 0.5043 -0.8443
vn 0.0547 0.5740 0.8170
vn 0.1184 0.6614 0.7406
vn -0.1658 0.5061 0.8464
vn -0.0630 0.5911 0.8042
vn -0.2126 0.6383 0.7399
vn -0.1499 0.6548 0.7408
vn 0.0824 0.5288 -0.8448
vn -0.0708 0.5350 -0.8419
vn 0.2522 0.6226 -0.7408
vn -0.0004 0.0003 -1.0000
vn -0.0010 -0.0000 -1.0000
vn -0.0005 -0.0000 -1.0000
vn -0.0011 -0.0000 1.0000
vn -0.0004 -0.0002 1.0000
vn 0.0007 -0.0000 1.0000
vn -0.0004 0.0002 -1.0000
vn -0.0007 -0.0000 -1.0000
vn 0.0007 -0.0000 -1.0000
vn 0.0146 0.0078 -0.9999
vn -0.0115 0.0028 -0.9999
vn 0.0010 -0.0000 1.0000
vn -0.0005 -0.0001 1.0000
vn -0.0010 -0.0000 1.0000
vn 0.0008 0.0001 1.0000
vn 0.0008 -0.0000 1.0000
vn 0.0005 0.0001 1.0000
vn -0.0003 -0.0000 1.0000
vn -0.0003 -0.0001 1.0000
vn -0.0008 -0.0000 1.0000
vn -0.0098 0.0036 0.9999
vn 0.0073 0.0006 1.0000
vt 0.460444 0.928688
vt 0.460444 0.944166
vt 0.449904 0.931039
vt 0.460444 0.959643
vt 0.454407 0.967190
vt 0.449904 0.946517
vt 0.448166 0.901572
vt 0.454305 0.915130
vt 0.443765 0.917481
vt 0.448370 0.974736
vt 0.439689 0.970365
vt 0.443867 0.954063
vt 0.430055 0.893286
vt 0.439111 0.897429
vt 0.434710 0.913338
vt 0.431009 0.965994
vt 0.424272 0.952271
vt 0.435186 0.949692
vt 0.417981 0.908379
vt 0.424018 0.900832
vt 0.428673 0.920884
vt 0.417535 0.938547
vt 0.417758 0.923463
vt 0.428450 0.935969
vt 0.409928 0.603920
vt 0.404346 0.615210
vt 0.400694 0.601603
vt 0.398765 0.626500
vt 0.391405 0.630288
vt 0.395112 0.612893
vt 0.409928 0.577733
vt 0.409928 0.590826
vt 0.400694 0.588510
vt 0.384045 0.634077
vt 0.378925 0.627624
vt 0.387753 0.616682
vt 0.399688 0.564827
vt 0.404808 0.571280
vt 0.395574 0.582056
vt 0.373804 0.621171
vt 0.373634 0.608496
vt 0.382632 0.610229
vt 0.384131 0.572062
vt 0.391909 0.568444
vt 0.387796 0.585674
vt 0.373463 0.595821
vt 0.378797 0.583942
vt 0.382462 0.597554
vt 0.391827 0.739256
vt 0.387537 0.734581
vt 0.397344 0.736361
vt 0.383247 0.729907
vt 0.396587 0.722848
vt 0.393054 0.731686
vt 0.382345 0.710093
vt 0.396136 0.712941
vt 0.382796 0.720000
vt 0.396136 0.703068
vt 0.409928 0.696043
vt 0.400121 0.694250
vt 0.405639 0.691355
vt 0.386693 0.968710
vt 0.380078 0.954610
vt 0.402114 0.949594
vt 0.402114 0.965451
vt 0.396030 0.973206
vt 0.373463 0.940510
vt 0.388884 0.921395
vt 0.395499 0.935495
vt 0.404305 0.902279
vt 0.388886 0.905524
vt 0.394968 0.897783
vt 0.924356 0.719500
vt 0.930971 0.705400
vt 0.935150 0.722049
vt 0.937585 0.691301
vt 0.946922 0.686804
vt 0.941765 0.707949
vt 0.924360 0.751242
vt 0.924358 0.735371
vt 0.935152 0.737919
vt 0.956259 0.682307
vt 0.962343 0.690062
vt 0.951102 0.703452
vt 0.936524 0.766724
vt 0.930442 0.758983
vt 0.941235 0.745661
vt 0.968428 0.697817
vt 0.968428 0.713674
vt 0.957186 0.711207
vt 0.955198 0.757731
vt 0.945861 0.762228
vt 0.950571 0.741164
vt 0.968428 0.729532
vt 0.961813 0.743631
vt 0.957186 0.727064
vt 0.382345 0.663240
vt 0.382796 0.653333
vt 0.389456 0.661581
vt 0.383247 0.643427
vt 0.387537 0.638752
vt 0.389907 0.651675
vt 0.390314 0.680877
vt 0.386329 0.672058
vt 0.393441 0.670400
vt 0.391827 0.634077
vt 0.397344 0.636972
vt 0.394197 0.647000
vt 0.401349 0.686667
vt 0.395832 0.683772
vt 0.398958 0.673295
vt 0.402862 0.639867
vt 0.406395 0.648705
vt 0.399715 0.649895
vt 0.409928 0.677290
vt 0.405639 0.681978
vt 0.403248 0.668606
vt 0.409928 0.657544
vt 0.409928 0.667417
vt 0.403248 0.658733
vt 0.384131 0.557591
vt 0.397029 0.554756
vt 0.391909 0.561209
vt 0.397029 0.541662
vt 0.409928 0.525733
vt 0.391695 0.529783
vt 0.373463 0.533832
vt 0.386114 0.518493
vt 0.398765 0.503153
vt 0.386284 0.505818
vt 0.391405 0.499365
vt 0.460890 0.959643
vt 0.482122 0.949489
vt 0.475982 0.963046
vt 0.466927 0.967190
vt 0.503353 0.939334
vt 0.481899 0.934404
vt 0.460444 0.929475
vt 0.481899 0.918927
vt 0.473918 0.902028
vt 0.488635 0.905203
vt 0.467181 0.915751
vt 0.503353 0.908379
vt 0.497316 0.900832
vt 0.686335 0.893454
vt 0.655658 0.905050
vt 0.686335 0.874242
vt 0.624981 0.916647
vt 0.643043 0.918096
vt 0.686335 0.855029
vt 0.655658 0.885838
vt 0.642855 0.871330
vt 0.599375 0.887631
vt 0.630147 0.856180
vt 0.660919 0.824729
vt 0.629872 0.836609
vt 0.642498 0.823555
vt 0.346323 0.947809
vt 0.309377 0.951220
vt 0.309377 0.934744
vt 0.272431 0.954630
vt 0.299095 0.963982
vt 0.283353 0.965416
vt 0.346323 0.931334
vt 0.346323 0.914859
vt 0.309377 0.918269
vt 0.320041 0.905722
vt 0.335401 0.904072
vt 0.914754 0.421906
vt 0.882824 0.454255
vt 0.869511 0.438471
vt 0.850895 0.486605
vt 0.882824 0.474618
vt 0.869602 0.487462
vt 0.901101 0.406420
vt 0.887449 0.390934
vt 0.855859 0.422985
vt 0.855819 0.403260
vt 0.869080 0.389779
vt 0.543191 0.894587
vt 0.523272 0.914629
vt 0.523272 0.902211
vt 0.531556 0.893936
vt 0.503353 0.934670
vt 0.531396 0.924321
vt 0.559439 0.913971
vt 0.539850 0.933477
vt 0.520261 0.952983
vt 0.539850 0.945894
vt 0.532005 0.954058
vt 0.389928 0.739256
vt 0.399928 0.749929
vt 0.389928 0.767990
vt 0.933992 0.388623
vt 0.933992 0.415349
vt 0.924373 0.405877
vt 0.356169 0.936407
vt 0.356169 0.914847
vt 0.364816 0.929037
vt 0.389928 0.771627
vt 0.389928 0.787813
vt 0.383202 0.777726
vt 0.785557 0.939545
vt 0.803953 0.919852
vt 0.832978 0.928840
vt 0.880399 0.918134
vt 0.851374 0.909146
vt 0.859039 0.892727
vt 0.957807 0.144546
vt 0.939702 0.125207
vt 0.957705 0.131916
vt 0.919440 0.867719
vt 0.899920 0.892927
vt 0.878559 0.867520
vt 0.921597 0.105868
vt 0.892405 0.114777
vt 0.837678 0.867321
vt 0.859051 0.842035
vt 0.863212 0.123687
vt 0.884581 0.098388
vt 0.880423 0.816750
vt 0.851231 0.825659
vt 0.905950 0.073089
vt 0.865069 0.072890
vt 0.822039 0.834568
vt 0.803798 0.814784
vt 0.884461 0.047263
vt 0.785557 0.794999
vt 0.785795 0.808075
vt 0.913483 0.056238
vt 0.862973 0.021438
vt 0.910390 0.010719
vt 0.891994 0.030412
vt 0.855371 0.355706
vt 0.839807 0.372165
vt 0.839780 0.361694
vt 0.904752 0.370558
vt 0.864497 0.379591
vt 0.880062 0.363132
vt 0.905970 0.233808
vt 0.921837 0.250196
vt 0.881434 0.241436
vt 0.886545 0.349219
vt 0.856897 0.249064
vt 0.875239 0.227167
vt 0.868338 0.327879
vt 0.902958 0.327888
vt 0.893581 0.205270
vt 0.858884 0.205691
vt 0.886224 0.305897
vt 0.857186 0.162574
vt 0.875383 0.183922
vt 0.840687 0.184343
vt 0.904110 0.283916
vt 0.879503 0.291987
vt 0.900070 0.191359
vt 0.854896 0.300059
vt 0.839542 0.283321
vt 0.897444 0.153560
vt 0.881873 0.170011
vt 0.906560 0.177449
vt 0.922131 0.160997
vt 0.922077 0.171913
vt 0.389928 0.854191
vt 0.389928 0.825457
vt 0.399928 0.836130
vt 0.933992 0.495526
vt 0.924373 0.486054
vt 0.933992 0.468800
vt 0.559439 0.935638
vt 0.559439 0.914462
vt 0.568003 0.928172
vt 0.389928 0.739256
vt 0.389928 0.755442
vt 0.383202 0.745355
vt 0.826064 0.667084
vt 0.875210 0.656186
vt 0.856141 0.676836
vt 0.871080 0.720141
vt 0.848572 0.693612
vt 0.878649 0.703364
vt 0.785557 0.495576
vt 0.804425 0.516275
vt 0.785798 0.508923
vt 0.828319 0.719990
vt 0.823294 0.536974
vt 0.853322 0.527528
vt 0.848821 0.746317
vt 0.883351 0.518082
vt 0.861091 0.544274
vt 0.826561 0.772493
vt 0.856327 0.763646
vt 0.838831 0.570467
vt 0.881593 0.570602
vt 0.886092 0.754798
vt 0.905224 0.774899
vt 0.924356 0.570737
vt 0.904102 0.597114
vt 0.924356 0.794999
vt 0.924114 0.781668
vt 0.883849 0.623492
vt 0.853931 0.614178
vt 0.861340 0.596979
vt 0.785557 0.645288
vt 0.804785 0.625076
vt 0.834703 0.634390
vt 0.212345 0.907220
vt 0.242388 0.900253
vt 0.230545 0.913042
vt 0.389928 0.854191
vt 0.398908 0.864068
vt 0.389928 0.865410
vt 0.239301 0.940194
vt 0.225823 0.923707
vt 0.244022 0.929530
vt 0.199538 0.923505
vt 0.709948 0.847513
vt 0.698141 0.834947
vt 0.728870 0.842059
vt 0.225604 0.956331
vt 0.213016 0.939992
vt 0.747792 0.836604
vt 0.733700 0.852725
vt 0.211906 0.972468
vt 0.230455 0.966561
vt 0.719607 0.868846
vt 0.745884 0.868966
vt 0.249004 0.960654
vt 0.260718 0.973691
vt 0.733568 0.885350
vt 0.747529 0.901854
vt 0.728863 0.896011
vt 0.710198 0.890169
vt 0.698392 0.902995
vt 0.698266 0.894361
vt 0.717058 0.908837
vt 0.186731 0.893286
vt 0.280097 0.694431
vt 0.280097 0.893286
vt 0.373463 0.495576
vt 0.280097 0.495576
vt 0.919440 0.981731
vt 0.919440 0.888365
vt 0.948619 0.888365
vt 0.977798 0.794999
vt 0.977798 0.888365
vt 0.785557 0.495576
vt 0.692191 0.658978
vt 0.692191 0.495576
vt 0.937577 0.453316
vt 0.937577 0.359950
vt 0.959126 0.359950
vt 0.785557 0.658978
vt 0.980674 0.266584
vt 0.980674 0.359950
vt 0.957807 0.186731
vt 0.978904 0.093366
vt 0.978904 0.186731
vt 1.000000 0.000000
vt 0.978904 0.000000
vt 0.412094 0.000000
vt 0.618141 0.000000
vt 0.596593 0.048933
vt 0.824188 0.058358
vt 0.802640 0.078112
vt 0.824188 0.029179
vt 0.433191 0.048933
vt 0.454287 0.097866
vt 0.433191 0.078112
vt 0.781091 0.097866
vt 0.617689 0.296721
vt 0.617689 0.097866
vt 0.454287 0.495576
vt 0.617689 0.495576
vt 0.598826 0.495576
vt 0.505460 0.694431
vt 0.505460 0.495576
vt 0.598826 0.694431
vt 0.924356 0.682307
vt 0.953535 0.588942
vt 0.953535 0.682307
vt 0.982714 0.495576
vt 0.953535 0.495576
vt 0.186731 0.495576
vt 0.186731 0.701623
vt 0.093366 0.701623
vt 0.093366 0.495576
vt 0.368997 0.000000
vt 0.205595 0.198855
vt 0.205595 0.000000
vt 0.042193 0.397710
vt 0.205595 0.397710
vt 0.412094 0.495576
vt 0.227144 0.446643
vt 0.390546 0.446643
vt 0.368997 0.397710
vt 0.390546 0.417464
vt 0.021096 0.446643
vt -0.000000 0.437218
vt 0.021096 0.417464
vt -0.000000 0.466397
vt -0.000000 0.495576
vt 0.206047 0.495576
vt 0.412094 0.466397
vt 0.412094 0.437218
vt 0.368997 0.198855
vt 0.042193 0.198855
vt 0.042193 0.000000
vt 0.000000 0.701623
vt 0.000000 0.495576
vt -0.000000 0.907670
vt 0.093366 0.907670
vt 0.186731 0.907670
vt 0.924356 0.588942
vt 0.924356 0.495576
vt 0.982714 0.588942
vt 0.982714 0.682307
vt 0.505460 0.893286
vt 0.412094 0.893286
vt 0.598826 0.893286
vt 0.412094 0.694431
vt 0.412094 0.495576
vt 0.781091 0.296721
vt 0.781091 0.495576
vt 0.454287 0.296721
vt 0.412094 0.029179
vt 0.412094 0.058358
vt 0.802640 0.048933
vt 0.824188 0.000000
vt 0.957807 0.093366
vt 0.957807 0.000000
vt 1.000000 0.093366
vt 1.000000 0.186731
vt 0.959126 0.453316
vt 0.980674 0.453316
vt 0.692191 0.822380
vt 0.598826 0.822380
vt 0.785557 0.822380
vt 0.959126 0.266584
vt 0.937577 0.266584
vt 0.598826 0.658978
vt 0.948619 0.981731
vt 0.977798 0.981731
vt 0.948619 0.794999
vt 0.919440 0.794999
vt 0.186731 0.694431
vt 0.186731 0.495576
vt 0.373463 0.694431
vt 0.373463 0.893286
vt 0.686586 0.915821
vt 0.686460 0.907187
vt 0.686335 0.898553
vt 0.714902 0.879508
vt 0.759845 0.885470
vt 0.772160 0.869086
vt 0.242169 0.979598
vt 0.272431 0.986728
vt 0.759976 0.852845
vt 0.244152 0.950424
vt 0.714778 0.858179
vt 0.199319 0.956129
vt 0.186731 0.939791
vt 0.717064 0.829492
vt 0.686335 0.822380
vt 0.248744 0.918865
vt 0.398908 0.875287
vt 0.389928 0.876630
vt 0.407888 0.873945
vt 0.260587 0.906075
vt 0.272431 0.893286
vt 0.824013 0.604865
vt 0.831422 0.587666
vt 0.904982 0.761568
vt 0.923873 0.768337
vt 0.875459 0.783746
vt 0.903853 0.544409
vt 0.878586 0.737470
vt 0.831062 0.553721
vt 0.806059 0.746166
vt 0.785557 0.719839
vt 0.834454 0.506829
vt 0.805810 0.693461
vt 0.804666 0.529622
vt 0.786038 0.522270
vt 0.886218 0.686588
vt 0.905287 0.665938
vt 0.924356 0.645288
vt 0.383202 0.761541
vt 0.376476 0.751454
vt 0.389928 0.771627
vt 0.568003 0.906996
vt 0.576568 0.920705
vt 0.559439 0.893286
vt 0.924373 0.459328
vt 0.933992 0.442075
vt 0.914754 0.476582
vt 0.399928 0.807396
vt 0.409928 0.818069
vt 0.389928 0.796723
vt 0.937649 0.155462
vt 0.937595 0.166377
vt 0.937703 0.144546
vt 0.864149 0.275250
vt 0.824188 0.266584
vt 0.861617 0.313969
vt 0.824188 0.206112
vt 0.920844 0.305907
vt 0.937577 0.327898
vt 0.840543 0.227588
vt 0.921165 0.349228
vt 0.899776 0.219539
vt 0.861854 0.341792
vt 0.897300 0.257824
vt 0.937703 0.266584
vt 0.824243 0.388623
vt 0.824215 0.378153
vt 0.824188 0.367682
vt 0.939411 0.019694
vt 0.921015 0.039387
vt 0.957807 0.000000
vt 0.804036 0.827859
vt 0.786033 0.821151
vt 0.843580 0.047064
vt 0.824188 0.072691
vt 0.832990 0.805875
vt 0.843700 0.098189
vt 0.829859 0.850945
vt 0.913773 0.089479
vt 0.899932 0.842234
vt 0.910510 0.134116
vt 0.939600 0.112577
vt 0.957603 0.119285
vt 0.830013 0.883739
vt 0.822348 0.900158
vt 0.383202 0.793912
vt 0.376476 0.783825
vt 0.389928 0.803998
vt 0.364816 0.907476
vt 0.373463 0.921666
vt 0.356169 0.893286
vt 0.924373 0.432602
vt 0.914754 0.423130
vt 0.933992 0.442075
vt 0.399928 0.778663
vt 0.409928 0.760602
vt 0.551593 0.946969
vt 0.543748 0.955133
vt 0.559439 0.938806
vt 0.559439 0.926388
vt 0.511807 0.943826
vt 0.551315 0.904279
vt 0.511637 0.901561
vt 0.519921 0.893286
vt 0.503353 0.909836
vt 0.503353 0.922253
vt 0.837450 0.402105
vt 0.850712 0.388623
vt 0.824188 0.415586
vt 0.824228 0.435311
vt 0.824268 0.455036
vt 0.901532 0.475475
vt 0.888310 0.488319
vt 0.914754 0.462631
vt 0.914754 0.442268
vt 0.837582 0.470820
vt 0.309119 0.894936
vt 0.324479 0.893286
vt 0.293759 0.896585
vt 0.283095 0.909132
vt 0.272431 0.921679
vt 0.310017 0.974768
vt 0.294275 0.976203
vt 0.325759 0.973334
vt 0.336041 0.960571
vt 0.272431 0.938155
vt 0.611452 0.835434
vt 0.624078 0.822380
vt 0.598826 0.848488
vt 0.599100 0.868059
vt 0.673627 0.839879
vt 0.612178 0.902139
vt 0.673720 0.906500
vt 0.661104 0.919545
vt 0.482598 0.897657
vt 0.491279 0.893286
vt 0.503353 0.923856
vt 0.460667 0.944559
vt 0.482020 0.970593
vt 0.472964 0.974736
vt 0.491075 0.966450
vt 0.497214 0.952892
vt 0.378925 0.502029
vt 0.384045 0.495576
vt 0.373804 0.508482
vt 0.373634 0.521157
vt 0.404346 0.514443
vt 0.378797 0.545711
vt 0.409928 0.538827
vt 0.409928 0.551920
vt 0.404808 0.558374
vt 0.399688 0.564827
vt 0.396567 0.659923
vt 0.945945 0.724597
vt 0.379549 0.901027
vt 0.385632 0.893286
vt 0.373467 0.908769
vt 0.373465 0.924640
vt 0.410920 0.916379
vt 0.417535 0.930479
vt 0.411451 0.969948
vt 0.405366 0.977703
vt 0.417535 0.962193
vt 0.417535 0.946336
vt 0.395832 0.689562
vt 0.401349 0.686667
vt 0.390314 0.692457
vt 0.386329 0.701275
vt 0.409928 0.705916
vt 0.409928 0.715789
vt 0.406395 0.724628
vt 0.402862 0.733466
vt 0.391460 0.599286
vt 0.439364 0.933390
s 1
usemtl Meshpart1Mtl.011
f 1/1/1 238/2/2 237/3/3
f 2/4/4 240/5/5 239/6/6
f 5/7/7 243/8/8 242/9/9
f 4/10/10 244/11/11 241/12/12
f 7/13/13 247/14/14 246/15/15
f 6/16/16 248/17/17 245/18/18
f 9/19/19 251/20/20 250/21/21
f 8/22/22 252/23/23 249/24/24
f 10/25/25 254/26/26 253/27/27
f 11/28/28 256/29/29 255/30/30
f 14/31/31 259/32/32 258/33/33
f 13/34/34 260/35/35 257/36/36
f 16/37/37 263/38/38 262/39/39
f 15/40/40 264/41/41 261/42/42
f 18/43/43 267/44/44 266/45/45
f 17/46/46 268/47/47 265/48/48
f 19/49/49 270/50/49 269/51/50
f 20/52/49 272/53/51 271/54/52
f 23/55/49 275/56/53 274/57/49
f 23/55/49 276/58/54 275/56/53
f 24/59/55 276/58/54 278/60/56
f 24/59/55 278/60/56 280/61/49
f 27/62/49 283/63/49 282/64/49
f 27/62/49 282/64/49 285/65/57
f 27/62/49 285/65/57 287/66/58
f 28/67/49 289/68/49 284/69/49
f 32/70/49 289/68/49 291/71/49
f 32/70/49 291/71/49 293/72/59
f 35/73/60 296/74/61 295/75/62
f 36/76/63 298/77/64 297/78/65
f 39/79/66 301/80/67 300/81/68
f 38/82/69 302/83/70 299/84/71
f 41/85/72 305/86/73 304/87/74
f 40/88/75 306/89/76 303/90/77
f 43/91/78 309/92/79 308/93/80
f 42/94/81 310/95/82 307/96/83
f 44/97/84 312/98/85 311/99/86
f 45/100/87 314/101/88 313/102/89
f 48/103/90 317/104/91 316/105/92
f 47/106/93 318/107/94 315/108/95
f 50/109/96 321/110/97 320/111/98
f 49/112/99 322/113/100 319/114/101
f 52/115/102 325/116/103 324/117/104
f 51/118/105 326/119/106 323/120/107
f 53/121/108 328/122/108 327/123/109
f 53/121/108 330/124/108 328/122/108
f 56/125/108 330/124/108 332/126/108
f 57/127/108 334/128/108 332/126/108
f 58/129/108 334/128/108 336/130/110
f 58/129/108 336/130/110 338/131/111
f 61/132/108 341/133/108 340/134/108
f 61/132/108 340/134/108 343/135/108
f 62/136/108 341/133/108 345/137/108
f 65/138/108 347/139/108 345/137/108
f 67/140/108 350/141/108 349/142/108
f 66/143/108 350/141/108 351/144/108
f 351/144/108 352/584/108 68/585/108
f 351/144/108 350/141/108 352/584/108
f 350/141/108 67/140/108 352/584/108
f 349/142/108 347/139/108 65/138/108
f 349/142/108 350/141/108 347/139/108
f 350/141/108 66/143/108 347/139/108
f 345/137/108 348/586/108 62/136/108
f 345/137/108 347/139/108 348/586/108
f 347/139/108 66/143/108 348/586/108
f 345/137/108 346/587/108 65/138/108
f 345/137/108 341/133/108 346/587/108
f 341/133/108 61/132/108 346/587/108
f 343/135/108 344/588/108 64/589/108
f 343/135/108 340/134/108 344/588/108
f 340/134/108 63/590/108 344/588/108
f 340/134/108 342/591/108 63/590/108
f 340/134/108 341/133/108 342/591/108
f 341/133/108 62/136/108 342/591/108
f 338/131/111 339/592/407 60/593/408
f 338/131/111 336/130/110 339/592/407
f 336/130/110 59/594/403 339/592/407
f 336/130/110 337/595/108 59/594/403
f 336/130/110 334/128/108 337/595/108
f 334/128/108 57/127/108 337/595/108
f 332/126/108 335/596/108 56/125/108
f 332/126/108 334/128/108 335/596/108
f 334/128/108 58/129/108 335/596/108
f 332/126/108 333/597/108 57/127/108
f 332/126/108 330/124/108 333/597/108
f 330/124/108 53/121/108 333/597/108
f 328/122/108 331/598/108 54/599/108
f 328/122/108 330/124/108 331/598/108
f 330/124/108 56/125/108 331/598/108
f 327/123/109 329/600/108 55/601/409
f 327/123/109 328/122/108 329/600/108
f 328/122/108 54/599/108 329/600/108
f 323/120/107 324/117/104 46/602/410
f 323/120/107 326/119/106 324/117/104
f 326/119/106 52/115/102 324/117/104
f 324/117/104 320/111/98 46/602/410
f 324/117/104 325/116/103 320/111/98
f 325/116/103 50/109/96 320/111/98
f 319/114/101 323/120/107 46/602/410
f 319/114/101 322/113/100 323/120/107
f 322/113/100 51/118/105 323/120/107
f 320/111/98 316/105/92 46/602/410
f 320/111/98 321/110/97 316/105/92
f 321/110/97 48/103/90 316/105/92
f 315/108/95 319/114/101 46/602/410
f 315/108/95 318/107/94 319/114/101
f 318/107/94 49/112/99 319/114/101
f 316/105/92 311/99/86 46/602/410
f 316/105/92 317/104/91 311/99/86
f 317/104/91 44/97/84 311/99/86
f 313/102/89 315/108/95 46/602/410
f 313/102/89 314/101/88 315/108/95
f 314/101/88 47/106/93 315/108/95
f 311/99/86 313/102/89 46/602/410
f 311/99/86 312/98/85 313/102/89
f 312/98/85 45/100/87 313/102/89
f 307/96/83 308/93/80 37/603/411
f 307/96/83 310/95/82 308/93/80
f 310/95/82 43/91/78 308/93/80
f 308/93/80 304/87/74 37/603/411
f 308/93/80 309/92/79 304/87/74
f 309/92/79 41/85/72 304/87/74
f 303/90/77 307/96/83 37/603/411
f 303/90/77 306/89/76 307/96/83
f 306/89/76 42/94/81 307/96/83
f 304/87/74 300/81/68 37/603/411
f 304/87/74 305/86/73 300/81/68
f 305/86/73 39/79/66 300/81/68
f 299/84/71 303/90/77 37/603/411
f 299/84/71 302/83/70 303/90/77
f 302/83/70 40/88/75 303/90/77
f 300/81/68 295/75/62 37/603/411
f 300/81/68 301/80/67 295/75/62
f 301/80/67 35/73/60 295/75/62
f 297/78/65 299/84/71 37/603/411
f 297/78/65 298/77/64 299/84/71
f 298/77/64 38/82/69 299/84/71
f 295/75/62 297/78/65 37/603/411
f 295/75/62 296/74/61 297/78/65
f 296/74/61 36/76/63 297/78/65
f 293/72/59 294/604/49 34/605/412
f 293/72/59 291/71/49 294/604/49
f 291/71/49 33/606/49 294/604/49
f 291/71/49 292/607/49 33/606/49
f 291/71/49 289/68/49 292/607/49
f 289/68/49 28/67/49 292/607/49
f 284/69/49 290/608/49 29/609/49
f 284/69/49 289/68/49 290/608/49
f 289/68/49 32/70/49 290/608/49
f 287/66/58 288/610/413 31/611/414
f 287/66/58 285/65/57 288/610/413
f 285/65/57 30/612/114 288/610/413
f 285/65/57 286/613/49 30/612/114
f 285/65/57 282/64/49 286/613/49
f 282/64/49 29/609/49 286/613/49
f 282/64/49 284/69/49 29/609/49
f 282/64/49 283/63/49 284/69/49
f 283/63/49 28/67/49 284/69/49
f 280/61/49 281/614/415 26/615/49
f 280/61/49 278/60/56 281/614/415
f 278/60/56 25/616/416 281/614/415
f 278/60/56 279/617/49 25/616/416
f 278/60/56 276/58/54 279/617/49
f 276/58/54 23/55/49 279/617/49
f 275/56/53 277/618/417 22/619/418
f 275/56/53 276/58/54 277/618/417
f 276/58/54 24/59/55 277/618/417
f 274/57/49 272/53/51 20/52/49
f 274/57/49 275/56/53 272/53/51
f 275/56/53 22/619/418 272/53/51
f 271/54/52 273/620/419 21/621/420
f 271/54/52 272/53/51 273/620/419
f 272/53/51 22/619/418 273/620/419
f 269/51/50 271/54/52 21/621/420
f 269/51/50 270/50/49 271/54/52
f 270/50/49 20/52/49 271/54/52
f 265/48/48 266/45/45 12/622/421
f 265/48/48 268/47/47 266/45/45
f 268/47/47 18/43/43 266/45/45
f 266/45/45 262/39/39 12/622/421
f 266/45/45 267/44/44 262/39/39
f 267/44/44 16/37/37 262/39/39
f 261/42/42 265/48/48 12/622/421
f 261/42/42 264/41/41 265/48/48
f 264/41/41 17/46/46 265/48/48
f 262/39/39 258/33/33 12/622/421
f 262/39/39 263/38/38 258/33/33
f 263/38/38 14/31/31 258/33/33
f 257/36/36 261/42/42 12/622/421
f 257/36/36 260/35/35 261/42/42
f 260/35/35 15/40/40 261/42/42
f 258/33/33 253/27/27 12/622/421
f 258/33/33 259/32/32 253/27/27
f 259/32/32 10/25/25 253/27/27
f 255/30/30 257/36/36 12/622/421
f 255/30/30 256/29/29 257/36/36
f 256/29/29 13/34/34 257/36/36
f 253/27/27 255/30/30 12/622/421
f 253/27/27 254/26/26 255/30/30
f 254/26/26 11/28/28 255/30/30
f 249/24/24 250/21/21 3/623/422
f 249/24/24 252/23/23 250/21/21
f 252/23/23 9/19/19 250/21/21
f 250/21/21 246/15/15 3/623/422
f 250/21/21 251/20/20 246/15/15
f 251/20/20 7/13/13 246/15/15
f 245/18/18 249/24/24 3/623/422
f 245/18/18 248/17/17 249/24/24
f 248/17/17 8/22/22 249/24/24
f 246/15/15 242/9/9 3/623/422
f 246/15/15 247/14/14 242/9/9
f 247/14/14 5/7/7 242/9/9
f 241/12/12 245/18/18 3/623/422
f 241/12/12 244/11/11 245/18/18
f 244/11/11 6/16/16 245/18/18
f 242/9/9 237/3/3 3/623/422
f 242/9/9 243/8/8 237/3/3
f 243/8/8 1/1/1 237/3/3
f 239/6/6 241/12/12 3/623/422
f 239/6/6 240/5/5 241/12/12
f 240/5/5 4/10/10 241/12/12
f 237/3/3 239/6/6 3/623/422
f 237/3/3 238/2/2 239/6/6
f 238/2/2 2/4/4 239/6/6
usemtl Meshpart2Mtl.008
f 69/145/49 354/146/49 353/147/49
f 70/148/49 354/146/49 356/149/49
f 71/150/49 355/151/49 358/152/49
f 73/153/49 360/154/49 358/152/49
f 74/155/49 360/154/49 362/156/49
f 74/155/49 362/156/49 364/157/112
f 77/158/49 367/159/113 366/160/49
f 78/161/114 367/159/113 369/162/115
f 78/161/114 369/162/115 371/163/116
f 77/158/49 366/160/49 373/164/49
f 82/165/49 374/166/49 375/167/49
f 82/165/49 375/167/49 377/168/49
f 85/169/108 380/170/108 379/171/108
f 86/172/108 380/170/108 382/173/108
f 86/172/108 382/173/108 384/174/108
f 85/169/108 379/171/108 386/175/108
f 90/176/108 387/177/108 388/178/108
f 90/176/108 388/178/108 390/179/108
f 93/180/108 393/181/108 392/182/117
f 93/180/108 392/182/117 395/183/118
f 94/184/108 393/181/108 397/185/108
f 97/186/108 399/187/108 397/185/108
f 98/188/108 399/187/108 401/189/108
f 98/188/108 401/189/108 403/190/108
f 403/190/108 404/546/108 100/547/108
f 403/190/108 401/189/108 404/546/108
f 401/189/108 99/548/108 404/546/108
f 401/189/108 402/549/108 99/548/108
f 401/189/108 399/187/108 402/549/108
f 399/187/108 97/186/108 402/549/108
f 397/185/108 400/550/108 94/184/108
f 397/185/108 399/187/108 400/550/108
f 399/187/108 98/188/108 400/550/108
f 397/185/108 398/551/108 97/186/108
f 397/185/108 393/181/108 398/551/108
f 393/181/108 93/180/108 398/551/108
f 395/183/118 396/552/401 96/553/402
f 395/183/118 392/182/117 396/552/401
f 392/182/117 95/554/403 396/552/401
f 392/182/117 394/555/108 95/554/403
f 392/182/117 393/181/108 394/555/108
f 393/181/108 94/184/108 394/555/108
f 390/179/108 391/556/108 92/557/108
f 390/179/108 388/178/108 391/556/108
f 388/178/108 91/558/108 391/556/108
f 388/178/108 389/559/108 91/558/108
f 388/178/108 387/177/108 389/559/108
f 387/177/108 87/560/108 389/559/108
f 386/175/108 387/177/108 90/176/108
f 386/175/108 379/171/108 387/177/108
f 379/171/108 87/560/108 387/177/108
f 384/174/108 385/561/108 89/562/108
f 384/174/108 382/173/108 385/561/108
f 382/173/108 88/563/108 385/561/108
f 382/173/108 383/564/108 88/563/108
f 382/173/108 380/170/108 383/564/108
f 380/170/108 85/169/108 383/564/108
f 379/171/108 381/565/108 87/560/108
f 379/171/108 380/170/108 381/565/108
f 380/170/108 86/172/108 381/565/108
f 377/168/49 378/566/49 84/567/49
f 377/168/49 375/167/49 378/566/49
f 375/167/49 83/568/49 378/566/49
f 375/167/49 376/569/49 83/568/49
f 375/167/49 374/166/49 376/569/49
f 374/166/49 79/570/49 376/569/49
f 373/164/49 374/166/49 82/165/49
f 373/164/49 366/160/49 374/166/49
f 366/160/49 79/570/49 374/166/49
f 371/163/116 372/571/49 81/572/404
f 371/163/116 369/162/115 372/571/49
f 369/162/115 80/573/49 372/571/49
f 369/162/115 370/574/49 80/573/49
f 369/162/115 367/159/113 370/574/49
f 367/159/113 77/158/49 370/574/49
f 366/160/49 368/575/405 79/570/49
f 366/160/49 367/159/113 368/575/405
f 367/159/113 78/161/114 368/575/405
f 364/157/112 365/576/49 76/577/406
f 364/157/112 362/156/49 365/576/49
f 362/156/49 75/578/49 365/576/49
f 362/156/49 363/579/49 75/578/49
f 362/156/49 360/154/49 363/579/49
f 360/154/49 73/153/49 363/579/49
f 358/152/49 361/580/49 71/150/49
f 358/152/49 360/154/49 361/580/49
f 360/154/49 74/155/49 361/580/49
f 358/152/49 359/581/49 73/153/49
f 358/152/49 355/151/49 359/581/49
f 355/151/49 70/148/49 359/581/49
f 356/149/49 357/582/49 72/583/49
f 356/149/49 354/146/49 357/582/49
f 354/146/49 69/145/49 357/582/49
f 353/147/49 355/151/49 71/150/49
f 353/147/49 354/146/49 355/151/49
f 354/146/49 70/148/49 355/151/49
usemtl Meshpart3Mtl.005
f 101/191/119 406/192/120 405/193/121
f 105/194/122 409/195/123 408/196/124
f 107/197/125 412/198/126 411/199/127
f 110/200/128 415/201/129 414/202/130
f 113/203/131 418/204/132 417/205/133
f 115/206/134 419/207/135 420/208/136
f 113/209/137 423/210/138 422/211/139
f 119/212/140 426/213/141 425/214/142
f 118/215/143 423/210/138 427/216/144
f 117/217/145 429/218/146 425/214/142
f 120/219/147 431/220/148 427/216/144
f 121/221/149 429/218/146 433/222/150
f 122/223/151 431/220/148 435/224/152
f 123/225/153 437/226/154 433/222/150
f 122/223/151 435/224/152 439/227/155
f 125/228/156 437/226/154 441/229/157
f 122/223/151 439/227/155 443/230/158
f 126/231/159 445/232/160 444/233/161
f 129/234/162 448/235/163 447/236/164
f 133/237/165 451/238/166 450/239/167
f 132/240/168 453/241/169 452/242/170
f 133/237/165 450/239/167 455/243/171
f 134/244/172 457/245/173 452/242/170
f 135/246/174 459/247/175 455/243/171
f 136/248/176 457/245/173 461/249/177
f 135/246/174 463/250/178 459/247/175
f 140/251/179 466/252/180 465/253/181
f 139/254/182 463/250/178 467/255/183
f 136/248/176 466/252/180 469/256/184
f 141/257/185 471/258/186 467/255/183
f 140/251/179 473/259/187 470/260/188
f 142/261/189 474/262/190 475/263/191
f 147/264/192 478/265/193 477/266/194
f 148/267/195 481/268/196 480/269/197
f 152/270/198 484/271/199 483/272/200
f 155/273/201 487/274/202 486/275/203
f 157/276/204 490/277/205 489/278/206
f 161/279/207 493/280/208 492/281/209
f 158/282/210 495/283/211 494/284/212
f 161/279/207 497/285/213 493/280/208
f 162/286/214 495/283/211 499/287/215
f 161/279/207 501/288/216 497/285/213
f 164/289/217 503/290/218 499/287/215
f 165/291/219 501/288/216 505/292/220
f 166/293/221 503/290/218 507/294/222
f 167/295/223 509/296/224 505/292/220
f 168/297/225 511/298/226 507/294/222
f 169/299/227 509/296/224 513/300/228
f 170/301/229 515/302/230 512/303/231
f 169/304/232 518/305/233 517/306/234
f 173/307/235 520/308/236 519/309/237
f 175/310/238 521/311/239 522/312/240
f 177/313/241 525/314/242 524/315/243
f 173/307/235 525/314/242 526/316/244
f 178/317/245 529/318/246 528/319/247
f 177/313/241 531/320/248 527/321/249
f 180/322/250 533/323/251 528/319/247
f 181/324/252 531/320/248 535/325/253
f 182/326/254 533/323/251 537/327/255
f 183/328/256 539/329/257 535/325/253
f 182/326/254 537/327/255 541/330/258
f 186/331/259 543/332/260 541/330/258
f 188/333/261 546/334/262 545/335/263
f 186/331/259 548/336/264 543/332/260
f 189/337/265 550/338/266 549/339/267
f 190/340/268 550/338/266 552/341/269
f 194/342/268 555/343/270 554/344/271
f 195/345/272 557/346/272 554/344/271
f 199/347/265 560/348/265 559/349/273
f 198/350/274 563/351/275 562/352/276
f 199/347/265 565/353/277 560/348/265
f 202/354/278 567/355/279 562/352/276
f 207/356/280 570/357/281 569/358/282
f 205/359/283 570/357/281 572/360/284
f 209/361/49 575/362/49 574/363/49
f 212/364/49 578/365/49 577/366/49
f 209/361/49 574/363/49 579/367/49
f 213/368/49 581/369/49 579/367/49
f 211/370/49 583/371/49 580/372/49
f 215/373/49 583/371/49 585/374/49
f 218/375/285 588/376/286 587/377/287
f 218/375/285 590/378/288 588/376/286
f 223/379/289 593/380/290 592/381/291
f 222/382/292 593/380/290 595/383/289
f 225/384/293 598/385/293 597/386/293
f 225/384/293 597/386/293 600/387/293
f 229/388/108 603/389/108 602/390/108
f 230/391/108 603/389/108 605/392/108
f 233/393/108 608/394/108 607/395/108
f 232/396/108 609/397/108 607/395/108
f 230/391/108 608/394/108 611/398/108
f 236/399/294 614/400/295 613/401/108
f 613/401/108 611/398/108 235/402/108
f 613/401/108 614/400/295 611/398/108
f 614/400/295 230/391/108 611/398/108
f 611/398/108 612/403/108 235/402/108
f 611/398/108 608/394/108 612/403/108
f 608/394/108 233/393/108 612/403/108
f 607/395/108 610/404/108 233/393/108
f 607/395/108 609/397/108 610/404/108
f 609/397/108 234/405/108 610/404/108
f 607/395/108 605/392/108 232/396/108
f 607/395/108 608/394/108 605/392/108
f 608/394/108 230/391/108 605/392/108
f 605/392/108 606/406/108 232/396/108
f 605/392/108 603/389/108 606/406/108
f 603/389/108 229/388/108 606/406/108
f 602/390/108 604/407/108 231/408/108
f 602/390/108 603/389/108 604/407/108
f 603/389/108 230/391/108 604/407/108
f 600/387/293 601/409/293 228/410/293
f 600/387/293 597/386/293 601/409/293
f 597/386/293 227/411/293 601/409/293
f 597/386/293 599/412/293 227/411/293
f 597/386/293 598/385/293 599/412/293
f 598/385/293 226/413/293 599/412/293
f 595/383/289 596/414/289 224/415/289
f 595/383/289 593/380/290 596/414/289
f 593/380/290 223/379/289 596/414/289
f 592/381/291 594/416/296 221/417/292
f 592/381/291 593/380/290 594/416/296
f 593/380/290 222/382/292 594/416/296
f 588/376/286 591/418/297 219/419/292
f 588/376/286 590/378/288 591/418/297
f 590/378/288 220/420/292 591/418/297
f 587/377/287 589/421/292 217/422/285
f 587/377/287 588/376/286 589/421/292
f 588/376/286 219/419/292 589/421/292
f 585/374/49 586/423/49 216/424/49
f 585/374/49 583/371/49 586/423/49
f 583/371/49 211/370/49 586/423/49
f 580/372/49 584/425/49 213/368/49
f 580/372/49 583/371/49 584/425/49
f 583/371/49 215/373/49 584/425/49
f 579/367/49 582/426/49 209/361/49
f 579/367/49 581/369/49 582/426/49
f 581/369/49 214/427/49 582/426/49
f 579/367/49 580/372/49 213/368/49
f 579/367/49 574/363/49 580/372/49
f 574/363/49 211/370/49 580/372/49
f 577/366/49 576/428/49 210/429/49
f 577/366/49 578/365/49 576/428/49
f 578/365/49 211/370/49 576/428/49
f 574/363/49 576/428/49 211/370/49
f 574/363/49 575/362/49 576/428/49
f 575/362/49 210/429/49 576/428/49
f 572/360/284 573/430/298 208/431/299
f 572/360/284 570/357/281 573/430/298
f 570/357/281 207/356/280 573/430/298
f 569/358/282 571/432/300 206/433/282
f 569/358/282 570/357/281 571/432/300
f 570/357/281 205/359/283 571/432/300
f 562/352/276 568/434/301 198/350/274
f 562/352/276 567/355/279 568/434/301
f 567/355/279 204/435/302 568/434/301
f 560/348/265 566/436/303 201/437/285
f 560/348/265 565/353/277 566/436/303
f 565/353/277 203/438/285 566/436/303
f 562/352/276 564/439/278 202/354/278
f 562/352/276 563/351/275 564/439/278
f 563/351/275 200/440/278 564/439/278
f 559/349/273 561/441/304 197/375/265
f 559/349/273 560/348/265 561/441/304
f 560/348/265 201/437/285 561/441/304
f 554/344/271 558/442/272 194/342/268
f 554/344/271 557/346/272 558/442/272
f 557/346/272 196/443/272 558/442/272
f 554/344/271 556/444/305 195/345/272
f 554/344/271 555/343/270 556/444/305
f 555/343/270 193/445/268 556/444/305
f 552/341/269 553/446/306 192/447/268
f 552/341/269 550/338/266 553/446/306
f 550/338/266 189/337/265 553/446/306
f 549/339/267 551/448/268 191/449/265
f 549/339/267 550/338/266 551/448/268
f 550/338/266 190/340/268 551/448/268
f 543/332/260 546/334/262 188/333/261
f 543/332/260 548/336/264 546/334/262
f 548/336/264 185/450/307 546/334/262
f 545/335/263 547/451/308 187/452/309
f 545/335/263 546/334/262 547/451/308
f 546/334/262 185/450/307 547/451/308
f 541/330/258 544/453/310 182/326/254
f 541/330/258 543/332/260 544/453/310
f 543/332/260 188/333/261 544/453/310
f 541/330/258 542/454/311 186/331/259
f 541/330/258 537/327/255 542/454/311
f 537/327/255 184/455/312 542/454/311
f 535/325/253 540/456/313 181/324/252
f 535/325/253 539/329/257 540/456/313
f 539/329/257 185/457/314 540/456/313
f 537/327/255 538/458/315 184/455/312
f 537/327/255 533/323/251 538/458/315
f 533/323/251 180/322/250 538/458/315
f 535/325/253 536/459/316 183/328/256
f 535/325/253 531/320/248 536/459/316
f 531/320/248 177/313/241 536/459/316
f 528/319/247 534/460/317 178/317/245
f 528/319/247 533/323/251 534/460/317
f 533/323/251 182/326/254 534/460/317
f 527/321/249 532/461/318 179/462/319
f 527/321/249 531/320/248 532/461/318
f 531/320/248 181/324/252 532/461/318
f 528/319/247 530/463/320 180/322/250
f 528/319/247 529/318/246 530/463/320
f 529/318/246 174/464/321 530/463/320
f 526/316/244 527/321/249 179/462/319
f 526/316/244 525/314/242 527/321/249
f 525/314/242 177/313/241 527/321/249
f 524/315/243 519/309/237 175/465/238
f 524/315/243 525/314/242 519/309/237
f 525/314/242 173/307/235 519/309/237
f 522/312/240 523/466/322 176/467/323
f 522/312/240 521/311/239 523/466/322
f 521/311/239 174/468/324 523/466/322
f 519/309/237 521/469/239 175/465/238
f 519/309/237 520/308/236 521/469/239
f 520/308/236 174/470/324 521/469/239
f 517/306/234 515/302/230 170/301/229
f 517/306/234 518/305/233 515/302/230
f 518/305/233 172/471/325 515/302/230
f 512/303/231 516/472/326 166/293/221
f 512/303/231 515/302/230 516/472/326
f 515/302/230 172/471/325 516/472/326
f 513/300/228 514/473/327 171/474/328
f 513/300/228 509/296/224 514/473/327
f 509/296/224 167/295/223 514/473/327
f 507/294/222 512/303/231 166/293/221
f 507/294/222 511/298/226 512/303/231
f 511/298/226 170/301/229 512/303/231
f 505/292/220 510/475/329 165/291/219
f 505/292/220 509/296/224 510/475/329
f 509/296/224 169/299/227 510/475/329
f 507/294/222 508/476/330 168/297/225
f 507/294/222 503/290/218 508/476/330
f 503/290/218 164/289/217 508/476/330
f 505/292/220 506/477/331 167/295/223
f 505/292/220 501/288/216 506/477/331
f 501/288/216 161/279/207 506/477/331
f 499/287/215 504/478/332 162/286/214
f 499/287/215 503/290/218 504/478/332
f 503/290/218 166/293/221 504/478/332
f 497/285/213 502/479/333 163/480/334
f 497/285/213 501/288/216 502/479/333
f 501/288/216 165/291/219 502/479/333
f 499/287/215 500/481/335 164/289/217
f 499/287/215 495/283/211 500/481/335
f 495/283/211 158/282/210 500/481/335
f 493/280/208 498/482/336 157/276/204
f 493/280/208 497/285/213 498/482/336
f 497/285/213 163/480/334 498/482/336
f 494/284/212 496/483/337 160/484/338
f 494/284/212 495/283/211 496/483/337
f 495/283/211 162/286/214 496/483/337
f 492/281/209 489/278/206 159/485/339
f 492/281/209 493/280/208 489/278/206
f 493/280/208 157/276/204 489/278/206
f 489/278/206 491/486/340 159/485/339
f 489/278/206 490/277/205 491/486/340
f 490/277/205 158/487/341 491/486/340
f 486/275/203 488/488/342 156/489/343
f 486/275/203 487/274/202 488/488/342
f 487/274/202 154/490/344 488/488/342
f 483/272/200 485/491/345 153/492/346
f 483/272/200 484/271/199 485/491/345
f 484/271/199 151/493/347 485/491/345
f 480/269/197 482/494/348 150/495/349
f 480/269/197 481/268/196 482/494/348
f 481/268/196 149/496/350 482/494/348
f 477/266/194 479/497/351 146/498/352
f 477/266/194 478/265/193 479/497/351
f 478/265/193 145/499/353 479/497/351
f 475/263/191 476/500/354 144/501/355
f 475/263/191 474/262/190 476/500/354
f 474/262/190 143/502/356 476/500/354
f 470/260/188 474/262/190 142/261/189
f 470/260/188 473/259/187 474/262/190
f 473/259/187 143/502/356 474/262/190
f 467/255/183 472/503/357 139/254/182
f 467/255/183 471/258/186 472/503/357
f 471/258/186 143/504/358 472/503/357
f 469/256/184 470/260/188 142/261/189
f 469/256/184 466/252/180 470/260/188
f 466/252/180 140/251/179 470/260/188
f 467/255/183 468/505/359 141/257/185
f 467/255/183 463/250/178 468/505/359
f 463/250/178 135/246/174 468/505/359
f 465/253/181 461/249/177 138/506/360
f 465/253/181 466/252/180 461/249/177
f 466/252/180 136/248/176 461/249/177
f 459/247/175 464/507/361 137/508/362
f 459/247/175 463/250/178 464/507/361
f 463/250/178 139/254/182 464/507/361
f 461/249/177 462/509/363 138/506/360
f 461/249/177 457/245/173 462/509/363
f 457/245/173 134/244/172 462/509/363
f 455/243/171 460/510/364 133/237/165
f 455/243/171 459/247/175 460/510/364
f 459/247/175 137/508/362 460/510/364
f 452/242/170 458/511/365 132/240/168
f 452/242/170 457/245/173 458/511/365
f 457/245/173 136/248/176 458/511/365
f 455/243/171 456/512/366 135/246/174
f 455/243/171 450/239/167 456/512/366
f 450/239/167 129/234/162 456/512/366
f 452/242/170 454/513/367 134/244/172
f 452/242/170 453/241/169 454/513/367
f 453/241/169 130/514/368 454/513/367
f 450/239/167 448/235/163 129/234/162
f 450/239/167 451/238/166 448/235/163
f 451/238/166 130/515/369 448/235/163
f 447/236/164 449/516/370 131/517/371
f 447/236/164 448/235/163 449/516/370
f 448/235/163 130/515/369 449/516/370
f 444/233/161 446/518/372 128/519/373
f 444/233/161 445/232/160 446/518/372
f 445/232/160 125/520/374 446/518/372
f 443/230/158 444/233/161 128/519/373
f 443/230/158 439/227/155 444/233/161
f 439/227/155 126/231/159 444/233/161
f 441/229/157 442/521/375 127/522/376
f 441/229/157 437/226/154 442/521/375
f 437/226/154 123/225/153 442/521/375
f 439/227/155 440/523/377 126/231/159
f 439/227/155 435/224/152 440/523/377
f 435/224/152 124/524/378 440/523/377
f 433/222/150 438/525/379 121/221/149
f 433/222/150 437/226/154 438/525/379
f 437/226/154 125/228/156 438/525/379
f 435/224/152 436/526/380 124/524/378
f 435/224/152 431/220/148 436/526/380
f 431/220/148 120/219/147 436/526/380
f 433/222/150 434/527/381 123/225/153
f 433/222/150 429/218/146 434/527/381
f 429/218/146 117/217/145 434/527/381
f 427/216/144 432/528/382 118/215/143
f 427/216/144 431/220/148 432/528/382
f 431/220/148 122/223/151 432/528/382
f 425/214/142 430/529/383 119/212/140
f 425/214/142 429/218/146 430/529/383
f 429/218/146 121/221/149 430/529/383
f 427/216/144 428/530/384 120/219/147
f 427/216/144 423/210/138 428/530/384
f 423/210/138 113/209/137 428/530/384
f 425/214/142 420/208/136 117/217/145
f 425/214/142 426/213/141 420/208/136
f 426/213/141 115/206/134 420/208/136
f 422/211/139 424/531/385 116/532/386
f 422/211/139 423/210/138 424/531/385
f 423/210/138 118/215/143 424/531/385
f 420/208/136 421/533/387 117/217/145
f 420/208/136 419/207/135 421/533/387
f 419/207/135 114/534/388 421/533/387
f 417/205/133 419/207/135 115/206/134
f 417/205/133 418/204/132 419/207/135
f 418/204/132 114/534/388 419/207/135
f 414/202/130 416/535/389 111/536/390
f 414/202/130 415/201/129 416/535/389
f 415/201/129 112/537/391 416/535/389
f 411/199/127 413/538/392 108/539/393
f 411/199/127 412/198/126 413/538/392
f 412/198/126 109/540/394 413/538/392
f 408/196/124 410/541/395 106/542/396
f 408/196/124 409/195/123 410/541/395
f 409/195/123 104/543/397 410/541/395
f 405/193/121 407/544/398 102/499/399
f 405/193/121 406/192/120 407/544/398
f 406/192/120 103/545/400 407/544/398
